<svg width="79" height="32" viewBox="0 0 79 32" fill="none" xmlns="http://www.w3.org/2000/svg">
<g clip-path="url(#clip0_39_139)">
<path d="M1.59292 0.122723C0.919862 0.268177 0.385906 0.672724 0.175016 1.20454L0.0673274 1.47727L0.0538663 3.99545L0.0404053 6.50909L0.143607 6.48636C0.201938 6.47272 0.942297 6.43636 1.79483 6.40909C3.62554 6.34545 9.9657 6.37272 10.9259 6.45C13.9816 6.69545 15.552 7.35454 16.1937 8.66363C16.3911 9.06363 16.4988 9.39091 16.602 9.91363C16.7007 10.4 16.795 11.6909 16.7725 12.2727L16.7591 12.6591L13.9726 12.6727L11.1817 12.6818L11.1548 12.3318C11.0964 11.6409 11.0516 11.5 10.8182 11.2727C10.6029 11.0545 10.365 10.9591 9.80417 10.8591C9.63815 10.8273 8.35486 10.8 6.48377 10.7864C1.85316 10.75 0.81666 10.8364 0.421802 11.2818C0.219886 11.5045 0.161555 11.6864 0.143607 12.1636C0.125659 12.5591 0.13912 12.65 0.224373 12.8591C0.341036 13.1318 0.592309 13.3727 0.843583 13.4455C1.28331 13.5818 3.19927 13.6955 7.08952 13.8182C11.3746 13.9545 13.1201 14.0864 14.179 14.3455C15.7136 14.7273 16.6738 15.55 17.0866 16.8409C17.3783 17.7409 17.5039 19.1909 17.4142 20.6364C17.3065 22.4455 17.0193 23.4545 16.3642 24.3136C15.8258 25.0227 14.8296 25.5182 13.4835 25.7455C12.3214 25.9455 10.9708 26.0045 6.7844 26.0409L3.31145 26.0682L4.18193 26.8864C5.18254 27.8318 7.88372 30.3636 8.26961 30.7182C8.74972 31.1545 9.55738 31.5682 10.4009 31.8091L10.8362 31.9318H44.0626C76.1897 31.9318 77.298 31.9273 77.5582 31.85C78.1999 31.65 78.6486 31.2818 78.846 30.7818C78.9492 30.5227 78.9492 30.5045 78.9627 28.1455L78.9761 25.7727H72.0616H65.1516V16.2045V6.63636H68.1804H71.2091V13.75V20.8636H75.0904H78.9761L78.9627 15.6909L78.9492 10.5227L78.8236 10.0909C78.5813 9.25 78.0608 8.30454 77.4864 7.66363C77.1365 7.27727 71.9225 2.3409 70.72 1.25909C70.2534 0.840904 69.4412 0.427269 68.6156 0.190905L68.1804 0.0681782L35.0437 0.0590858C5.77482 0.0545406 1.87111 0.0590858 1.59292 0.122723ZM39.3512 8.88636V11.1364H32.2617H25.1722V12.9318V14.7273H31.9252H38.6782V16.9318V19.1364H31.9252H25.1722V22.4545V25.7727H22.3005H19.4288V16.2045V6.63636H29.39H39.3512V8.88636ZM57.0301 6.68181C57.5865 6.70909 58.2102 6.75 58.4211 6.77727C59.7582 6.9409 60.853 7.33181 61.6158 7.90909C62.7735 8.7909 63.2671 10.5727 63.2671 13.8409C63.2671 18.7045 62.2575 20.3045 58.8249 20.8636C57.7256 21.0409 57.2769 21.0545 51.7713 21.0773L46.3959 21.1V23.4364V25.7727H43.5242H40.6525V16.2045V6.63636H48.3387C52.727 6.63636 56.4513 6.65909 57.0301 6.68181Z" fill="#EC333F"/>
<path d="M46.3959 13.8636V16.2727H50.7842C53.1937 16.2727 55.4103 16.25 55.7064 16.2318C56.4064 16.1773 56.7026 16.0682 57.0122 15.7545C57.1872 15.5818 57.2634 15.4591 57.3173 15.2773C57.4429 14.8455 57.4923 14.2818 57.4654 13.5682C57.425 12.5182 57.2724 12.0909 56.8372 11.7955C56.6936 11.7 56.5051 11.6182 56.3571 11.5909C55.8007 11.4909 54.3334 11.4545 50.4701 11.4545H46.3959V13.8636Z" fill="#EC333F"/>
<path d="M0.0449219 19.3273V20.5318L0.18402 20.8136C0.412858 21.2773 0.758359 21.4591 1.58397 21.5545C2.26151 21.6318 9.9433 21.6318 10.4414 21.5545C11.2445 21.4273 11.5362 21.25 11.7157 20.7818C11.792 20.5773 11.8144 20.4182 11.8189 20.0227C11.8234 19.4636 11.7695 19.2136 11.59 19C11.2939 18.6409 10.8856 18.5591 9.08628 18.5C8.32348 18.4727 6.37163 18.3909 4.7563 18.3182C3.14097 18.2454 1.41795 18.1682 0.933353 18.1545L0.0449219 18.1227V19.3273Z" fill="#EC333F"/>
</g>
<defs>
<clipPath id="clip0_39_139">
<rect width="79" height="32" fill="white"/>
</clipPath>
</defs>
</svg>
