<svg width="315" height="315" viewBox="0 0 315 315" fill="none" xmlns="http://www.w3.org/2000/svg">
<rect width="315" height="315" fill="#ED313D"/>
<path d="M28.5349 102.061C28.695 102.06 28.8552 102.06 29.0202 102.06C29.5595 102.059 30.0988 102.059 30.6381 102.06C31.0293 102.059 31.4205 102.059 31.8116 102.059C32.6662 102.058 33.5207 102.058 34.3752 102.058C35.6545 102.058 36.9338 102.057 38.2131 102.056C40.3934 102.055 42.5737 102.054 44.7539 102.054C46.964 102.053 49.1741 102.053 51.3842 102.052C51.5237 102.052 51.6632 102.051 51.8069 102.051C52.375 102.051 52.9432 102.051 53.5113 102.051C60.4005 102.047 67.2896 102.046 74.1788 102.044C76.4128 102.044 78.6468 102.043 80.8808 102.043C81.1172 102.042 81.1172 102.042 81.3583 102.042C81.9959 102.042 82.6335 102.042 83.271 102.042C94.1772 102.039 105.083 102.037 115.989 102.036C116.846 102.035 117.703 102.035 118.56 102.035C118.73 102.035 118.899 102.035 119.075 102.035C120.796 102.035 122.518 102.035 124.24 102.035C124.585 102.035 124.93 102.035 125.276 102.035C136.362 102.033 147.449 102.03 158.535 102.025C166.501 102.021 174.466 102.018 182.432 102.017C182.678 102.017 182.678 102.017 182.928 102.017C186.525 102.016 190.122 102.016 193.718 102.016C195.165 102.016 196.613 102.015 198.06 102.015C198.218 102.015 198.376 102.015 198.54 102.015C203.641 102.015 208.742 102.013 213.842 102.01C218.981 102.006 224.119 102.005 229.258 102.007C229.968 102.007 230.679 102.007 231.389 102.007C231.529 102.007 231.668 102.007 231.811 102.007C234.014 102.008 236.217 102.006 238.42 102.004C240.588 102.001 242.756 102.001 244.923 102.003C246.193 102.005 247.463 102.004 248.733 102.001C249.677 101.999 250.621 102 251.566 102.003C251.944 102.003 252.323 102.003 252.701 102.001C257.453 101.981 262.597 102.969 266.256 106.265C266.428 106.437 266.597 106.613 266.762 106.791C267.034 107.074 267.318 107.328 267.615 107.583C268.257 108.139 268.877 108.715 269.494 109.298C270.389 110.141 271.29 110.977 272.199 111.807C272.945 112.489 273.687 113.175 274.429 113.861C274.68 114.092 274.931 114.323 275.181 114.554C276.186 115.479 277.186 116.408 278.183 117.341C278.81 117.926 279.439 118.509 280.07 119.09C281.923 120.797 283.76 122.521 285.597 124.245C285.939 124.565 286.281 124.885 286.623 125.205C287.183 125.73 287.741 126.256 288.298 126.784C288.533 127.005 288.768 127.226 289.003 127.447C292.201 130.525 294.793 135.198 294.993 139.702C294.999 140.072 295 140.441 294.999 140.81C294.999 141.022 294.999 141.022 294.999 141.237C295 141.708 295 142.179 294.999 142.649C294.999 142.988 295 143.326 295 143.664C295.001 144.581 295 145.498 295 146.414C295 147.373 295 148.332 295 149.291C295 150.9 295 152.509 294.999 154.118C294.998 155.981 294.999 157.844 295 159.706C295 161.305 295 162.903 295 164.501C295 165.456 295 166.411 295 167.366C295.001 168.263 295 169.16 294.999 170.057C294.999 170.387 294.999 170.717 295 171.047C295 171.495 295 171.944 294.999 172.393C294.999 172.591 294.999 172.591 295 172.794C294.997 173.689 294.997 173.689 294.823 173.863C294.475 173.879 294.128 173.883 293.78 173.883C293.614 173.883 293.614 173.883 293.446 173.884C293.073 173.884 292.701 173.884 292.328 173.883C292.063 173.884 291.797 173.884 291.531 173.884C290.807 173.885 290.083 173.885 289.359 173.884C288.602 173.884 287.846 173.884 287.09 173.884C285.821 173.885 284.551 173.884 283.281 173.884C281.81 173.883 280.34 173.883 278.87 173.884C277.61 173.885 276.35 173.885 275.09 173.884C274.336 173.884 273.582 173.884 272.829 173.885C272.12 173.885 271.412 173.885 270.704 173.884C270.443 173.884 270.182 173.884 269.922 173.884C269.567 173.884 269.213 173.884 268.858 173.883C268.56 173.883 268.56 173.883 268.256 173.883C267.815 173.863 267.815 173.863 267.659 173.707C267.644 173.448 267.64 173.188 267.64 172.928C267.64 172.758 267.639 172.588 267.639 172.413C267.639 172.224 267.64 172.035 267.64 171.84C267.64 171.641 267.64 171.442 267.64 171.237C267.64 170.682 267.64 170.128 267.641 169.573C267.642 168.976 267.642 168.378 267.641 167.781C267.641 166.745 267.642 165.71 267.643 164.674C267.644 163.177 267.644 161.679 267.645 160.182C267.645 157.752 267.646 155.323 267.647 152.894C267.649 150.534 267.65 148.173 267.651 145.813C267.651 145.667 267.651 145.522 267.651 145.372C267.651 144.643 267.651 143.914 267.651 143.184C267.653 137.129 267.656 131.075 267.659 125.02C260.807 125.02 253.956 125.02 246.896 125.02C246.896 146.597 246.896 168.174 246.896 190.405C262.763 190.405 278.631 190.405 294.979 190.405C294.979 207.896 294.979 207.896 293.29 209.755C291.39 211.535 288.867 211.965 286.353 211.959C286.193 211.959 286.033 211.96 285.868 211.96C285.328 211.961 284.789 211.96 284.25 211.96C283.859 211.96 283.468 211.96 283.077 211.961C282.223 211.961 281.369 211.962 280.514 211.961C279.235 211.961 277.956 211.962 276.678 211.962C274.498 211.964 272.319 211.964 270.139 211.964C267.93 211.964 265.72 211.965 263.511 211.966C263.372 211.966 263.232 211.966 263.088 211.966C262.52 211.966 261.953 211.966 261.385 211.966C254.658 211.969 247.932 211.97 241.205 211.971C237.856 211.971 234.507 211.972 231.158 211.972C220.417 211.974 209.675 211.976 198.934 211.976C198.421 211.976 197.907 211.976 197.394 211.976C196.364 211.976 195.334 211.977 194.305 211.977C193.099 211.977 191.893 211.977 190.688 211.977C190.343 211.977 189.998 211.977 189.653 211.977C178.571 211.977 167.488 211.98 156.406 211.983C148.444 211.986 140.481 211.988 132.519 211.989C132.355 211.989 132.191 211.989 132.023 211.989C128.428 211.989 124.833 211.99 121.239 211.99C119.952 211.99 118.666 211.99 117.38 211.99C117.06 211.99 116.74 211.99 116.42 211.99C111.321 211.99 106.222 211.992 101.122 211.994C95.9863 211.996 90.8502 211.997 85.714 211.996C85.0041 211.995 84.2943 211.995 83.5844 211.995C83.3757 211.995 83.3757 211.995 83.1627 211.995C80.9601 211.995 78.7574 211.996 76.5548 211.998C74.3885 211.999 72.2221 211.999 70.0558 211.998C68.7861 211.997 67.5164 211.997 66.2467 211.999C65.3033 212.001 64.36 212 63.4166 211.998C63.0378 211.998 62.6591 211.998 62.2804 211.999C59.6385 212.008 57.1637 211.855 54.6433 210.984C54.507 210.937 54.3707 210.891 54.2303 210.843C52.2209 210.13 50.3762 209.161 48.7891 207.726C48.6442 207.596 48.4993 207.466 48.35 207.332C47.9507 206.971 47.5556 206.605 47.1616 206.238C46.8303 205.93 46.4975 205.623 46.1646 205.317C45.9093 205.082 45.6542 204.846 45.3991 204.61C44.8901 204.14 44.3808 203.67 43.8715 203.201C43.7024 203.045 43.5333 202.888 43.3642 202.732C43.2386 202.617 43.2386 202.617 43.1105 202.498C42.8568 202.264 42.6031 202.03 42.3494 201.796C42.2657 201.719 42.182 201.642 42.0958 201.562C41.9264 201.406 41.7571 201.25 41.5877 201.093C41.169 200.707 40.7501 200.32 40.3309 199.934C39.3265 199.009 38.3261 198.08 37.3283 197.148C36.7014 196.562 36.0724 195.979 35.4414 195.398C35.1928 195.169 34.9442 194.939 34.6956 194.71C34.5051 194.534 34.3144 194.359 34.1236 194.183C33.8078 193.893 33.4928 193.602 33.1778 193.311C33.0318 193.177 33.0318 193.177 32.883 193.041C32.7439 192.912 32.7439 192.912 32.6021 192.781C32.521 192.706 32.4399 192.631 32.3564 192.554C31.9801 192.17 31.6474 191.755 31.3044 191.341C31.4057 191.34 31.5069 191.34 31.6112 191.339C34.1235 191.326 36.6358 191.312 39.1481 191.296C40.3632 191.288 41.5783 191.281 42.7935 191.275C47.6837 191.25 52.5712 191.211 57.4588 191.042C57.6374 191.036 57.8161 191.03 58.0001 191.024C62.4402 190.872 62.4402 190.872 66.8396 190.287C66.9855 190.261 67.1315 190.234 67.2818 190.207C70.5687 189.583 73.7354 188.677 76.1088 186.191C76.2169 186.084 76.3249 185.978 76.4363 185.868C80.7797 181.342 80.6174 173.772 80.497 167.926C80.3577 162.892 79.5574 158.098 75.76 154.494C69.0063 148.684 56.3102 150.126 48.0097 149.836C47.8212 149.829 47.6327 149.823 47.4385 149.816C45.5219 149.749 43.6052 149.683 41.6884 149.621C37.9808 149.5 34.2744 149.364 30.5699 149.168C30.2133 149.149 29.8566 149.131 29.5 149.113C27.7776 149.026 26.0611 148.912 24.3497 148.695C24.2186 148.68 24.0876 148.665 23.9526 148.65C22.8058 148.489 22.0018 148.023 21.1864 147.208C20.2486 145.842 20.216 144.417 20.3765 142.81C20.5886 141.683 21.0086 140.953 21.8919 140.225C22.9688 139.55 23.9774 139.41 25.2258 139.279C25.3857 139.26 25.5456 139.241 25.7103 139.222C28.8813 138.87 32.0762 138.885 35.2621 138.888C35.6803 138.887 36.0984 138.887 36.5165 138.887C37.3869 138.887 38.2572 138.887 39.1276 138.888C40.1245 138.889 41.1215 138.889 42.1184 138.888C42.9849 138.887 43.8514 138.887 44.718 138.887C45.2309 138.887 45.7438 138.887 46.2567 138.887C48.0992 138.886 49.9398 138.887 51.7805 138.976C51.96 138.985 51.96 138.985 52.1432 138.994C54.1884 139.108 56.7026 139.254 58.1894 140.837C59.0853 142.162 58.9915 143.947 59.0925 145.462C65.4291 145.462 71.7658 145.462 78.2944 145.462C78.2911 136.637 78.2911 136.637 74.1464 129.086C64.4155 120.86 43.5364 123.968 31.9387 124.142C31.7624 124.145 31.5862 124.147 31.4047 124.149C27.6217 124.203 23.8435 124.381 20.0643 124.552C20.0534 122.407 20.0451 120.262 20.0401 118.118C20.0376 117.122 20.0343 116.126 20.029 115.13C20.0239 114.167 20.0211 113.205 20.0199 112.243C20.019 111.877 20.0173 111.511 20.0148 111.145C19.9961 108.342 19.9994 106.16 21.9767 103.992C23.7133 102.348 26.2505 102.056 28.5349 102.061ZM87.6612 125.02C87.6612 146.597 87.6612 168.174 87.6612 190.405C94.2038 190.405 100.747 190.405 107.487 190.405C107.539 182.938 107.591 175.471 107.644 167.777C123.099 167.726 138.554 167.674 154.477 167.621C154.477 162.729 154.477 157.837 154.477 152.797C138.971 152.797 123.464 152.797 107.487 152.797C107.487 148.677 107.487 144.557 107.487 140.313C123.767 140.313 140.046 140.313 156.819 140.313C156.819 135.266 156.819 130.219 156.819 125.02C133.997 125.02 111.175 125.02 87.6612 125.02ZM161.503 125.02C161.503 146.597 161.503 168.174 161.503 190.405C168.045 190.405 174.588 190.405 181.329 190.405C181.38 185.152 181.432 179.899 181.485 174.488C185.134 174.476 185.134 174.476 188.858 174.464C190.41 174.459 191.962 174.453 193.515 174.447C195.972 174.438 198.43 174.429 200.887 174.422C202.678 174.416 204.469 174.41 206.26 174.403C207.205 174.399 208.151 174.395 209.096 174.393C212.56 174.385 216.02 174.371 219.48 174.189C219.659 174.18 219.659 174.18 219.841 174.17C225.836 173.851 231.829 172.787 236.085 168.255C240.158 163.57 240.118 156.017 240.088 150.142C240.086 149.615 240.087 149.088 240.09 148.561C240.114 142.863 240.066 135.049 235.83 130.646C235.618 130.433 235.403 130.223 235.188 130.013C235.085 129.909 234.982 129.805 234.877 129.698C231.197 126.201 225.093 125.417 220.276 125.16C220.155 125.154 220.034 125.147 219.91 125.14C217.231 124.996 214.556 124.977 211.873 124.984C211.184 124.985 210.494 124.985 209.805 124.984C208.476 124.984 207.147 124.986 205.818 124.988C204.276 124.99 202.734 124.99 201.192 124.99C197.134 124.992 193.075 124.996 189.017 125C179.937 125.007 170.858 125.013 161.503 125.02Z" fill="white"/>
<path d="M28.5349 102.061C28.695 102.06 28.8552 102.06 29.0202 102.06C29.5595 102.059 30.0988 102.059 30.6381 102.06C31.0293 102.059 31.4205 102.059 31.8116 102.059C32.6662 102.058 33.5207 102.058 34.3752 102.058C35.6545 102.058 36.9338 102.057 38.2131 102.056C40.3934 102.055 42.5737 102.054 44.7539 102.054C46.964 102.053 49.1741 102.053 51.3842 102.052C51.5237 102.052 51.6632 102.051 51.8069 102.051C52.375 102.051 52.9432 102.051 53.5113 102.051C60.4005 102.047 67.2896 102.046 74.1788 102.044C76.4128 102.044 78.6468 102.043 80.8808 102.043C81.1172 102.042 81.1172 102.042 81.3583 102.042C81.9959 102.042 82.6335 102.042 83.271 102.042C94.1772 102.039 105.083 102.037 115.989 102.036C116.846 102.035 117.703 102.035 118.56 102.035C118.73 102.035 118.899 102.035 119.075 102.035C120.796 102.035 122.518 102.035 124.24 102.035C124.585 102.035 124.93 102.035 125.276 102.035C136.362 102.033 147.449 102.03 158.535 102.025C166.501 102.021 174.466 102.018 182.432 102.017C182.678 102.017 182.678 102.017 182.928 102.017C186.525 102.016 190.122 102.016 193.718 102.016C195.165 102.016 196.613 102.015 198.06 102.015C198.218 102.015 198.376 102.015 198.54 102.015C203.641 102.015 208.742 102.013 213.842 102.01C218.981 102.006 224.119 102.005 229.258 102.007C229.968 102.007 230.679 102.007 231.389 102.007C231.529 102.007 231.668 102.007 231.811 102.007C234.014 102.008 236.217 102.006 238.42 102.004C240.588 102.001 242.756 102.001 244.923 102.003C246.193 102.005 247.463 102.004 248.733 102.001C249.677 101.999 250.621 102 251.566 102.003C251.944 102.003 252.323 102.003 252.701 102.001C257.453 101.981 262.597 102.969 266.256 106.265C266.428 106.437 266.597 106.613 266.762 106.791C267.034 107.074 267.318 107.328 267.615 107.583C268.257 108.139 268.877 108.715 269.494 109.298C270.389 110.141 271.29 110.977 272.199 111.807C272.945 112.489 273.687 113.175 274.429 113.861C274.68 114.092 274.931 114.323 275.181 114.554C276.186 115.479 277.186 116.408 278.183 117.341C278.81 117.926 279.439 118.509 280.07 119.09C281.923 120.797 283.76 122.521 285.597 124.245C285.939 124.565 286.281 124.885 286.623 125.205C287.183 125.73 287.741 126.256 288.298 126.784C288.533 127.005 288.768 127.226 289.003 127.447C292.201 130.525 294.793 135.198 294.993 139.702C294.999 140.072 295 140.441 294.999 140.81C294.999 141.022 294.999 141.022 294.999 141.237C295 141.708 295 142.179 294.999 142.649C294.999 142.988 295 143.326 295 143.664C295.001 144.581 295 145.498 295 146.414C295 147.373 295 148.332 295 149.291C295 150.9 295 152.509 294.999 154.118C294.998 155.981 294.999 157.844 295 159.706C295 161.305 295 162.903 295 164.501C295 165.456 295 166.411 295 167.366C295.001 168.263 295 169.16 294.999 170.057C294.999 170.387 294.999 170.717 295 171.047C295 171.495 295 171.944 294.999 172.393C294.999 172.591 294.999 172.591 295 172.794C294.997 173.689 294.997 173.689 294.823 173.863C294.475 173.879 294.128 173.883 293.78 173.883C293.614 173.883 293.614 173.883 293.446 173.884C293.073 173.884 292.701 173.884 292.328 173.883C292.063 173.884 291.797 173.884 291.531 173.884C290.807 173.885 290.083 173.885 289.359 173.884C288.602 173.884 287.846 173.884 287.09 173.884C285.821 173.885 284.551 173.884 283.281 173.884C281.81 173.883 280.34 173.883 278.87 173.884C277.61 173.885 276.35 173.885 275.09 173.884C274.336 173.884 273.582 173.884 272.829 173.885C272.12 173.885 271.412 173.885 270.704 173.884C270.443 173.884 270.182 173.884 269.922 173.884C269.567 173.884 269.213 173.884 268.858 173.883C268.56 173.883 268.56 173.883 268.256 173.883C267.815 173.863 267.815 173.863 267.659 173.707C267.644 173.448 267.64 173.188 267.64 172.928C267.64 172.758 267.639 172.588 267.639 172.413C267.639 172.224 267.64 172.035 267.64 171.84C267.64 171.641 267.64 171.442 267.64 171.237C267.64 170.682 267.64 170.128 267.641 169.573C267.642 168.976 267.642 168.378 267.641 167.781C267.641 166.745 267.642 165.71 267.643 164.674C267.644 163.177 267.644 161.679 267.645 160.182C267.645 157.752 267.646 155.323 267.647 152.894C267.649 150.534 267.65 148.173 267.651 145.813C267.651 145.667 267.651 145.522 267.651 145.372C267.651 144.643 267.651 143.914 267.651 143.184C267.653 137.129 267.656 131.075 267.659 125.02C260.807 125.02 253.956 125.02 246.896 125.02C246.896 146.597 246.896 168.174 246.896 190.405C262.763 190.405 278.631 190.405 294.979 190.405C294.979 207.896 294.979 207.896 293.29 209.755C291.39 211.535 288.867 211.965 286.353 211.959C286.193 211.959 286.033 211.96 285.868 211.96C285.328 211.961 284.789 211.96 284.25 211.96C283.859 211.96 283.468 211.96 283.077 211.961C282.223 211.961 281.369 211.962 280.514 211.961C279.235 211.961 277.956 211.962 276.678 211.962C274.498 211.964 272.319 211.964 270.139 211.964C267.93 211.964 265.72 211.965 263.511 211.966C263.372 211.966 263.232 211.966 263.088 211.966C262.52 211.966 261.953 211.966 261.385 211.966C254.658 211.969 247.932 211.97 241.205 211.971C237.856 211.971 234.507 211.972 231.158 211.972C220.417 211.974 209.675 211.976 198.934 211.976C198.421 211.976 197.907 211.976 197.394 211.976C196.364 211.976 195.334 211.977 194.305 211.977C193.099 211.977 191.893 211.977 190.688 211.977C190.343 211.977 189.998 211.977 189.653 211.977C178.571 211.977 167.488 211.98 156.406 211.983C148.444 211.986 140.481 211.988 132.519 211.989C132.355 211.989 132.191 211.989 132.023 211.989C128.428 211.989 124.833 211.99 121.239 211.99C119.952 211.99 118.666 211.99 117.38 211.99C117.06 211.99 116.74 211.99 116.42 211.99C111.321 211.99 106.222 211.992 101.122 211.994C95.9863 211.996 90.8502 211.997 85.714 211.996C85.0041 211.995 84.2943 211.995 83.5844 211.995C83.3757 211.995 83.3757 211.995 83.1627 211.995C80.9601 211.995 78.7574 211.996 76.5548 211.998C74.3885 211.999 72.2221 211.999 70.0558 211.998C68.7861 211.997 67.5164 211.997 66.2467 211.999C65.3033 212.001 64.36 212 63.4166 211.998C63.0378 211.998 62.6591 211.998 62.2804 211.999C59.6385 212.008 57.1637 211.855 54.6433 210.984C54.507 210.937 54.3707 210.891 54.2303 210.843C52.2209 210.13 50.3762 209.161 48.7891 207.726C48.6442 207.596 48.4993 207.466 48.35 207.332C47.9507 206.971 47.5556 206.605 47.1616 206.238C46.8303 205.93 46.4975 205.623 46.1646 205.317C45.9093 205.082 45.6542 204.846 45.3991 204.61C44.8901 204.14 44.3808 203.67 43.8715 203.201C43.7024 203.045 43.5333 202.888 43.3642 202.732C43.2386 202.617 43.2386 202.617 43.1105 202.498C42.8568 202.264 42.6031 202.03 42.3494 201.796C42.2657 201.719 42.182 201.642 42.0958 201.562C41.9264 201.406 41.7571 201.25 41.5877 201.093C41.169 200.707 40.7501 200.32 40.3309 199.934C39.3265 199.009 38.3261 198.08 37.3283 197.148C36.7014 196.562 36.0724 195.979 35.4414 195.398C35.1928 195.169 34.9442 194.939 34.6956 194.71C34.5051 194.534 34.3144 194.359 34.1236 194.183C33.8078 193.893 33.4928 193.602 33.1778 193.311C33.0318 193.177 33.0318 193.177 32.883 193.041C32.7439 192.912 32.7439 192.912 32.6021 192.781C32.521 192.706 32.4399 192.631 32.3564 192.554C31.9801 192.17 31.6474 191.755 31.3044 191.341C31.4057 191.34 31.5069 191.34 31.6112 191.339C34.1235 191.326 36.6358 191.312 39.1481 191.296C40.3632 191.288 41.5783 191.281 42.7935 191.275C47.6837 191.25 52.5712 191.211 57.4588 191.042C57.6374 191.036 57.8161 191.03 58.0001 191.024C62.4402 190.872 62.4402 190.872 66.8396 190.287C66.9855 190.261 67.1315 190.234 67.2818 190.207C70.5687 189.583 73.7354 188.677 76.1088 186.191C76.2169 186.084 76.3249 185.978 76.4363 185.868C80.7797 181.342 80.6174 173.772 80.497 167.926C80.3577 162.892 79.5574 158.098 75.76 154.494C69.0063 148.684 56.3102 150.126 48.0097 149.836C47.8212 149.829 47.6327 149.823 47.4385 149.816C45.5219 149.749 43.6052 149.683 41.6884 149.621C37.9808 149.5 34.2744 149.364 30.5699 149.168C30.2133 149.149 29.8566 149.131 29.5 149.113C27.7776 149.026 26.0611 148.912 24.3497 148.695C24.2186 148.68 24.0876 148.665 23.9526 148.65C22.8058 148.489 22.0018 148.023 21.1864 147.208C20.2486 145.842 20.216 144.417 20.3765 142.81C20.5886 141.683 21.0086 140.953 21.8919 140.225C22.9688 139.55 23.9774 139.41 25.2258 139.279C25.3857 139.26 25.5456 139.241 25.7103 139.222C28.8813 138.87 32.0762 138.885 35.2621 138.888C35.6803 138.887 36.0984 138.887 36.5165 138.887C37.3869 138.887 38.2572 138.887 39.1276 138.888C40.1245 138.889 41.1215 138.889 42.1184 138.888C42.9849 138.887 43.8514 138.887 44.718 138.887C45.2309 138.887 45.7438 138.887 46.2567 138.887C48.0992 138.886 49.9398 138.887 51.7805 138.976C51.96 138.985 51.96 138.985 52.1432 138.994C54.1884 139.108 56.7026 139.254 58.1894 140.837C59.0853 142.162 58.9915 143.947 59.0925 145.462C65.4291 145.462 71.7658 145.462 78.2944 145.462C78.2911 136.637 78.2911 136.637 74.1464 129.086C64.4155 120.86 43.5364 123.968 31.9387 124.142C31.7624 124.145 31.5862 124.147 31.4047 124.149C27.6217 124.203 23.8435 124.381 20.0643 124.552C20.0534 122.407 20.0451 120.262 20.0401 118.118C20.0376 117.122 20.0343 116.126 20.029 115.13C20.0239 114.167 20.0211 113.205 20.0199 112.243C20.019 111.877 20.0173 111.511 20.0148 111.145C19.9961 108.342 19.9994 106.16 21.9767 103.992C23.7133 102.348 26.2505 102.056 28.5349 102.061ZM87.6612 125.02C87.6612 146.597 87.6612 168.174 87.6612 190.405C94.2038 190.405 100.747 190.405 107.487 190.405C107.539 182.938 107.591 175.471 107.644 167.777C123.099 167.726 138.554 167.674 154.477 167.621C154.477 162.729 154.477 157.837 154.477 152.797C138.971 152.797 123.464 152.797 107.487 152.797C107.487 148.677 107.487 144.557 107.487 140.313C123.767 140.313 140.046 140.313 156.819 140.313C156.819 135.266 156.819 130.219 156.819 125.02C133.997 125.02 111.175 125.02 87.6612 125.02ZM161.503 125.02C161.503 146.597 161.503 168.174 161.503 190.405C168.045 190.405 174.588 190.405 181.329 190.405C181.38 185.152 181.432 179.899 181.485 174.488C185.134 174.476 185.134 174.476 188.858 174.464C190.41 174.459 191.962 174.453 193.515 174.447C195.972 174.438 198.43 174.429 200.887 174.422C202.678 174.416 204.469 174.41 206.26 174.403C207.205 174.399 208.151 174.395 209.096 174.393C212.56 174.385 216.02 174.371 219.48 174.189C219.659 174.18 219.659 174.18 219.841 174.17C225.836 173.851 231.829 172.787 236.085 168.255C240.158 163.57 240.118 156.017 240.088 150.142C240.086 149.615 240.087 149.088 240.09 148.561C240.114 142.863 240.066 135.049 235.83 130.646C235.618 130.433 235.403 130.223 235.188 130.013C235.085 129.909 234.982 129.805 234.877 129.698C231.197 126.201 225.093 125.417 220.276 125.16C220.155 125.154 220.034 125.147 219.91 125.14C217.231 124.996 214.556 124.977 211.873 124.984C211.184 124.985 210.494 124.985 209.805 124.984C208.476 124.984 207.147 124.986 205.818 124.988C204.276 124.99 202.734 124.99 201.192 124.99C197.134 124.992 193.075 124.996 189.017 125C179.937 125.007 170.858 125.013 161.503 125.02Z" fill="white"/>
<path d="M28.5349 102.061C28.695 102.06 28.8552 102.06 29.0202 102.06C29.5595 102.059 30.0988 102.059 30.6381 102.06C31.0293 102.059 31.4205 102.059 31.8116 102.059C32.6662 102.058 33.5207 102.058 34.3752 102.058C35.6545 102.058 36.9338 102.057 38.2131 102.056C40.3934 102.055 42.5737 102.054 44.7539 102.054C46.964 102.053 49.1741 102.053 51.3842 102.052C51.5237 102.052 51.6632 102.051 51.8069 102.051C52.375 102.051 52.9432 102.051 53.5113 102.051C60.4005 102.047 67.2896 102.046 74.1788 102.044C76.4128 102.044 78.6468 102.043 80.8808 102.043C81.1172 102.042 81.1172 102.042 81.3583 102.042C81.9959 102.042 82.6335 102.042 83.271 102.042C94.1772 102.039 105.083 102.037 115.989 102.036C116.846 102.035 117.703 102.035 118.56 102.035C118.73 102.035 118.899 102.035 119.075 102.035C120.796 102.035 122.518 102.035 124.24 102.035C124.585 102.035 124.93 102.035 125.276 102.035C136.362 102.033 147.449 102.03 158.535 102.025C166.501 102.021 174.466 102.018 182.432 102.017C182.678 102.017 182.678 102.017 182.928 102.017C186.525 102.016 190.122 102.016 193.718 102.016C195.165 102.016 196.613 102.015 198.06 102.015C198.218 102.015 198.376 102.015 198.54 102.015C203.641 102.015 208.742 102.013 213.842 102.01C218.981 102.006 224.119 102.005 229.258 102.007C229.968 102.007 230.679 102.007 231.389 102.007C231.529 102.007 231.668 102.007 231.811 102.007C234.014 102.008 236.217 102.006 238.42 102.004C240.588 102.001 242.756 102.001 244.923 102.003C246.193 102.005 247.463 102.004 248.733 102.001C249.677 101.999 250.621 102 251.566 102.003C251.944 102.003 252.323 102.003 252.701 102.001C257.453 101.981 262.597 102.969 266.256 106.265C266.428 106.437 266.597 106.613 266.762 106.791C267.034 107.074 267.318 107.328 267.615 107.583C268.257 108.139 268.877 108.715 269.494 109.298C270.389 110.141 271.29 110.977 272.199 111.807C272.945 112.489 273.687 113.175 274.429 113.861C274.68 114.092 274.931 114.323 275.181 114.554C276.186 115.479 277.186 116.408 278.183 117.341C278.81 117.926 279.439 118.509 280.07 119.09C281.923 120.797 283.76 122.521 285.597 124.245C285.939 124.565 286.281 124.885 286.623 125.205C287.183 125.73 287.741 126.256 288.298 126.784C288.533 127.005 288.768 127.226 289.003 127.447C292.201 130.525 294.793 135.198 294.993 139.702C294.999 140.072 295 140.441 294.999 140.81C294.999 141.022 294.999 141.022 294.999 141.237C295 141.708 295 142.179 294.999 142.649C294.999 142.988 295 143.326 295 143.664C295.001 144.581 295 145.498 295 146.414C295 147.373 295 148.332 295 149.291C295 150.9 295 152.509 294.999 154.118C294.998 155.981 294.999 157.844 295 159.706C295 161.305 295 162.903 295 164.501C295 165.456 295 166.411 295 167.366C295.001 168.263 295 169.16 294.999 170.057C294.999 170.387 294.999 170.717 295 171.047C295 171.495 295 171.944 294.999 172.393C294.999 172.591 294.999 172.591 295 172.794C294.997 173.689 294.997 173.689 294.823 173.863C294.475 173.879 294.128 173.883 293.78 173.883C293.614 173.883 293.614 173.883 293.446 173.884C293.073 173.884 292.701 173.884 292.328 173.883C292.063 173.884 291.797 173.884 291.531 173.884C290.807 173.885 290.083 173.885 289.359 173.884C288.602 173.884 287.846 173.884 287.09 173.884C285.821 173.885 284.551 173.884 283.281 173.884C281.81 173.883 280.34 173.883 278.87 173.884C277.61 173.885 276.35 173.885 275.09 173.884C274.336 173.884 273.582 173.884 272.829 173.885C272.12 173.885 271.412 173.885 270.704 173.884C270.443 173.884 270.182 173.884 269.922 173.884C269.567 173.884 269.213 173.884 268.858 173.883C268.56 173.883 268.56 173.883 268.256 173.883C267.815 173.863 267.815 173.863 267.659 173.707C267.644 173.448 267.64 173.188 267.64 172.928C267.64 172.758 267.639 172.588 267.639 172.413C267.639 172.224 267.64 172.035 267.64 171.84C267.64 171.641 267.64 171.442 267.64 171.237C267.64 170.682 267.64 170.128 267.641 169.573C267.642 168.976 267.642 168.378 267.641 167.781C267.641 166.745 267.642 165.71 267.643 164.674C267.644 163.177 267.644 161.679 267.645 160.182C267.645 157.752 267.646 155.323 267.647 152.894C267.649 150.534 267.65 148.173 267.651 145.813C267.651 145.667 267.651 145.522 267.651 145.372C267.651 144.643 267.651 143.914 267.651 143.184C267.653 137.129 267.656 131.075 267.659 125.02C260.807 125.02 253.956 125.02 246.896 125.02C246.896 146.597 246.896 168.174 246.896 190.405C262.763 190.405 278.631 190.405 294.979 190.405C294.979 207.896 294.979 207.896 293.29 209.755C291.39 211.535 288.867 211.965 286.353 211.959C286.193 211.959 286.033 211.96 285.868 211.96C285.328 211.961 284.789 211.96 284.25 211.96C283.859 211.96 283.468 211.96 283.077 211.961C282.223 211.961 281.369 211.962 280.514 211.961C279.235 211.961 277.956 211.962 276.678 211.962C274.498 211.964 272.319 211.964 270.139 211.964C267.93 211.964 265.72 211.965 263.511 211.966C263.372 211.966 263.232 211.966 263.088 211.966C262.52 211.966 261.953 211.966 261.385 211.966C254.658 211.969 247.932 211.97 241.205 211.971C237.856 211.971 234.507 211.972 231.158 211.972C220.417 211.974 209.675 211.976 198.934 211.976C198.421 211.976 197.907 211.976 197.394 211.976C196.364 211.976 195.334 211.977 194.305 211.977C193.099 211.977 191.893 211.977 190.688 211.977C190.343 211.977 189.998 211.977 189.653 211.977C178.571 211.977 167.488 211.98 156.406 211.983C148.444 211.986 140.481 211.988 132.519 211.989C132.355 211.989 132.191 211.989 132.023 211.989C128.428 211.989 124.833 211.99 121.239 211.99C119.952 211.99 118.666 211.99 117.38 211.99C117.06 211.99 116.74 211.99 116.42 211.99C111.321 211.99 106.222 211.992 101.122 211.994C95.9863 211.996 90.8502 211.997 85.714 211.996C85.0041 211.995 84.2943 211.995 83.5844 211.995C83.3757 211.995 83.3757 211.995 83.1627 211.995C80.9601 211.995 78.7574 211.996 76.5548 211.998C74.3885 211.999 72.2221 211.999 70.0558 211.998C68.7861 211.997 67.5164 211.997 66.2467 211.999C65.3033 212.001 64.36 212 63.4166 211.998C63.0378 211.998 62.6591 211.998 62.2804 211.999C59.6385 212.008 57.1637 211.855 54.6433 210.984C54.507 210.937 54.3707 210.891 54.2303 210.843C52.2209 210.13 50.3762 209.161 48.7891 207.726C48.6442 207.596 48.4993 207.466 48.35 207.332C47.9507 206.971 47.5556 206.605 47.1616 206.238C46.8303 205.93 46.4975 205.623 46.1646 205.317C45.9093 205.082 45.6542 204.846 45.3991 204.61C44.8901 204.14 44.3808 203.67 43.8715 203.201C43.7024 203.045 43.5333 202.888 43.3642 202.732C43.2386 202.617 43.2386 202.617 43.1105 202.498C42.8568 202.264 42.6031 202.03 42.3494 201.796C42.2657 201.719 42.182 201.642 42.0958 201.562C41.9264 201.406 41.7571 201.25 41.5877 201.093C41.169 200.707 40.7501 200.32 40.3309 199.934C39.3265 199.009 38.3261 198.08 37.3283 197.148C36.7014 196.562 36.0724 195.979 35.4414 195.398C35.1928 195.169 34.9442 194.939 34.6956 194.71C34.5051 194.534 34.3144 194.359 34.1236 194.183C33.8078 193.893 33.4928 193.602 33.1778 193.311C33.0318 193.177 33.0318 193.177 32.883 193.041C32.7439 192.912 32.7439 192.912 32.6021 192.781C32.521 192.706 32.4399 192.631 32.3564 192.554C31.9801 192.17 31.6474 191.755 31.3044 191.341C31.4057 191.34 31.5069 191.34 31.6112 191.339C34.1235 191.326 36.6358 191.312 39.1481 191.296C40.3632 191.288 41.5783 191.281 42.7935 191.275C47.6837 191.25 52.5712 191.211 57.4588 191.042C57.6374 191.036 57.8161 191.03 58.0001 191.024C62.4402 190.872 62.4402 190.872 66.8396 190.287C66.9855 190.261 67.1315 190.234 67.2818 190.207C70.5687 189.583 73.7354 188.677 76.1088 186.191C76.2169 186.084 76.3249 185.978 76.4363 185.868C80.7797 181.342 80.6174 173.772 80.497 167.926C80.3577 162.892 79.5574 158.098 75.76 154.494C69.0063 148.684 56.3102 150.126 48.0097 149.836C47.8212 149.829 47.6327 149.823 47.4385 149.816C45.5219 149.749 43.6052 149.683 41.6884 149.621C37.9808 149.5 34.2744 149.364 30.5699 149.168C30.2133 149.149 29.8566 149.131 29.5 149.113C27.7776 149.026 26.0611 148.912 24.3497 148.695C24.2186 148.68 24.0876 148.665 23.9526 148.65C22.8058 148.489 22.0018 148.023 21.1864 147.208C20.2486 145.842 20.216 144.417 20.3765 142.81C20.5886 141.683 21.0086 140.953 21.8919 140.225C22.9688 139.55 23.9774 139.41 25.2258 139.279C25.3857 139.26 25.5456 139.241 25.7103 139.222C28.8813 138.87 32.0762 138.885 35.2621 138.888C35.6803 138.887 36.0984 138.887 36.5165 138.887C37.3869 138.887 38.2572 138.887 39.1276 138.888C40.1245 138.889 41.1215 138.889 42.1184 138.888C42.9849 138.887 43.8514 138.887 44.718 138.887C45.2309 138.887 45.7438 138.887 46.2567 138.887C48.0992 138.886 49.9398 138.887 51.7805 138.976C51.96 138.985 51.96 138.985 52.1432 138.994C54.1884 139.108 56.7026 139.254 58.1894 140.837C59.0853 142.162 58.9915 143.947 59.0925 145.462C65.4291 145.462 71.7658 145.462 78.2944 145.462C78.2911 136.637 78.2911 136.637 74.1464 129.086C64.4155 120.86 43.5364 123.968 31.9387 124.142C31.7624 124.145 31.5862 124.147 31.4047 124.149C27.6217 124.203 23.8435 124.381 20.0643 124.552C20.0534 122.407 20.0451 120.262 20.0401 118.118C20.0376 117.122 20.0343 116.126 20.029 115.13C20.0239 114.167 20.0211 113.205 20.0199 112.243C20.019 111.877 20.0173 111.511 20.0148 111.145C19.9961 108.342 19.9994 106.16 21.9767 103.992C23.7133 102.348 26.2505 102.056 28.5349 102.061ZM87.6612 125.02C87.6612 146.597 87.6612 168.174 87.6612 190.405C94.2038 190.405 100.747 190.405 107.487 190.405C107.539 182.938 107.591 175.471 107.644 167.777C123.099 167.726 138.554 167.674 154.477 167.621C154.477 162.729 154.477 157.837 154.477 152.797C138.971 152.797 123.464 152.797 107.487 152.797C107.487 148.677 107.487 144.557 107.487 140.313C123.767 140.313 140.046 140.313 156.819 140.313C156.819 135.266 156.819 130.219 156.819 125.02C133.997 125.02 111.175 125.02 87.6612 125.02ZM161.503 125.02C161.503 146.597 161.503 168.174 161.503 190.405C168.045 190.405 174.588 190.405 181.329 190.405C181.38 185.152 181.432 179.899 181.485 174.488C185.134 174.476 185.134 174.476 188.858 174.464C190.41 174.459 191.962 174.453 193.515 174.447C195.972 174.438 198.43 174.429 200.887 174.422C202.678 174.416 204.469 174.41 206.26 174.403C207.205 174.399 208.151 174.395 209.096 174.393C212.56 174.385 216.02 174.371 219.48 174.189C219.659 174.18 219.659 174.18 219.841 174.17C225.836 173.851 231.829 172.787 236.085 168.255C240.158 163.57 240.118 156.017 240.088 150.142C240.086 149.615 240.087 149.088 240.09 148.561C240.114 142.863 240.066 135.049 235.83 130.646C235.618 130.433 235.403 130.223 235.188 130.013C235.085 129.909 234.982 129.805 234.877 129.698C231.197 126.201 225.093 125.417 220.276 125.16C220.155 125.154 220.034 125.147 219.91 125.14C217.231 124.996 214.556 124.977 211.873 124.984C211.184 124.985 210.494 124.985 209.805 124.984C208.476 124.984 207.147 124.986 205.818 124.988C204.276 124.99 202.734 124.99 201.192 124.99C197.134 124.992 193.075 124.996 189.017 125C179.937 125.007 170.858 125.013 161.503 125.02Z" fill="white"/>
<path d="M181.328 141.249C188.363 141.236 188.363 141.236 191.343 141.234C193.389 141.232 195.435 141.23 197.481 141.225C198.972 141.222 200.463 141.22 201.954 141.22C202.741 141.219 203.529 141.218 204.316 141.216C207.252 141.208 210.182 141.212 213.114 141.387C213.271 141.397 213.271 141.397 213.432 141.406C217.41 141.643 217.41 141.643 218.844 143.141C220.761 145.61 220.426 149.851 220.083 152.777C219.941 153.738 219.719 154.589 219.264 155.449C219.211 155.55 219.158 155.65 219.104 155.754C218.439 156.837 217.291 157.406 216.102 157.761C215.223 157.945 214.359 157.998 213.464 158.035C213.237 158.044 213.237 158.044 213.006 158.054C211.485 158.115 209.966 158.123 208.444 158.12C208.145 158.12 207.846 158.12 207.547 158.12C206.748 158.12 205.949 158.119 205.15 158.118C204.311 158.117 203.471 158.117 202.631 158.117C201.047 158.116 199.462 158.115 197.878 158.114C195.733 158.111 193.588 158.111 191.443 158.11C188.071 158.108 184.7 158.105 181.328 158.102C181.328 152.541 181.328 146.979 181.328 141.249Z" fill="white"/>
<path d="M20.0639 164.188C22.8601 164.141 25.6483 164.278 28.4406 164.404C29.1263 164.434 29.8121 164.464 30.4978 164.494C32.093 164.564 33.6881 164.634 35.2832 164.705C37.3024 164.795 39.3216 164.884 41.3408 164.972C42.0178 165.002 42.6948 165.031 43.3717 165.062C44.1328 165.096 44.8939 165.13 45.655 165.163C45.7773 165.168 45.8997 165.173 46.0257 165.179C47.4384 165.24 48.8507 165.289 50.2645 165.32C50.4001 165.323 50.5358 165.326 50.6756 165.329C51.3228 165.344 51.97 165.357 52.6172 165.367C53.8296 165.389 55.0283 165.45 56.2341 165.581C56.3478 165.594 56.4616 165.606 56.5788 165.619C58.1855 165.809 59.7602 166.139 60.8094 167.465C61.7566 169.153 61.5756 171.429 61.1216 173.239C60.7721 174.281 60.3064 174.988 59.3507 175.552C57.6508 176.306 55.7088 176.377 53.8758 176.41C53.7175 176.413 53.5592 176.416 53.3962 176.419C52.8686 176.43 52.341 176.439 51.8134 176.448C51.6285 176.451 51.4436 176.454 51.2531 176.458C44.445 176.575 37.634 176.564 30.826 176.448C30.6413 176.445 30.4567 176.442 30.2665 176.439C23.0083 176.314 23.0083 176.314 21.3628 174.884C20.1719 173.622 19.9718 172.169 20.003 170.497C20.0038 170.316 20.0047 170.135 20.0056 169.948C20.0091 169.374 20.0169 168.8 20.0249 168.226C20.028 167.835 20.0309 167.443 20.0334 167.052C20.0403 166.097 20.0507 165.143 20.0639 164.188Z" fill="white"/>
</svg>
