<svg width="2195" height="1449" viewBox="0 0 2195 1449" fill="none" xmlns="http://www.w3.org/2000/svg">
<g filter="url(#filter0_d_49_936)">
<rect x="6" width="1650" height="1179" rx="10" fill="#D9D9D9"/>
<rect x="6.5" y="0.5" width="1649" height="1178" rx="9.5" stroke="black"/>
</g>
<g filter="url(#filter1_d_49_936)">
<rect x="4" width="1652" height="1072" rx="10" fill="white"/>
<rect x="4.5" y="0.5" width="1651" height="1071" rx="9.5" stroke="black"/>
</g>
<mask id="path-5-inside-1_49_936" fill="white">
<path d="M4 719H1656V929H4V719Z"/>
</mask>
<path d="M4 719H1656V929H4V719Z" fill="url(#paint0_linear_49_936)"/>
<path d="M1656 719H1655V929H1656H1657V719H1656ZM4 929H5V719H4H3V929H4Z" fill="black" mask="url(#path-5-inside-1_49_936)"/>
<path d="M107.01 95.0854C107.235 95.085 107.461 95.0846 107.693 95.0842C108.452 95.0831 109.211 95.0836 109.97 95.0842C110.52 95.0837 111.071 95.0832 111.621 95.0826C112.824 95.0815 114.026 95.081 115.229 95.0812C117.029 95.0815 118.83 95.0805 120.63 95.0792C123.698 95.0771 126.766 95.0761 129.835 95.0756C132.945 95.0752 136.055 95.0742 139.165 95.0727C139.362 95.0726 139.558 95.0725 139.76 95.0724C140.56 95.072 141.359 95.0716 142.159 95.0713C151.854 95.0665 161.549 95.0641 171.243 95.0621C174.387 95.0615 177.531 95.0608 180.675 95.0599C181.008 95.0599 181.008 95.0599 181.347 95.0598C182.244 95.0595 183.142 95.0593 184.039 95.0591C199.387 95.0551 214.735 95.0517 230.082 95.0501C231.288 95.05 232.494 95.0499 233.699 95.0497C233.939 95.0497 234.178 95.0497 234.424 95.0496C236.847 95.0494 239.27 95.0491 241.693 95.0489C242.179 95.0488 242.665 95.0487 243.151 95.0487C258.752 95.047 274.354 95.0421 289.956 95.0349C301.166 95.0298 312.375 95.025 323.585 95.0235C323.931 95.0234 323.931 95.0234 324.284 95.0234C329.345 95.0227 334.407 95.0222 339.468 95.022C341.505 95.0219 343.541 95.0218 345.578 95.0217C345.801 95.0216 346.024 95.0216 346.253 95.0216C353.432 95.0212 360.61 95.018 367.788 95.0135C375.02 95.009 382.251 95.0073 389.482 95.0094C390.482 95.0097 391.482 95.0099 392.482 95.0102C392.677 95.0102 392.873 95.0103 393.075 95.0103C396.176 95.011 399.276 95.0087 402.376 95.0052C405.427 95.0018 408.477 95.0016 411.527 95.0047C413.314 95.0064 415.101 95.0057 416.888 95.0015C418.217 94.9986 419.546 95.0003 420.875 95.0038C421.408 95.0045 421.941 95.0037 422.473 95.0012C429.161 94.9725 436.399 96.3659 441.549 101.009C441.79 101.253 442.028 101.5 442.26 101.751C442.643 102.149 443.042 102.508 443.461 102.867C444.364 103.651 445.236 104.462 446.105 105.283C447.365 106.471 448.633 107.65 449.911 108.819C450.961 109.78 452.006 110.747 453.051 111.714C453.403 112.039 453.756 112.365 454.109 112.69C455.522 113.993 456.93 115.303 458.333 116.616C459.216 117.441 460.101 118.263 460.989 119.081C463.597 121.487 466.182 123.916 468.767 126.345C469.248 126.797 469.729 127.247 470.21 127.698C470.998 128.437 471.784 129.179 472.568 129.922C472.898 130.235 473.228 130.546 473.559 130.857C478.06 135.195 481.708 141.779 481.99 148.126C481.998 148.646 481.999 149.166 481.997 149.687C481.998 149.985 481.998 149.985 481.998 150.289C481.999 150.952 481.999 151.616 481.998 152.279C481.998 152.755 481.999 153.232 481.999 153.708C482 155 482 156.292 481.999 157.584C481.998 158.935 481.999 160.286 481.999 161.637C482 163.904 481.999 166.172 481.998 168.439C481.997 171.064 481.997 173.689 481.999 176.314C482 178.566 482 180.817 481.999 183.069C481.999 184.415 481.999 185.761 481.999 187.107C482 188.371 482 189.634 481.998 190.898C481.998 191.363 481.998 191.828 481.999 192.293C481.999 192.925 481.998 193.557 481.997 194.189C481.998 194.469 481.998 194.469 481.999 194.755C481.995 196.017 481.995 196.017 481.75 196.262C481.261 196.284 480.771 196.29 480.282 196.29C480.049 196.29 480.049 196.29 479.812 196.291C479.287 196.292 478.763 196.291 478.239 196.29C477.865 196.291 477.491 196.291 477.117 196.292C476.098 196.293 475.079 196.292 474.06 196.291C472.996 196.291 471.932 196.291 470.868 196.292C469.081 196.292 467.294 196.292 465.507 196.291C463.438 196.289 461.369 196.29 459.299 196.291C457.526 196.292 455.753 196.292 453.98 196.292C452.919 196.291 451.859 196.291 450.798 196.292C449.801 196.293 448.805 196.292 447.808 196.291C447.441 196.291 447.074 196.291 446.707 196.291C446.208 196.292 445.709 196.291 445.211 196.29C444.791 196.29 444.791 196.29 444.363 196.29C443.743 196.262 443.743 196.262 443.523 196.042C443.502 195.676 443.496 195.31 443.496 194.944C443.496 194.704 443.495 194.465 443.495 194.218C443.495 193.952 443.496 193.685 443.497 193.411C443.497 193.131 443.496 192.85 443.496 192.562C443.496 191.78 443.497 190.998 443.498 190.216C443.499 189.375 443.498 188.533 443.498 187.692C443.498 186.232 443.499 184.773 443.5 183.313C443.502 181.203 443.502 179.093 443.503 176.983C443.503 173.56 443.505 170.137 443.507 166.714C443.509 163.388 443.51 160.062 443.511 156.736C443.511 156.531 443.511 156.327 443.511 156.115C443.512 155.088 443.512 154.06 443.512 153.032C443.514 144.501 443.518 135.969 443.523 127.437C433.881 127.437 424.238 127.437 414.304 127.437C414.304 157.841 414.304 188.245 414.304 219.57C436.634 219.57 458.963 219.57 481.969 219.57C481.969 244.217 481.97 244.217 479.593 246.836C476.919 249.345 473.369 249.951 469.83 249.943C469.605 249.943 469.379 249.943 469.147 249.944C468.389 249.945 467.63 249.944 466.871 249.943C466.321 249.944 465.771 249.944 465.22 249.945C464.018 249.946 462.816 249.946 461.614 249.946C459.814 249.945 458.014 249.946 456.215 249.947C453.147 249.949 450.08 249.949 447.013 249.95C443.904 249.95 440.795 249.95 437.686 249.951C437.489 249.952 437.293 249.952 437.091 249.952C436.292 249.952 435.492 249.952 434.693 249.953C425.227 249.956 415.761 249.958 406.295 249.959C401.582 249.959 396.869 249.96 392.156 249.961C377.04 249.964 361.924 249.966 346.808 249.967C346.086 249.967 345.363 249.967 344.641 249.967C343.192 249.967 341.742 249.967 340.293 249.967C338.597 249.967 336.9 249.967 335.204 249.967C334.718 249.967 334.232 249.967 333.747 249.967C318.151 249.968 302.556 249.971 286.96 249.977C275.755 249.98 264.549 249.984 253.344 249.985C253.113 249.985 252.883 249.985 252.645 249.985C247.587 249.985 242.528 249.985 237.47 249.985C235.66 249.986 233.849 249.986 232.039 249.986C231.589 249.986 231.139 249.986 230.688 249.986C223.513 249.986 216.337 249.988 209.161 249.991C201.933 249.994 194.705 249.996 187.477 249.994C186.478 249.994 185.479 249.993 184.48 249.993C184.186 249.993 184.186 249.993 183.886 249.993C180.787 249.992 177.687 249.994 174.587 249.997C171.539 249.999 168.49 249.999 165.441 249.997C163.654 249.995 161.868 249.996 160.081 249.999C158.753 250.001 157.426 250 156.098 249.997C155.565 249.997 155.032 249.997 154.499 249.999C150.781 250.011 147.299 249.795 143.752 248.568C143.56 248.502 143.368 248.437 143.17 248.369C140.343 247.365 137.747 246 135.513 243.978C135.309 243.794 135.105 243.611 134.895 243.423C134.333 242.914 133.777 242.398 133.223 241.881C132.757 241.447 132.288 241.015 131.82 240.583C131.461 240.251 131.102 239.919 130.743 239.588C130.026 238.925 129.31 238.263 128.593 237.601C128.355 237.381 128.117 237.161 127.879 236.941C127.702 236.778 127.702 236.778 127.522 236.611C127.165 236.281 126.808 235.952 126.451 235.622C126.333 235.513 126.215 235.404 126.094 235.292C125.856 235.072 125.617 234.852 125.379 234.631C124.79 234.087 124.2 233.542 123.61 232.999C122.197 231.695 120.789 230.385 119.385 229.072C118.503 228.247 117.617 227.425 116.729 226.606C116.38 226.283 116.03 225.96 115.68 225.636C115.412 225.389 115.143 225.142 114.875 224.895C114.431 224.486 113.987 224.076 113.544 223.665C113.338 223.477 113.338 223.477 113.129 223.285C112.933 223.103 112.933 223.103 112.734 222.918C112.62 222.813 112.506 222.708 112.388 222.599C111.858 222.058 111.39 221.473 110.908 220.889C111.05 220.889 111.192 220.888 111.339 220.887C114.875 220.869 118.41 220.849 121.946 220.826C123.656 220.815 125.366 220.805 127.076 220.797C133.958 220.762 140.836 220.707 147.714 220.468C147.965 220.46 148.217 220.452 148.476 220.443C154.724 220.229 154.724 220.229 160.915 219.405C161.121 219.368 161.326 219.33 161.538 219.292C166.163 218.412 170.62 217.135 173.96 213.633C174.112 213.483 174.264 213.332 174.42 213.177C180.533 206.8 180.304 196.133 180.135 187.896C179.939 180.803 178.813 174.047 173.469 168.969C163.964 160.781 146.098 162.814 134.416 162.405C134.151 162.396 133.886 162.387 133.613 162.377C130.915 162.283 128.218 162.19 125.521 162.102C120.303 161.932 115.087 161.741 109.874 161.464C109.372 161.438 108.87 161.412 108.368 161.386C105.944 161.263 103.529 161.104 101.12 160.797C100.936 160.776 100.751 160.756 100.562 160.734C98.9477 160.507 97.8162 159.851 96.6687 158.702C95.349 156.778 95.3032 154.769 95.529 152.504C95.8275 150.917 96.4185 149.889 97.6616 148.862C99.1771 147.912 100.596 147.714 102.353 147.529C102.578 147.503 102.803 147.476 103.035 147.449C107.498 146.954 111.994 146.974 116.477 146.978C117.066 146.978 117.654 146.978 118.242 146.977C119.467 146.977 120.692 146.977 121.917 146.978C123.32 146.98 124.723 146.979 126.126 146.978C127.345 146.977 128.565 146.977 129.784 146.977C130.506 146.978 131.228 146.978 131.95 146.977C134.542 146.975 137.133 146.976 139.723 147.103C139.976 147.115 139.976 147.115 140.233 147.127C143.112 147.289 146.65 147.494 148.742 149.725C150.003 151.591 149.871 154.107 150.013 156.242C158.93 156.242 167.848 156.242 177.035 156.242C177.031 143.806 177.031 143.806 171.198 133.166C157.504 121.575 128.121 125.954 111.8 126.2C111.552 126.204 111.304 126.207 111.049 126.21C105.725 126.286 100.408 126.538 95.0897 126.777C95.0743 123.755 95.0627 120.733 95.0555 117.711C95.0521 116.308 95.0474 114.904 95.0399 113.501C95.0327 112.145 95.0288 110.789 95.0271 109.433C95.0259 108.917 95.0235 108.402 95.02 107.886C94.9937 103.936 94.9982 100.862 97.7809 97.8073C100.225 95.49 103.795 95.0784 107.01 95.0854ZM190.217 127.437C190.217 157.841 190.217 188.245 190.217 219.57C199.424 219.57 208.632 219.57 218.118 219.57C218.19 209.048 218.263 198.527 218.338 187.686C240.087 187.614 261.837 187.541 284.246 187.466C284.246 180.573 284.246 173.679 284.246 166.577C262.423 166.577 240.601 166.577 218.118 166.577C218.118 160.772 218.118 154.967 218.118 148.986C241.028 148.986 263.937 148.986 287.541 148.986C287.541 141.875 287.541 134.764 287.541 127.437C255.424 127.437 223.307 127.437 190.217 127.437ZM294.132 127.437C294.132 157.841 294.132 188.245 294.132 219.57C303.339 219.57 312.546 219.57 322.033 219.57C322.105 212.169 322.178 204.767 322.253 197.141C327.388 197.125 327.388 197.125 332.628 197.109C334.812 197.101 336.997 197.093 339.182 197.085C342.64 197.072 346.099 197.059 349.557 197.049C352.077 197.041 354.597 197.033 357.118 197.022C358.448 197.017 359.779 197.012 361.109 197.009C365.984 196.997 370.853 196.978 375.722 196.721C375.973 196.708 375.973 196.708 376.229 196.695C384.667 196.244 393.1 194.745 399.09 188.36C404.821 181.758 404.766 171.115 404.723 162.836C404.72 162.094 404.722 161.351 404.726 160.609C404.76 152.58 404.692 141.569 398.73 135.365C398.432 135.065 398.13 134.769 397.827 134.474C397.683 134.327 397.538 134.18 397.389 134.029C392.211 129.102 383.62 127.997 376.843 127.635C376.672 127.626 376.502 127.617 376.327 127.607C372.556 127.404 368.792 127.376 365.017 127.386C364.047 127.388 363.076 127.387 362.106 127.387C360.236 127.387 358.366 127.389 356.496 127.392C354.326 127.395 352.155 127.395 349.985 127.396C344.274 127.398 338.564 127.404 332.853 127.41C320.075 127.419 307.297 127.428 294.132 127.437Z" fill="#8E8E8E"/>
<path d="M107.01 95.0854C107.235 95.085 107.461 95.0846 107.693 95.0842C108.452 95.0831 109.211 95.0836 109.97 95.0842C110.52 95.0837 111.071 95.0832 111.621 95.0826C112.824 95.0815 114.026 95.081 115.229 95.0812C117.029 95.0815 118.83 95.0805 120.63 95.0792C123.698 95.0771 126.766 95.0761 129.835 95.0756C132.945 95.0752 136.055 95.0742 139.165 95.0727C139.362 95.0726 139.558 95.0725 139.76 95.0724C140.56 95.072 141.359 95.0716 142.159 95.0713C151.854 95.0665 161.549 95.0641 171.243 95.0621C174.387 95.0615 177.531 95.0608 180.675 95.0599C181.008 95.0599 181.008 95.0599 181.347 95.0598C182.244 95.0595 183.142 95.0593 184.039 95.0591C199.387 95.0551 214.735 95.0517 230.082 95.0501C231.288 95.05 232.494 95.0499 233.699 95.0497C233.939 95.0497 234.178 95.0497 234.424 95.0496C236.847 95.0494 239.27 95.0491 241.693 95.0489C242.179 95.0488 242.665 95.0487 243.151 95.0487C258.752 95.047 274.354 95.0421 289.956 95.0349C301.166 95.0298 312.375 95.025 323.585 95.0235C323.931 95.0234 323.931 95.0234 324.284 95.0234C329.345 95.0227 334.407 95.0222 339.468 95.022C341.505 95.0219 343.541 95.0218 345.578 95.0217C345.801 95.0216 346.024 95.0216 346.253 95.0216C353.432 95.0212 360.61 95.018 367.788 95.0135C375.02 95.009 382.251 95.0073 389.482 95.0094C390.482 95.0097 391.482 95.0099 392.482 95.0102C392.677 95.0102 392.873 95.0103 393.075 95.0103C396.176 95.011 399.276 95.0087 402.376 95.0052C405.427 95.0018 408.477 95.0016 411.527 95.0047C413.314 95.0064 415.101 95.0057 416.888 95.0015C418.217 94.9986 419.546 95.0003 420.875 95.0038C421.408 95.0045 421.941 95.0037 422.473 95.0012C429.161 94.9725 436.399 96.3659 441.549 101.009C441.79 101.253 442.028 101.5 442.26 101.751C442.643 102.149 443.042 102.508 443.461 102.867C444.364 103.651 445.236 104.462 446.105 105.283C447.365 106.471 448.633 107.65 449.911 108.819C450.961 109.78 452.006 110.747 453.051 111.714C453.403 112.039 453.756 112.365 454.109 112.69C455.522 113.993 456.93 115.303 458.333 116.616C459.216 117.441 460.101 118.263 460.989 119.081C463.597 121.487 466.182 123.916 468.767 126.345C469.248 126.797 469.729 127.247 470.21 127.698C470.998 128.437 471.784 129.179 472.568 129.922C472.898 130.235 473.228 130.546 473.559 130.857C478.06 135.195 481.708 141.779 481.99 148.126C481.998 148.646 481.999 149.166 481.997 149.687C481.998 149.985 481.998 149.985 481.998 150.289C481.999 150.952 481.999 151.616 481.998 152.279C481.998 152.755 481.999 153.232 481.999 153.708C482 155 482 156.292 481.999 157.584C481.998 158.935 481.999 160.286 481.999 161.637C482 163.904 481.999 166.172 481.998 168.439C481.997 171.064 481.997 173.689 481.999 176.314C482 178.566 482 180.817 481.999 183.069C481.999 184.415 481.999 185.761 481.999 187.107C482 188.371 482 189.634 481.998 190.898C481.998 191.363 481.998 191.828 481.999 192.293C481.999 192.925 481.998 193.557 481.997 194.189C481.998 194.469 481.998 194.469 481.999 194.755C481.995 196.017 481.995 196.017 481.75 196.262C481.261 196.284 480.771 196.29 480.282 196.29C480.049 196.29 480.049 196.29 479.812 196.291C479.287 196.292 478.763 196.291 478.239 196.29C477.865 196.291 477.491 196.291 477.117 196.292C476.098 196.293 475.079 196.292 474.06 196.291C472.996 196.291 471.932 196.291 470.868 196.292C469.081 196.292 467.294 196.292 465.507 196.291C463.438 196.289 461.369 196.29 459.299 196.291C457.526 196.292 455.753 196.292 453.98 196.292C452.919 196.291 451.859 196.291 450.798 196.292C449.801 196.293 448.805 196.292 447.808 196.291C447.441 196.291 447.074 196.291 446.707 196.291C446.208 196.292 445.709 196.291 445.211 196.29C444.791 196.29 444.791 196.29 444.363 196.29C443.743 196.262 443.743 196.262 443.523 196.042C443.502 195.676 443.496 195.31 443.496 194.944C443.496 194.704 443.495 194.465 443.495 194.218C443.495 193.952 443.496 193.685 443.497 193.411C443.497 193.131 443.496 192.85 443.496 192.562C443.496 191.78 443.497 190.998 443.498 190.216C443.499 189.375 443.498 188.533 443.498 187.692C443.498 186.232 443.499 184.773 443.5 183.313C443.502 181.203 443.502 179.093 443.503 176.983C443.503 173.56 443.505 170.137 443.507 166.714C443.509 163.388 443.51 160.062 443.511 156.736C443.511 156.531 443.511 156.327 443.511 156.115C443.512 155.088 443.512 154.06 443.512 153.032C443.514 144.501 443.518 135.969 443.523 127.437C433.881 127.437 424.238 127.437 414.304 127.437C414.304 157.841 414.304 188.245 414.304 219.57C436.634 219.57 458.963 219.57 481.969 219.57C481.969 244.217 481.97 244.217 479.593 246.836C476.919 249.345 473.369 249.951 469.83 249.943C469.605 249.943 469.379 249.943 469.147 249.944C468.389 249.945 467.63 249.944 466.871 249.943C466.321 249.944 465.771 249.944 465.22 249.945C464.018 249.946 462.816 249.946 461.614 249.946C459.814 249.945 458.014 249.946 456.215 249.947C453.147 249.949 450.08 249.949 447.013 249.95C443.904 249.95 440.795 249.95 437.686 249.951C437.489 249.952 437.293 249.952 437.091 249.952C436.292 249.952 435.492 249.952 434.693 249.953C425.227 249.956 415.761 249.958 406.295 249.959C401.582 249.959 396.869 249.96 392.156 249.961C377.04 249.964 361.924 249.966 346.808 249.967C346.086 249.967 345.363 249.967 344.641 249.967C343.192 249.967 341.742 249.967 340.293 249.967C338.597 249.967 336.9 249.967 335.204 249.967C334.718 249.967 334.232 249.967 333.747 249.967C318.151 249.968 302.556 249.971 286.96 249.977C275.755 249.98 264.549 249.984 253.344 249.985C253.113 249.985 252.883 249.985 252.645 249.985C247.587 249.985 242.528 249.985 237.47 249.985C235.66 249.986 233.849 249.986 232.039 249.986C231.589 249.986 231.139 249.986 230.688 249.986C223.513 249.986 216.337 249.988 209.161 249.991C201.933 249.994 194.705 249.996 187.477 249.994C186.478 249.994 185.479 249.993 184.48 249.993C184.186 249.993 184.186 249.993 183.886 249.993C180.787 249.992 177.687 249.994 174.587 249.997C171.539 249.999 168.49 249.999 165.441 249.997C163.654 249.995 161.868 249.996 160.081 249.999C158.753 250.001 157.426 250 156.098 249.997C155.565 249.997 155.032 249.997 154.499 249.999C150.781 250.011 147.299 249.795 143.752 248.568C143.56 248.502 143.368 248.437 143.17 248.369C140.343 247.365 137.747 246 135.513 243.978C135.309 243.794 135.105 243.611 134.895 243.423C134.333 242.914 133.777 242.398 133.223 241.881C132.757 241.447 132.288 241.015 131.82 240.583C131.461 240.251 131.102 239.919 130.743 239.588C130.026 238.925 129.31 238.263 128.593 237.601C128.355 237.381 128.117 237.161 127.879 236.941C127.702 236.778 127.702 236.778 127.522 236.611C127.165 236.281 126.808 235.952 126.451 235.622C126.333 235.513 126.215 235.404 126.094 235.292C125.856 235.072 125.617 234.852 125.379 234.631C124.79 234.087 124.2 233.542 123.61 232.999C122.197 231.695 120.789 230.385 119.385 229.072C118.503 228.247 117.617 227.425 116.729 226.606C116.38 226.283 116.03 225.96 115.68 225.636C115.412 225.389 115.143 225.142 114.875 224.895C114.431 224.486 113.987 224.076 113.544 223.665C113.338 223.477 113.338 223.477 113.129 223.285C112.933 223.103 112.933 223.103 112.734 222.918C112.62 222.813 112.506 222.708 112.388 222.599C111.858 222.058 111.39 221.473 110.908 220.889C111.05 220.889 111.192 220.888 111.339 220.887C114.875 220.869 118.41 220.849 121.946 220.826C123.656 220.815 125.366 220.805 127.076 220.797C133.958 220.762 140.836 220.707 147.714 220.468C147.965 220.46 148.217 220.452 148.476 220.443C154.724 220.229 154.724 220.229 160.915 219.405C161.121 219.368 161.326 219.33 161.538 219.292C166.163 218.412 170.62 217.135 173.96 213.633C174.112 213.483 174.264 213.332 174.42 213.177C180.533 206.8 180.304 196.133 180.135 187.896C179.939 180.803 178.813 174.047 173.469 168.969C163.964 160.781 146.098 162.814 134.416 162.405C134.151 162.396 133.886 162.387 133.613 162.377C130.915 162.283 128.218 162.19 125.521 162.102C120.303 161.932 115.087 161.741 109.874 161.464C109.372 161.438 108.87 161.412 108.368 161.386C105.944 161.263 103.529 161.104 101.12 160.797C100.936 160.776 100.751 160.756 100.562 160.734C98.9477 160.507 97.8162 159.851 96.6687 158.702C95.349 156.778 95.3032 154.769 95.529 152.504C95.8275 150.917 96.4185 149.889 97.6616 148.862C99.1771 147.912 100.596 147.714 102.353 147.529C102.578 147.503 102.803 147.476 103.035 147.449C107.498 146.954 111.994 146.974 116.477 146.978C117.066 146.978 117.654 146.978 118.242 146.977C119.467 146.977 120.692 146.977 121.917 146.978C123.32 146.98 124.723 146.979 126.126 146.978C127.345 146.977 128.565 146.977 129.784 146.977C130.506 146.978 131.228 146.978 131.95 146.977C134.542 146.975 137.133 146.976 139.723 147.103C139.976 147.115 139.976 147.115 140.233 147.127C143.112 147.289 146.65 147.494 148.742 149.725C150.003 151.591 149.871 154.107 150.013 156.242C158.93 156.242 167.848 156.242 177.035 156.242C177.031 143.806 177.031 143.806 171.198 133.166C157.504 121.575 128.121 125.954 111.8 126.2C111.552 126.204 111.304 126.207 111.049 126.21C105.725 126.286 100.408 126.538 95.0897 126.777C95.0743 123.755 95.0627 120.733 95.0555 117.711C95.0521 116.308 95.0474 114.904 95.0399 113.501C95.0327 112.145 95.0288 110.789 95.0271 109.433C95.0259 108.917 95.0235 108.402 95.02 107.886C94.9937 103.936 94.9982 100.862 97.7809 97.8073C100.225 95.49 103.795 95.0784 107.01 95.0854ZM190.217 127.437C190.217 157.841 190.217 188.245 190.217 219.57C199.424 219.57 208.632 219.57 218.118 219.57C218.19 209.048 218.263 198.527 218.338 187.686C240.087 187.614 261.837 187.541 284.246 187.466C284.246 180.573 284.246 173.679 284.246 166.577C262.423 166.577 240.601 166.577 218.118 166.577C218.118 160.772 218.118 154.967 218.118 148.986C241.028 148.986 263.937 148.986 287.541 148.986C287.541 141.875 287.541 134.764 287.541 127.437C255.424 127.437 223.307 127.437 190.217 127.437ZM294.132 127.437C294.132 157.841 294.132 188.245 294.132 219.57C303.339 219.57 312.546 219.57 322.033 219.57C322.105 212.169 322.178 204.767 322.253 197.141C327.388 197.125 327.388 197.125 332.628 197.109C334.812 197.101 336.997 197.093 339.182 197.085C342.64 197.072 346.099 197.059 349.557 197.049C352.077 197.041 354.597 197.033 357.118 197.022C358.448 197.017 359.779 197.012 361.109 197.009C365.984 196.997 370.853 196.978 375.722 196.721C375.973 196.708 375.973 196.708 376.229 196.695C384.667 196.244 393.1 194.745 399.09 188.36C404.821 181.758 404.766 171.115 404.723 162.836C404.72 162.094 404.722 161.351 404.726 160.609C404.76 152.58 404.692 141.569 398.73 135.365C398.432 135.065 398.13 134.769 397.827 134.474C397.683 134.327 397.538 134.18 397.389 134.029C392.211 129.102 383.62 127.997 376.843 127.635C376.672 127.626 376.502 127.617 376.327 127.607C372.556 127.404 368.792 127.376 365.017 127.386C364.047 127.388 363.076 127.387 362.106 127.387C360.236 127.387 358.366 127.389 356.496 127.392C354.326 127.395 352.155 127.395 349.985 127.396C344.274 127.398 338.564 127.404 332.853 127.41C320.075 127.419 307.297 127.428 294.132 127.437Z" fill="#8E8E8E"/>
<path d="M107.01 95.0854C107.235 95.085 107.461 95.0846 107.693 95.0842C108.452 95.0831 109.211 95.0836 109.97 95.0842C110.52 95.0837 111.071 95.0832 111.621 95.0826C112.824 95.0815 114.026 95.081 115.229 95.0812C117.029 95.0815 118.83 95.0805 120.63 95.0792C123.698 95.0771 126.766 95.0761 129.835 95.0756C132.945 95.0752 136.055 95.0742 139.165 95.0727C139.362 95.0726 139.558 95.0725 139.76 95.0724C140.56 95.072 141.359 95.0716 142.159 95.0713C151.854 95.0665 161.549 95.0641 171.243 95.0621C174.387 95.0615 177.531 95.0608 180.675 95.0599C181.008 95.0599 181.008 95.0599 181.347 95.0598C182.244 95.0595 183.142 95.0593 184.039 95.0591C199.387 95.0551 214.735 95.0517 230.082 95.0501C231.288 95.05 232.494 95.0499 233.699 95.0497C233.939 95.0497 234.178 95.0497 234.424 95.0496C236.847 95.0494 239.27 95.0491 241.693 95.0489C242.179 95.0488 242.665 95.0487 243.151 95.0487C258.752 95.047 274.354 95.0421 289.956 95.0349C301.166 95.0298 312.375 95.025 323.585 95.0235C323.931 95.0234 323.931 95.0234 324.284 95.0234C329.345 95.0227 334.407 95.0222 339.468 95.022C341.505 95.0219 343.541 95.0218 345.578 95.0217C345.801 95.0216 346.024 95.0216 346.253 95.0216C353.432 95.0212 360.61 95.018 367.788 95.0135C375.02 95.009 382.251 95.0073 389.482 95.0094C390.482 95.0097 391.482 95.0099 392.482 95.0102C392.677 95.0102 392.873 95.0103 393.075 95.0103C396.176 95.011 399.276 95.0087 402.376 95.0052C405.427 95.0018 408.477 95.0016 411.527 95.0047C413.314 95.0064 415.101 95.0057 416.888 95.0015C418.217 94.9986 419.546 95.0003 420.875 95.0038C421.408 95.0045 421.941 95.0037 422.473 95.0012C429.161 94.9725 436.399 96.3659 441.549 101.009C441.79 101.253 442.028 101.5 442.26 101.751C442.643 102.149 443.042 102.508 443.461 102.867C444.364 103.651 445.236 104.462 446.105 105.283C447.365 106.471 448.633 107.65 449.911 108.819C450.961 109.78 452.006 110.747 453.051 111.714C453.403 112.039 453.756 112.365 454.109 112.69C455.522 113.993 456.93 115.303 458.333 116.616C459.216 117.441 460.101 118.263 460.989 119.081C463.597 121.487 466.182 123.916 468.767 126.345C469.248 126.797 469.729 127.247 470.21 127.698C470.998 128.437 471.784 129.179 472.568 129.922C472.898 130.235 473.228 130.546 473.559 130.857C478.06 135.195 481.708 141.779 481.99 148.126C481.998 148.646 481.999 149.166 481.997 149.687C481.998 149.985 481.998 149.985 481.998 150.289C481.999 150.952 481.999 151.616 481.998 152.279C481.998 152.755 481.999 153.232 481.999 153.708C482 155 482 156.292 481.999 157.584C481.998 158.935 481.999 160.286 481.999 161.637C482 163.904 481.999 166.172 481.998 168.439C481.997 171.064 481.997 173.689 481.999 176.314C482 178.566 482 180.817 481.999 183.069C481.999 184.415 481.999 185.761 481.999 187.107C482 188.371 482 189.634 481.998 190.898C481.998 191.363 481.998 191.828 481.999 192.293C481.999 192.925 481.998 193.557 481.997 194.189C481.998 194.469 481.998 194.469 481.999 194.755C481.995 196.017 481.995 196.017 481.75 196.262C481.261 196.284 480.771 196.29 480.282 196.29C480.049 196.29 480.049 196.29 479.812 196.291C479.287 196.292 478.763 196.291 478.239 196.29C477.865 196.291 477.491 196.291 477.117 196.292C476.098 196.293 475.079 196.292 474.06 196.291C472.996 196.291 471.932 196.291 470.868 196.292C469.081 196.292 467.294 196.292 465.507 196.291C463.438 196.289 461.369 196.29 459.299 196.291C457.526 196.292 455.753 196.292 453.98 196.292C452.919 196.291 451.859 196.291 450.798 196.292C449.801 196.293 448.805 196.292 447.808 196.291C447.441 196.291 447.074 196.291 446.707 196.291C446.208 196.292 445.709 196.291 445.211 196.29C444.791 196.29 444.791 196.29 444.363 196.29C443.743 196.262 443.743 196.262 443.523 196.042C443.502 195.676 443.496 195.31 443.496 194.944C443.496 194.704 443.495 194.465 443.495 194.218C443.495 193.952 443.496 193.685 443.497 193.411C443.497 193.131 443.496 192.85 443.496 192.562C443.496 191.78 443.497 190.998 443.498 190.216C443.499 189.375 443.498 188.533 443.498 187.692C443.498 186.232 443.499 184.773 443.5 183.313C443.502 181.203 443.502 179.093 443.503 176.983C443.503 173.56 443.505 170.137 443.507 166.714C443.509 163.388 443.51 160.062 443.511 156.736C443.511 156.531 443.511 156.327 443.511 156.115C443.512 155.088 443.512 154.06 443.512 153.032C443.514 144.501 443.518 135.969 443.523 127.437C433.881 127.437 424.238 127.437 414.304 127.437C414.304 157.841 414.304 188.245 414.304 219.57C436.634 219.57 458.963 219.57 481.969 219.57C481.969 244.217 481.97 244.217 479.593 246.836C476.919 249.345 473.369 249.951 469.83 249.943C469.605 249.943 469.379 249.943 469.147 249.944C468.389 249.945 467.63 249.944 466.871 249.943C466.321 249.944 465.771 249.944 465.22 249.945C464.018 249.946 462.816 249.946 461.614 249.946C459.814 249.945 458.014 249.946 456.215 249.947C453.147 249.949 450.08 249.949 447.013 249.95C443.904 249.95 440.795 249.95 437.686 249.951C437.489 249.952 437.293 249.952 437.091 249.952C436.292 249.952 435.492 249.952 434.693 249.953C425.227 249.956 415.761 249.958 406.295 249.959C401.582 249.959 396.869 249.96 392.156 249.961C377.04 249.964 361.924 249.966 346.808 249.967C346.086 249.967 345.363 249.967 344.641 249.967C343.192 249.967 341.742 249.967 340.293 249.967C338.597 249.967 336.9 249.967 335.204 249.967C334.718 249.967 334.232 249.967 333.747 249.967C318.151 249.968 302.556 249.971 286.96 249.977C275.755 249.98 264.549 249.984 253.344 249.985C253.113 249.985 252.883 249.985 252.645 249.985C247.587 249.985 242.528 249.985 237.47 249.985C235.66 249.986 233.849 249.986 232.039 249.986C231.589 249.986 231.139 249.986 230.688 249.986C223.513 249.986 216.337 249.988 209.161 249.991C201.933 249.994 194.705 249.996 187.477 249.994C186.478 249.994 185.479 249.993 184.48 249.993C184.186 249.993 184.186 249.993 183.886 249.993C180.787 249.992 177.687 249.994 174.587 249.997C171.539 249.999 168.49 249.999 165.441 249.997C163.654 249.995 161.868 249.996 160.081 249.999C158.753 250.001 157.426 250 156.098 249.997C155.565 249.997 155.032 249.997 154.499 249.999C150.781 250.011 147.299 249.795 143.752 248.568C143.56 248.502 143.368 248.437 143.17 248.369C140.343 247.365 137.747 246 135.513 243.978C135.309 243.794 135.105 243.611 134.895 243.423C134.333 242.914 133.777 242.398 133.223 241.881C132.757 241.447 132.288 241.015 131.82 240.583C131.461 240.251 131.102 239.919 130.743 239.588C130.026 238.925 129.31 238.263 128.593 237.601C128.355 237.381 128.117 237.161 127.879 236.941C127.702 236.778 127.702 236.778 127.522 236.611C127.165 236.281 126.808 235.952 126.451 235.622C126.333 235.513 126.215 235.404 126.094 235.292C125.856 235.072 125.617 234.852 125.379 234.631C124.79 234.087 124.2 233.542 123.61 232.999C122.197 231.695 120.789 230.385 119.385 229.072C118.503 228.247 117.617 227.425 116.729 226.606C116.38 226.283 116.03 225.96 115.68 225.636C115.412 225.389 115.143 225.142 114.875 224.895C114.431 224.486 113.987 224.076 113.544 223.665C113.338 223.477 113.338 223.477 113.129 223.285C112.933 223.103 112.933 223.103 112.734 222.918C112.62 222.813 112.506 222.708 112.388 222.599C111.858 222.058 111.39 221.473 110.908 220.889C111.05 220.889 111.192 220.888 111.339 220.887C114.875 220.869 118.41 220.849 121.946 220.826C123.656 220.815 125.366 220.805 127.076 220.797C133.958 220.762 140.836 220.707 147.714 220.468C147.965 220.46 148.217 220.452 148.476 220.443C154.724 220.229 154.724 220.229 160.915 219.405C161.121 219.368 161.326 219.33 161.538 219.292C166.163 218.412 170.62 217.135 173.96 213.633C174.112 213.483 174.264 213.332 174.42 213.177C180.533 206.8 180.304 196.133 180.135 187.896C179.939 180.803 178.813 174.047 173.469 168.969C163.964 160.781 146.098 162.814 134.416 162.405C134.151 162.396 133.886 162.387 133.613 162.377C130.915 162.283 128.218 162.19 125.521 162.102C120.303 161.932 115.087 161.741 109.874 161.464C109.372 161.438 108.87 161.412 108.368 161.386C105.944 161.263 103.529 161.104 101.12 160.797C100.936 160.776 100.751 160.756 100.562 160.734C98.9477 160.507 97.8162 159.851 96.6687 158.702C95.349 156.778 95.3032 154.769 95.529 152.504C95.8275 150.917 96.4185 149.889 97.6616 148.862C99.1771 147.912 100.596 147.714 102.353 147.529C102.578 147.503 102.803 147.476 103.035 147.449C107.498 146.954 111.994 146.974 116.477 146.978C117.066 146.978 117.654 146.978 118.242 146.977C119.467 146.977 120.692 146.977 121.917 146.978C123.32 146.98 124.723 146.979 126.126 146.978C127.345 146.977 128.565 146.977 129.784 146.977C130.506 146.978 131.228 146.978 131.95 146.977C134.542 146.975 137.133 146.976 139.723 147.103C139.976 147.115 139.976 147.115 140.233 147.127C143.112 147.289 146.65 147.494 148.742 149.725C150.003 151.591 149.871 154.107 150.013 156.242C158.93 156.242 167.848 156.242 177.035 156.242C177.031 143.806 177.031 143.806 171.198 133.166C157.504 121.575 128.121 125.954 111.8 126.2C111.552 126.204 111.304 126.207 111.049 126.21C105.725 126.286 100.408 126.538 95.0897 126.777C95.0743 123.755 95.0627 120.733 95.0555 117.711C95.0521 116.308 95.0474 114.904 95.0399 113.501C95.0327 112.145 95.0288 110.789 95.0271 109.433C95.0259 108.917 95.0235 108.402 95.02 107.886C94.9937 103.936 94.9982 100.862 97.7809 97.8073C100.225 95.49 103.795 95.0784 107.01 95.0854ZM190.217 127.437C190.217 157.841 190.217 188.245 190.217 219.57C199.424 219.57 208.632 219.57 218.118 219.57C218.19 209.048 218.263 198.527 218.338 187.686C240.087 187.614 261.837 187.541 284.246 187.466C284.246 180.573 284.246 173.679 284.246 166.577C262.423 166.577 240.601 166.577 218.118 166.577C218.118 160.772 218.118 154.967 218.118 148.986C241.028 148.986 263.937 148.986 287.541 148.986C287.541 141.875 287.541 134.764 287.541 127.437C255.424 127.437 223.307 127.437 190.217 127.437ZM294.132 127.437C294.132 157.841 294.132 188.245 294.132 219.57C303.339 219.57 312.546 219.57 322.033 219.57C322.105 212.169 322.178 204.767 322.253 197.141C327.388 197.125 327.388 197.125 332.628 197.109C334.812 197.101 336.997 197.093 339.182 197.085C342.64 197.072 346.099 197.059 349.557 197.049C352.077 197.041 354.597 197.033 357.118 197.022C358.448 197.017 359.779 197.012 361.109 197.009C365.984 196.997 370.853 196.978 375.722 196.721C375.973 196.708 375.973 196.708 376.229 196.695C384.667 196.244 393.1 194.745 399.09 188.36C404.821 181.758 404.766 171.115 404.723 162.836C404.72 162.094 404.722 161.351 404.726 160.609C404.76 152.58 404.692 141.569 398.73 135.365C398.432 135.065 398.13 134.769 397.827 134.474C397.683 134.327 397.538 134.18 397.389 134.029C392.211 129.102 383.62 127.997 376.843 127.635C376.672 127.626 376.502 127.617 376.327 127.607C372.556 127.404 368.792 127.376 365.017 127.386C364.047 127.388 363.076 127.387 362.106 127.387C360.236 127.387 358.366 127.389 356.496 127.392C354.326 127.395 352.155 127.395 349.985 127.396C344.274 127.398 338.564 127.404 332.853 127.41C320.075 127.419 307.297 127.428 294.132 127.437Z" fill="#8E8E8E"/>
<path d="M322.033 150.305C331.933 150.288 331.933 150.288 336.127 150.284C339.006 150.281 341.885 150.278 344.765 150.272C346.863 150.268 348.962 150.265 351.06 150.264C352.168 150.263 353.275 150.262 354.383 150.259C358.515 150.247 362.638 150.254 366.764 150.5C366.986 150.513 366.986 150.513 367.213 150.526C372.811 150.861 372.811 150.861 374.828 152.972C377.527 156.45 377.054 162.427 376.572 166.55C376.372 167.904 376.059 169.103 375.419 170.315C375.345 170.457 375.271 170.598 375.195 170.744C374.258 172.271 372.642 173.072 370.97 173.572C369.732 173.832 368.516 173.907 367.256 173.958C366.937 173.972 366.937 173.972 366.612 173.986C364.472 174.071 362.334 174.083 360.193 174.078C359.772 174.078 359.351 174.078 358.931 174.078C357.806 174.078 356.682 174.077 355.557 174.076C354.376 174.074 353.194 174.074 352.013 174.074C349.783 174.073 347.553 174.071 345.323 174.069C342.305 174.066 339.286 174.065 336.267 174.064C331.523 174.062 326.778 174.057 322.033 174.053C322.033 166.216 322.033 158.38 322.033 150.305Z" fill="#8E8E8E"/>
<path d="M95.09 182.629C99.0249 182.562 102.949 182.755 106.878 182.933C107.843 182.976 108.808 183.018 109.773 183.06C112.018 183.158 114.263 183.258 116.508 183.357C119.349 183.484 122.191 183.609 125.032 183.733C125.985 183.775 126.938 183.817 127.89 183.86C128.961 183.908 130.033 183.955 131.104 184.002C131.276 184.009 131.448 184.017 131.625 184.025C133.613 184.111 135.601 184.18 137.59 184.224C137.781 184.228 137.972 184.232 138.169 184.237C139.08 184.257 139.99 184.275 140.901 184.29C142.607 184.321 144.294 184.407 145.991 184.592C146.151 184.609 146.311 184.627 146.476 184.645C148.737 184.912 150.953 185.378 152.43 187.247C153.763 189.625 153.508 192.832 152.869 195.382C152.377 196.851 151.722 197.847 150.377 198.641C147.985 199.705 145.252 199.803 142.672 199.85C142.45 199.854 142.227 199.859 141.997 199.864C141.255 199.878 140.513 199.891 139.77 199.904C139.51 199.909 139.25 199.913 138.982 199.918C129.401 200.082 119.816 200.068 110.235 199.904C109.975 199.9 109.715 199.895 109.448 199.891C99.2335 199.716 99.2335 199.716 96.9179 197.7C95.2419 195.922 94.9603 193.875 95.0042 191.519C95.0054 191.263 95.0066 191.008 95.0079 190.745C95.0128 189.936 95.0238 189.127 95.035 188.319C95.0395 187.767 95.0435 187.216 95.0471 186.664C95.0567 185.319 95.0714 183.974 95.09 182.629Z" fill="#8E8E8E"/>
<path d="M121.302 1045.56C121.131 1045.02 120.9 1044.54 120.61 1044.12C120.326 1043.68 119.985 1043.32 119.589 1043.01C119.192 1042.71 118.739 1042.47 118.23 1042.31C117.727 1042.15 117.174 1042.07 116.57 1042.07C115.546 1042.07 114.623 1042.34 113.8 1042.86C112.978 1043.39 112.327 1044.16 111.847 1045.18C111.374 1046.19 111.137 1047.43 111.137 1048.9C111.137 1050.37 111.377 1051.62 111.856 1052.64C112.336 1053.66 112.993 1054.43 113.827 1054.95C114.662 1055.48 115.612 1055.75 116.677 1055.75C117.665 1055.75 118.526 1055.54 119.26 1055.14C120 1054.74 120.571 1054.17 120.974 1053.44C121.382 1052.7 121.586 1051.83 121.586 1050.83L122.297 1050.96H117.094V1048.7H124.241V1050.76C124.241 1052.29 123.915 1053.62 123.264 1054.74C122.619 1055.86 121.725 1056.72 120.583 1057.33C119.447 1057.94 118.145 1058.25 116.677 1058.25C115.031 1058.25 113.587 1057.87 112.344 1057.11C111.107 1056.35 110.143 1055.28 109.45 1053.89C108.758 1052.49 108.412 1050.84 108.412 1048.92C108.412 1047.47 108.613 1046.17 109.015 1045.01C109.418 1043.86 109.983 1042.88 110.711 1042.07C111.445 1041.26 112.306 1040.64 113.294 1040.22C114.289 1039.79 115.375 1039.57 116.553 1039.57C117.535 1039.57 118.449 1039.71 119.296 1040C120.148 1040.29 120.906 1040.71 121.569 1041.24C122.237 1041.77 122.791 1042.4 123.229 1043.14C123.667 1043.87 123.963 1044.67 124.116 1045.56H121.302Z" fill="black"/>
<path d="M172.795 1039.57C173.606 1039.58 174.405 1039.72 175.192 1040.01C175.979 1040.3 176.689 1040.78 177.322 1041.43C177.962 1042.09 178.471 1042.98 178.849 1044.1C179.234 1045.21 179.429 1046.59 179.435 1048.25C179.435 1049.84 179.276 1051.26 178.956 1052.5C178.636 1053.74 178.178 1054.79 177.58 1055.64C176.988 1056.49 176.269 1057.14 175.423 1057.58C174.576 1058.03 173.623 1058.25 172.564 1058.25C171.481 1058.25 170.519 1058.04 169.679 1057.61C168.838 1057.18 168.155 1056.59 167.628 1055.84C167.101 1055.09 166.773 1054.22 166.642 1053.23H169.35C169.528 1054.01 169.889 1054.65 170.433 1055.13C170.984 1055.61 171.694 1055.85 172.564 1055.85C173.896 1055.85 174.934 1055.27 175.68 1054.11C176.426 1052.95 176.802 1051.32 176.808 1049.23H176.665C176.358 1049.74 175.973 1050.18 175.511 1050.54C175.056 1050.91 174.544 1051.19 173.975 1051.39C173.407 1051.6 172.801 1051.7 172.156 1051.7C171.108 1051.7 170.155 1051.44 169.297 1050.92C168.439 1050.41 167.755 1049.7 167.246 1048.8C166.737 1047.9 166.483 1046.88 166.483 1045.72C166.483 1044.57 166.743 1043.53 167.264 1042.6C167.791 1041.66 168.525 1040.92 169.466 1040.38C170.413 1039.83 171.522 1039.56 172.795 1039.57ZM172.804 1041.88C172.111 1041.88 171.487 1042.05 170.93 1042.39C170.38 1042.73 169.945 1043.19 169.625 1043.77C169.306 1044.34 169.146 1044.98 169.146 1045.69C169.146 1046.39 169.3 1047.03 169.608 1047.6C169.921 1048.17 170.347 1048.62 170.886 1048.96C171.431 1049.29 172.052 1049.46 172.75 1049.46C173.271 1049.46 173.757 1049.36 174.206 1049.16C174.656 1048.96 175.05 1048.68 175.387 1048.32C175.724 1047.96 175.988 1047.55 176.177 1047.1C176.367 1046.64 176.461 1046.16 176.461 1045.66C176.461 1044.99 176.301 1044.37 175.982 1043.8C175.668 1043.22 175.236 1042.76 174.686 1042.41C174.135 1042.06 173.508 1041.88 172.804 1041.88Z" fill="black"/>
<path d="M227.892 1058.25C226.62 1058.25 225.495 1058.03 224.519 1057.59C223.548 1057.15 222.788 1056.55 222.237 1055.78C221.687 1055.01 221.415 1054.14 221.42 1053.15C221.415 1052.38 221.571 1051.68 221.891 1051.03C222.217 1050.38 222.657 1049.84 223.214 1049.41C223.77 1048.97 224.392 1048.69 225.078 1048.57V1048.47C224.173 1048.25 223.448 1047.76 222.903 1047.01C222.359 1046.26 222.089 1045.39 222.095 1044.42C222.089 1043.49 222.335 1042.66 222.832 1041.93C223.335 1041.2 224.025 1040.62 224.901 1040.2C225.777 1039.78 226.774 1039.57 227.892 1039.57C228.999 1039.57 229.988 1039.78 230.858 1040.21C231.734 1040.63 232.423 1041.21 232.926 1041.94C233.429 1042.67 233.684 1043.49 233.69 1044.42C233.684 1045.39 233.406 1046.26 232.855 1047.01C232.305 1047.76 231.589 1048.25 230.707 1048.47V1048.57C231.387 1048.69 232 1048.97 232.544 1049.41C233.095 1049.84 233.533 1050.38 233.858 1051.03C234.19 1051.68 234.358 1052.38 234.364 1053.15C234.358 1054.14 234.08 1055.01 233.53 1055.78C232.979 1056.55 232.216 1057.15 231.239 1057.59C230.269 1058.03 229.153 1058.25 227.892 1058.25ZM227.892 1056C228.644 1056 229.295 1055.88 229.846 1055.63C230.396 1055.38 230.822 1055.02 231.124 1054.57C231.426 1054.12 231.58 1053.58 231.586 1052.98C231.58 1052.34 231.414 1051.78 231.088 1051.3C230.769 1050.81 230.334 1050.43 229.783 1050.15C229.233 1049.87 228.603 1049.73 227.892 1049.73C227.176 1049.73 226.54 1049.87 225.984 1050.15C225.427 1050.43 224.989 1050.81 224.67 1051.3C224.35 1051.78 224.193 1052.34 224.199 1052.98C224.193 1053.58 224.338 1054.12 224.634 1054.57C224.936 1055.02 225.365 1055.38 225.922 1055.63C226.478 1055.88 227.135 1056 227.892 1056ZM227.892 1047.54C228.496 1047.54 229.032 1047.42 229.499 1047.18C229.967 1046.94 230.334 1046.6 230.6 1046.17C230.872 1045.73 231.011 1045.23 231.017 1044.65C231.011 1044.08 230.875 1043.58 230.609 1043.16C230.349 1042.73 229.985 1042.4 229.517 1042.17C229.049 1041.93 228.508 1041.82 227.892 1041.82C227.265 1041.82 226.715 1041.93 226.241 1042.17C225.774 1042.4 225.41 1042.73 225.149 1043.16C224.889 1043.58 224.761 1044.08 224.767 1044.65C224.761 1045.23 224.892 1045.73 225.158 1046.17C225.424 1046.6 225.791 1046.94 226.259 1047.18C226.732 1047.42 227.277 1047.54 227.892 1047.54Z" fill="black"/>
<path d="M277.362 1058L285.298 1042.3V1042.17H276.119V1039.82H288.139V1042.25L280.229 1058H277.362Z" fill="black"/>
<path d="M338.097 1058.25C337.286 1058.24 336.487 1058.09 335.7 1057.8C334.918 1057.52 334.208 1057.05 333.569 1056.38C332.93 1055.72 332.418 1054.83 332.033 1053.71C331.654 1052.59 331.465 1051.2 331.465 1049.52C331.465 1047.94 331.622 1046.53 331.935 1045.3C332.255 1044.06 332.714 1043.03 333.311 1042.18C333.909 1041.33 334.631 1040.68 335.478 1040.24C336.324 1039.79 337.274 1039.57 338.327 1039.57C339.411 1039.57 340.372 1039.78 341.213 1040.21C342.053 1040.63 342.734 1041.22 343.255 1041.98C343.781 1042.73 344.116 1043.58 344.258 1044.54H341.55C341.367 1043.78 341.003 1043.17 340.458 1042.69C339.914 1042.21 339.203 1041.97 338.327 1041.97C336.996 1041.97 335.957 1042.55 335.211 1043.71C334.471 1044.87 334.099 1046.48 334.093 1048.55H334.226C334.54 1048.03 334.924 1047.59 335.38 1047.23C335.842 1046.86 336.357 1046.58 336.925 1046.39C337.499 1046.19 338.103 1046.09 338.736 1046.09C339.789 1046.09 340.742 1046.34 341.594 1046.86C342.453 1047.37 343.136 1048.07 343.645 1048.97C344.154 1049.87 344.409 1050.9 344.409 1052.06C344.409 1053.22 344.145 1054.27 343.619 1055.21C343.098 1056.15 342.364 1056.9 341.417 1057.45C340.47 1057.99 339.363 1058.26 338.097 1058.25ZM338.088 1055.94C338.786 1055.94 339.411 1055.77 339.961 1055.43C340.511 1055.08 340.946 1054.62 341.266 1054.04C341.586 1053.46 341.745 1052.81 341.745 1052.1C341.745 1051.4 341.589 1050.76 341.275 1050.19C340.967 1049.61 340.541 1049.16 339.996 1048.82C339.458 1048.48 338.842 1048.31 338.15 1048.31C337.623 1048.31 337.135 1048.41 336.685 1048.62C336.241 1048.82 335.85 1049.1 335.513 1049.45C335.176 1049.81 334.909 1050.21 334.714 1050.68C334.525 1051.13 334.43 1051.61 334.43 1052.12C334.43 1052.8 334.587 1053.43 334.901 1054.01C335.22 1054.59 335.655 1055.06 336.206 1055.42C336.762 1055.77 337.389 1055.94 338.088 1055.94Z" fill="black"/>
<path d="M447.75 1058.25C446.638 1058.25 445.637 1058.04 444.75 1057.61C443.868 1057.18 443.163 1056.59 442.637 1055.83C442.11 1055.08 441.829 1054.22 441.793 1053.26H444.457C444.522 1054.04 444.868 1054.68 445.495 1055.19C446.123 1055.69 446.874 1055.94 447.75 1055.94C448.449 1055.94 449.067 1055.78 449.606 1055.46C450.15 1055.14 450.576 1054.69 450.884 1054.12C451.198 1053.55 451.355 1052.9 451.355 1052.18C451.355 1051.44 451.195 1050.78 450.875 1050.2C450.556 1049.62 450.115 1049.16 449.553 1048.83C448.996 1048.5 448.357 1048.33 447.635 1048.32C447.085 1048.32 446.531 1048.42 445.975 1048.61C445.418 1048.8 444.969 1049.05 444.625 1049.35L442.113 1048.98L443.134 1039.82H453.13V1042.17H445.415L444.838 1047.26H444.945C445.3 1046.91 445.771 1046.63 446.357 1046.4C446.948 1046.17 447.582 1046.05 448.256 1046.05C449.363 1046.05 450.349 1046.31 451.213 1046.84C452.083 1047.37 452.766 1048.09 453.263 1049C453.767 1049.9 454.015 1050.95 454.009 1052.12C454.015 1053.3 453.749 1054.35 453.21 1055.27C452.678 1056.2 451.938 1056.93 450.991 1057.46C450.05 1057.99 448.97 1058.25 447.75 1058.25Z" fill="black"/>
<path d="M495.367 1054.45V1052.23L503.224 1039.82H504.973V1043.09H503.863L498.244 1051.98V1052.12H509.012V1054.45H495.367ZM503.988 1058V1053.77L504.005 1052.76V1039.82H506.607V1058H503.988Z" fill="black"/>
<path d="M557.079 1058.25C555.86 1058.25 554.771 1058.04 553.812 1057.62C552.859 1057.2 552.104 1056.62 551.548 1055.87C550.998 1055.12 550.702 1054.25 550.66 1053.26H553.448C553.483 1053.8 553.664 1054.27 553.989 1054.66C554.321 1055.05 554.753 1055.35 555.286 1055.57C555.818 1055.78 556.41 1055.89 557.061 1055.89C557.777 1055.89 558.411 1055.76 558.961 1055.51C559.517 1055.27 559.952 1054.92 560.266 1054.48C560.58 1054.03 560.737 1053.51 560.737 1052.92C560.737 1052.31 560.58 1051.78 560.266 1051.31C559.958 1050.85 559.505 1050.48 558.908 1050.21C558.316 1049.95 557.6 1049.81 556.759 1049.81H555.223V1047.58H556.759C557.434 1047.58 558.026 1047.46 558.535 1047.21C559.05 1046.97 559.452 1046.63 559.742 1046.2C560.032 1045.76 560.177 1045.25 560.177 1044.67C560.177 1044.1 560.05 1043.61 559.795 1043.2C559.547 1042.78 559.192 1042.45 558.73 1042.22C558.274 1041.98 557.736 1041.86 557.114 1041.86C556.522 1041.86 555.969 1041.97 555.454 1042.19C554.945 1042.4 554.531 1042.71 554.211 1043.11C553.892 1043.51 553.72 1043.98 553.696 1044.54H551.042C551.071 1043.56 551.362 1042.69 551.912 1041.95C552.468 1041.2 553.202 1040.62 554.114 1040.2C555.025 1039.78 556.037 1039.57 557.15 1039.57C558.316 1039.57 559.322 1039.8 560.168 1040.25C561.021 1040.7 561.678 1041.3 562.139 1042.06C562.607 1042.81 562.838 1043.63 562.832 1044.52C562.838 1045.54 562.554 1046.41 561.979 1047.12C561.411 1047.83 560.654 1048.3 559.707 1048.55V1048.69C560.914 1048.87 561.849 1049.35 562.512 1050.13C563.181 1050.9 563.512 1051.86 563.506 1053.01C563.512 1054.01 563.234 1054.91 562.672 1055.7C562.116 1056.49 561.355 1057.12 560.39 1057.57C559.426 1058.02 558.322 1058.25 557.079 1058.25Z" fill="black"/>
<path d="M605.749 1058V1056.01L611.901 1049.64C612.558 1048.94 613.1 1048.34 613.526 1047.82C613.958 1047.29 614.281 1046.79 614.494 1046.32C614.707 1045.84 614.813 1045.34 614.813 1044.81C614.813 1044.2 614.671 1043.68 614.387 1043.25C614.103 1042.8 613.715 1042.46 613.224 1042.22C612.733 1041.98 612.179 1041.86 611.564 1041.86C610.913 1041.86 610.345 1041.99 609.859 1042.26C609.374 1042.53 609.001 1042.9 608.741 1043.39C608.48 1043.87 608.35 1044.44 608.35 1045.09H605.731C605.731 1043.98 605.986 1043.02 606.495 1042.19C607.004 1041.36 607.702 1040.72 608.59 1040.26C609.478 1039.8 610.487 1039.57 611.617 1039.57C612.759 1039.57 613.766 1039.8 614.636 1040.25C615.512 1040.7 616.195 1041.32 616.686 1042.1C617.178 1042.88 617.423 1043.75 617.423 1044.73C617.423 1045.4 617.296 1046.06 617.042 1046.71C616.793 1047.35 616.358 1048.07 615.737 1048.86C615.115 1049.65 614.251 1050.61 613.144 1051.73L609.531 1055.51V1055.65H617.716V1058H605.749Z" fill="black"/>
<path d="M668.647 1039.82V1058H665.895V1042.57H665.788L661.438 1045.41V1042.78L665.975 1039.82H668.647Z" fill="black"/>
<path d="M397.302 1045.56C397.131 1045.02 396.9 1044.54 396.61 1044.12C396.326 1043.68 395.985 1043.32 395.589 1043.01C395.192 1042.71 394.739 1042.47 394.23 1042.31C393.727 1042.15 393.174 1042.07 392.57 1042.07C391.546 1042.07 390.623 1042.34 389.8 1042.86C388.978 1043.39 388.327 1044.16 387.847 1045.18C387.374 1046.19 387.137 1047.43 387.137 1048.9C387.137 1050.37 387.377 1051.62 387.856 1052.64C388.336 1053.66 388.993 1054.43 389.827 1054.95C390.662 1055.48 391.612 1055.75 392.677 1055.75C393.665 1055.75 394.526 1055.54 395.26 1055.14C396 1054.74 396.571 1054.17 396.974 1053.44C397.382 1052.7 397.586 1051.83 397.586 1050.83L398.297 1050.96H393.094V1048.7H400.241V1050.76C400.241 1052.29 399.915 1053.62 399.264 1054.74C398.619 1055.86 397.725 1056.72 396.583 1057.33C395.447 1057.94 394.145 1058.25 392.677 1058.25C391.031 1058.25 389.587 1057.87 388.344 1057.11C387.107 1056.35 386.143 1055.28 385.45 1053.89C384.758 1052.49 384.412 1050.84 384.412 1048.92C384.412 1047.47 384.613 1046.17 385.015 1045.01C385.418 1043.86 385.983 1042.88 386.711 1042.07C387.445 1041.26 388.306 1040.64 389.294 1040.22C390.289 1039.79 391.375 1039.57 392.553 1039.57C393.535 1039.57 394.449 1039.71 395.296 1040C396.148 1040.29 396.906 1040.71 397.569 1041.24C398.237 1041.77 398.791 1042.4 399.229 1043.14C399.667 1043.87 399.963 1044.67 400.116 1045.56H397.302Z" fill="black"/>
<path d="M727.302 1045.56C727.131 1045.02 726.9 1044.54 726.61 1044.12C726.326 1043.68 725.985 1043.32 725.589 1043.01C725.192 1042.71 724.739 1042.47 724.23 1042.31C723.727 1042.15 723.174 1042.07 722.57 1042.07C721.546 1042.07 720.623 1042.34 719.8 1042.86C718.978 1043.39 718.327 1044.16 717.847 1045.18C717.374 1046.19 717.137 1047.43 717.137 1048.9C717.137 1050.37 717.377 1051.62 717.856 1052.64C718.336 1053.66 718.993 1054.43 719.827 1054.95C720.662 1055.48 721.612 1055.75 722.677 1055.75C723.665 1055.75 724.526 1055.54 725.26 1055.14C726 1054.74 726.571 1054.17 726.974 1053.44C727.382 1052.7 727.586 1051.83 727.586 1050.83L728.297 1050.96H723.094V1048.7H730.241V1050.76C730.241 1052.29 729.915 1053.62 729.264 1054.74C728.619 1055.86 727.725 1056.72 726.583 1057.33C725.447 1057.94 724.145 1058.25 722.677 1058.25C721.031 1058.25 719.587 1057.87 718.344 1057.11C717.107 1056.35 716.143 1055.28 715.45 1053.89C714.758 1052.49 714.412 1050.84 714.412 1048.92C714.412 1047.47 714.613 1046.17 715.015 1045.01C715.418 1043.86 715.983 1042.88 716.711 1042.07C717.445 1041.26 718.306 1040.64 719.294 1040.22C720.289 1039.79 721.375 1039.57 722.553 1039.57C723.535 1039.57 724.449 1039.71 725.296 1040C726.148 1040.29 726.906 1040.71 727.569 1041.24C728.237 1041.77 728.791 1042.4 729.229 1043.14C729.667 1043.87 729.963 1044.67 730.116 1045.56H727.302Z" fill="black"/>
<path d="M770.998 1058V1039.82H777.478C778.887 1039.82 780.056 1040.06 780.985 1040.55C781.92 1041.03 782.619 1041.7 783.08 1042.56C783.542 1043.41 783.773 1044.4 783.773 1045.52C783.773 1046.63 783.539 1047.61 783.071 1048.46C782.61 1049.3 781.911 1049.95 780.976 1050.42C780.047 1050.89 778.878 1051.12 777.469 1051.12H772.56V1048.76H777.221C778.109 1048.76 778.831 1048.63 779.387 1048.38C779.949 1048.12 780.361 1047.75 780.621 1047.27C780.882 1046.78 781.012 1046.2 781.012 1045.52C781.012 1044.83 780.879 1044.24 780.612 1043.73C780.352 1043.23 779.94 1042.85 779.378 1042.58C778.822 1042.31 778.091 1042.17 777.185 1042.17H773.741V1058H770.998ZM779.973 1049.8L784.465 1058H781.34L776.937 1049.8H779.973Z" fill="black"/>
<path d="M837.302 1045.56C837.131 1045.02 836.9 1044.54 836.61 1044.12C836.326 1043.68 835.985 1043.32 835.589 1043.01C835.192 1042.71 834.739 1042.47 834.23 1042.31C833.727 1042.15 833.174 1042.07 832.57 1042.07C831.546 1042.07 830.623 1042.34 829.8 1042.86C828.978 1043.39 828.327 1044.16 827.847 1045.18C827.374 1046.19 827.137 1047.43 827.137 1048.9C827.137 1050.37 827.377 1051.62 827.856 1052.64C828.336 1053.66 828.993 1054.43 829.827 1054.95C830.662 1055.48 831.612 1055.75 832.677 1055.75C833.665 1055.75 834.526 1055.54 835.26 1055.14C836 1054.74 836.571 1054.17 836.974 1053.44C837.382 1052.7 837.586 1051.83 837.586 1050.83L838.297 1050.96H833.094V1048.7H840.241V1050.76C840.241 1052.29 839.915 1053.62 839.264 1054.74C838.619 1055.86 837.725 1056.72 836.583 1057.33C835.447 1057.94 834.145 1058.25 832.677 1058.25C831.031 1058.25 829.587 1057.87 828.344 1057.11C827.107 1056.35 826.143 1055.28 825.45 1053.89C824.758 1052.49 824.412 1050.84 824.412 1048.92C824.412 1047.47 824.613 1046.17 825.015 1045.01C825.418 1043.86 825.983 1042.88 826.711 1042.07C827.445 1041.26 828.306 1040.64 829.294 1040.22C830.289 1039.79 831.375 1039.57 832.553 1039.57C833.535 1039.57 834.449 1039.71 835.296 1040C836.148 1040.29 836.906 1040.71 837.569 1041.24C838.237 1041.77 838.791 1042.4 839.229 1043.14C839.667 1043.87 839.963 1044.67 840.116 1045.56H837.302Z" fill="black"/>
<path d="M879.595 1039.82H882.711L887.461 1048.08H887.656L892.406 1039.82H895.522L888.925 1050.86V1058H886.191V1050.86L879.595 1039.82Z" fill="black"/>
<path d="M947.302 1045.56C947.131 1045.02 946.9 1044.54 946.61 1044.12C946.326 1043.68 945.985 1043.32 945.589 1043.01C945.192 1042.71 944.739 1042.47 944.23 1042.31C943.727 1042.15 943.174 1042.07 942.57 1042.07C941.546 1042.07 940.623 1042.34 939.8 1042.86C938.978 1043.39 938.327 1044.16 937.847 1045.18C937.374 1046.19 937.137 1047.43 937.137 1048.9C937.137 1050.37 937.377 1051.62 937.856 1052.64C938.336 1053.66 938.993 1054.43 939.827 1054.95C940.662 1055.48 941.612 1055.75 942.677 1055.75C943.665 1055.75 944.526 1055.54 945.26 1055.14C946 1054.74 946.571 1054.17 946.974 1053.44C947.382 1052.7 947.586 1051.83 947.586 1050.83L948.297 1050.96H943.094V1048.7H950.241V1050.76C950.241 1052.29 949.915 1053.62 949.264 1054.74C948.619 1055.86 947.725 1056.72 946.583 1057.33C945.447 1057.94 944.145 1058.25 942.677 1058.25C941.031 1058.25 939.587 1057.87 938.344 1057.11C937.107 1056.35 936.143 1055.28 935.45 1053.89C934.758 1052.49 934.412 1050.84 934.412 1048.92C934.412 1047.47 934.613 1046.17 935.015 1045.01C935.418 1043.86 935.983 1042.88 936.711 1042.07C937.445 1041.26 938.306 1040.64 939.294 1040.22C940.289 1039.79 941.375 1039.57 942.553 1039.57C943.535 1039.57 944.449 1039.71 945.296 1040C946.148 1040.29 946.906 1040.71 947.569 1041.24C948.237 1041.77 948.791 1042.4 949.229 1043.14C949.667 1043.87 949.963 1044.67 950.116 1045.56H947.302Z" fill="black"/>
<path d="M1057.3 1045.56C1057.13 1045.02 1056.9 1044.54 1056.61 1044.12C1056.33 1043.68 1055.99 1043.32 1055.59 1043.01C1055.19 1042.71 1054.74 1042.47 1054.23 1042.31C1053.73 1042.15 1053.17 1042.07 1052.57 1042.07C1051.55 1042.07 1050.62 1042.34 1049.8 1042.86C1048.98 1043.39 1048.33 1044.16 1047.85 1045.18C1047.37 1046.19 1047.14 1047.43 1047.14 1048.9C1047.14 1050.37 1047.38 1051.62 1047.86 1052.64C1048.34 1053.66 1048.99 1054.43 1049.83 1054.95C1050.66 1055.48 1051.61 1055.75 1052.68 1055.75C1053.67 1055.75 1054.53 1055.54 1055.26 1055.14C1056 1054.74 1056.57 1054.17 1056.97 1053.44C1057.38 1052.7 1057.59 1051.83 1057.59 1050.83L1058.3 1050.96H1053.09V1048.7H1060.24V1050.76C1060.24 1052.29 1059.92 1053.62 1059.26 1054.74C1058.62 1055.86 1057.73 1056.72 1056.58 1057.33C1055.45 1057.94 1054.14 1058.25 1052.68 1058.25C1051.03 1058.25 1049.59 1057.87 1048.34 1057.11C1047.11 1056.35 1046.14 1055.28 1045.45 1053.89C1044.76 1052.49 1044.41 1050.84 1044.41 1048.92C1044.41 1047.47 1044.61 1046.17 1045.02 1045.01C1045.42 1043.86 1045.98 1042.88 1046.71 1042.07C1047.44 1041.26 1048.31 1040.64 1049.29 1040.22C1050.29 1039.79 1051.37 1039.57 1052.55 1039.57C1053.54 1039.57 1054.45 1039.71 1055.3 1040C1056.15 1040.29 1056.91 1040.71 1057.57 1041.24C1058.24 1041.77 1058.79 1042.4 1059.23 1043.14C1059.67 1043.87 1059.96 1044.67 1060.12 1045.56H1057.3Z" fill="black"/>
<path d="M1155.3 1045.56C1155.13 1045.02 1154.9 1044.54 1154.61 1044.12C1154.33 1043.68 1153.99 1043.32 1153.59 1043.01C1153.19 1042.71 1152.74 1042.47 1152.23 1042.31C1151.73 1042.15 1151.17 1042.07 1150.57 1042.07C1149.55 1042.07 1148.62 1042.34 1147.8 1042.86C1146.98 1043.39 1146.33 1044.16 1145.85 1045.18C1145.37 1046.19 1145.14 1047.43 1145.14 1048.9C1145.14 1050.37 1145.38 1051.62 1145.86 1052.64C1146.34 1053.66 1146.99 1054.43 1147.83 1054.95C1148.66 1055.48 1149.61 1055.75 1150.68 1055.75C1151.67 1055.75 1152.53 1055.54 1153.26 1055.14C1154 1054.74 1154.57 1054.17 1154.97 1053.44C1155.38 1052.7 1155.59 1051.83 1155.59 1050.83L1156.3 1050.96H1151.09V1048.7H1158.24V1050.76C1158.24 1052.29 1157.92 1053.62 1157.26 1054.74C1156.62 1055.86 1155.73 1056.72 1154.58 1057.33C1153.45 1057.94 1152.14 1058.25 1150.68 1058.25C1149.03 1058.25 1147.59 1057.87 1146.34 1057.11C1145.11 1056.35 1144.14 1055.28 1143.45 1053.89C1142.76 1052.49 1142.41 1050.84 1142.41 1048.92C1142.41 1047.47 1142.61 1046.17 1143.02 1045.01C1143.42 1043.86 1143.98 1042.88 1144.71 1042.07C1145.44 1041.26 1146.31 1040.64 1147.29 1040.22C1148.29 1039.79 1149.37 1039.57 1150.55 1039.57C1151.54 1039.57 1152.45 1039.71 1153.3 1040C1154.15 1040.29 1154.91 1040.71 1155.57 1041.24C1156.24 1041.77 1156.79 1042.4 1157.23 1043.14C1157.67 1043.87 1157.96 1044.67 1158.12 1045.56H1155.3ZM1176.4 1039.82V1058H1173.88L1164.64 1044.67H1164.47V1058H1161.72V1039.82H1164.26L1173.51 1053.17H1173.68V1039.82H1176.4Z" fill="black"/>
<path d="M1224.67 1039.82V1058H1222.15L1212.91 1044.67H1212.74V1058H1210V1039.82H1212.54L1221.79 1053.17H1221.96V1039.82H1224.67Z" fill="black"/>
<path d="M1540 1058V1039.82H1546.48C1547.89 1039.82 1549.06 1040.06 1549.99 1040.55C1550.92 1041.03 1551.62 1041.7 1552.08 1042.56C1552.54 1043.41 1552.77 1044.4 1552.77 1045.52C1552.77 1046.63 1552.54 1047.61 1552.07 1048.46C1551.61 1049.3 1550.91 1049.95 1549.98 1050.42C1549.05 1050.89 1547.88 1051.12 1546.47 1051.12H1541.56V1048.76H1546.22C1547.11 1048.76 1547.83 1048.63 1548.39 1048.38C1548.95 1048.12 1549.36 1047.75 1549.62 1047.27C1549.88 1046.78 1550.01 1046.2 1550.01 1045.52C1550.01 1044.83 1549.88 1044.24 1549.61 1043.73C1549.35 1043.23 1548.94 1042.85 1548.38 1042.58C1547.82 1042.31 1547.09 1042.17 1546.19 1042.17H1542.74V1058H1540ZM1548.97 1049.8L1553.47 1058H1550.34L1545.94 1049.8H1548.97Z" fill="black"/>
<path d="M1429.59 1039.82H1432.71L1437.46 1048.08H1437.66L1442.41 1039.82H1445.52L1438.93 1050.86V1058H1436.19V1050.86L1429.59 1039.82Z" fill="black"/>
<path d="M1321 1058V1039.82H1327.66C1328.95 1039.82 1330.01 1040.03 1330.86 1040.46C1331.71 1040.88 1332.34 1041.45 1332.76 1042.17C1333.18 1042.89 1333.39 1043.69 1333.39 1044.59C1333.39 1045.35 1333.25 1045.99 1332.97 1046.51C1332.7 1047.03 1332.32 1047.44 1331.86 1047.75C1331.39 1048.06 1330.88 1048.29 1330.33 1048.43V1048.61C1330.93 1048.64 1331.52 1048.83 1332.09 1049.19C1332.67 1049.55 1333.15 1050.05 1333.53 1050.71C1333.91 1051.37 1334.1 1052.17 1334.1 1053.11C1334.1 1054.04 1333.88 1054.87 1333.44 1055.61C1333.01 1056.35 1332.34 1056.93 1331.44 1057.36C1330.53 1057.79 1329.38 1058 1327.97 1058H1321ZM1323.74 1055.65H1327.7C1329.01 1055.65 1329.96 1055.39 1330.52 1054.88C1331.09 1054.37 1331.38 1053.74 1331.38 1052.98C1331.38 1052.4 1331.23 1051.87 1330.94 1051.39C1330.65 1050.92 1330.24 1050.53 1329.7 1050.25C1329.17 1049.97 1328.53 1049.82 1327.8 1049.82H1323.74V1055.65ZM1323.74 1047.68H1327.42C1328.03 1047.68 1328.59 1047.57 1329.08 1047.33C1329.57 1047.09 1329.97 1046.76 1330.26 1046.33C1330.55 1045.9 1330.7 1045.39 1330.7 1044.81C1330.7 1044.06 1330.44 1043.43 1329.91 1042.92C1329.38 1042.41 1328.58 1042.15 1327.49 1042.15H1323.74V1047.68Z" fill="black"/>
<path d="M1090.13 1054.95V1042.94H1092.52V1054.95H1090.13ZM1085.33 1050.13V1047.75H1097.33V1050.13H1085.33ZM1108.3 1039.82V1058H1105.55V1042.57H1105.44L1101.09 1045.41V1042.78L1105.63 1039.82H1108.3ZM1113.22 1058V1056.01L1119.37 1049.64C1120.03 1048.94 1120.57 1048.34 1120.99 1047.82C1121.42 1047.29 1121.75 1046.79 1121.96 1046.32C1122.17 1045.84 1122.28 1045.34 1122.28 1044.81C1122.28 1044.2 1122.14 1043.68 1121.85 1043.25C1121.57 1042.8 1121.18 1042.46 1120.69 1042.22C1120.2 1041.98 1119.65 1041.86 1119.03 1041.86C1118.38 1041.86 1117.81 1041.99 1117.33 1042.26C1116.84 1042.53 1116.47 1042.9 1116.21 1043.39C1115.95 1043.87 1115.82 1044.44 1115.82 1045.09H1113.2C1113.2 1043.98 1113.45 1043.02 1113.96 1042.19C1114.47 1041.36 1115.17 1040.72 1116.06 1040.26C1116.94 1039.8 1117.95 1039.57 1119.08 1039.57C1120.23 1039.57 1121.23 1039.8 1122.1 1040.25C1122.98 1040.7 1123.66 1041.32 1124.15 1042.1C1124.64 1042.88 1124.89 1043.75 1124.89 1044.73C1124.89 1045.4 1124.76 1046.06 1124.51 1046.71C1124.26 1047.35 1123.82 1048.07 1123.2 1048.86C1122.58 1049.65 1121.72 1050.61 1120.61 1051.73L1117 1055.51V1055.65H1125.18V1058H1113.22Z" fill="black"/>
<path d="M988.998 1058V1039.82H995.656C996.946 1039.82 998.014 1040.03 998.861 1040.46C999.707 1040.88 1000.34 1041.45 1000.76 1042.17C1001.18 1042.89 1001.39 1043.69 1001.39 1044.59C1001.39 1045.35 1001.25 1045.99 1000.97 1046.51C1000.7 1047.03 1000.32 1047.44 999.855 1047.75C999.393 1048.06 998.884 1048.29 998.328 1048.43V1048.61C998.932 1048.64 999.521 1048.83 1000.09 1049.19C1000.67 1049.55 1001.15 1050.05 1001.53 1050.71C1001.91 1051.37 1002.1 1052.17 1002.1 1053.11C1002.1 1054.04 1001.88 1054.87 1001.44 1055.61C1001.01 1056.35 1000.34 1056.93 999.438 1057.36C998.532 1057.79 997.375 1058 995.967 1058H988.998ZM991.741 1055.65H995.7C997.014 1055.65 997.955 1055.39 998.523 1054.88C999.092 1054.37 999.376 1053.74 999.376 1052.98C999.376 1052.4 999.231 1051.87 998.941 1051.39C998.651 1050.92 998.236 1050.53 997.698 1050.25C997.165 1049.97 996.532 1049.82 995.798 1049.82H991.741V1055.65ZM991.741 1047.68H995.416C996.032 1047.68 996.585 1047.57 997.076 1047.33C997.574 1047.09 997.967 1046.76 998.257 1046.33C998.553 1045.9 998.701 1045.39 998.701 1044.81C998.701 1044.06 998.438 1043.43 997.911 1042.92C997.384 1042.41 996.576 1042.15 995.487 1042.15H991.741V1047.68Z" fill="black"/>
<mask id="path-36-inside-2_49_936" fill="white">
<path d="M53 1071H77V1156C77 1158.76 74.7614 1161 72 1161H58C55.2386 1161 53 1158.76 53 1156V1071Z"/>
</mask>
<path d="M53 1071H77V1156C77 1158.76 74.7614 1161 72 1161H58C55.2386 1161 53 1158.76 53 1156V1071Z" fill="white"/>
<path d="M53 1071H77H53M78 1156C78 1159.31 75.3137 1162 72 1162H58C54.6863 1162 52 1159.31 52 1156H54C54 1158.21 55.7909 1160 58 1160H72C74.2091 1160 76 1158.21 76 1156H78ZM58 1162C54.6863 1162 52 1159.31 52 1156V1071H54V1156C54 1158.21 55.7909 1160 58 1160V1162ZM78 1071V1156C78 1159.31 75.3137 1162 72 1162V1160C74.2091 1160 76 1158.21 76 1156V1071H78Z" fill="black" mask="url(#path-36-inside-2_49_936)"/>
<rect x="89" y="1089.5" width="53" height="53" rx="7" fill="#118200"/>
<circle cx="115.122" cy="1115.62" r="16.2786" fill="#D9D9D9"/>
<line x1="115.728" y1="1100.04" x2="116.485" y2="1131.08" stroke="#ACACAC" stroke-width="5"/>
<rect x="89" y="1089.5" width="53" height="53" rx="7" fill="#118200"/>
<circle cx="115.122" cy="1115.62" r="16.2786" fill="#D9D9D9"/>
<line x1="115.728" y1="1100.04" x2="116.485" y2="1131.08" stroke="#ACACAC" stroke-width="5"/>
<rect x="144" y="1089.5" width="53" height="53" rx="7" fill="#118200"/>
<circle cx="170.122" cy="1115.62" r="16.2786" fill="#D9D9D9"/>
<line x1="170.728" y1="1100.04" x2="171.485" y2="1131.08" stroke="#ACACAC" stroke-width="5"/>
<rect x="144" y="1089.5" width="53" height="53" rx="7" fill="#118200"/>
<circle cx="170.122" cy="1115.62" r="16.2786" fill="#D9D9D9"/>
<line x1="170.728" y1="1100.04" x2="171.485" y2="1131.08" stroke="#ACACAC" stroke-width="5"/>
<rect x="199" y="1089.5" width="53" height="53" rx="7" fill="#118200"/>
<circle cx="225.122" cy="1115.62" r="16.2786" fill="#D9D9D9"/>
<line x1="225.728" y1="1100.04" x2="226.485" y2="1131.08" stroke="#ACACAC" stroke-width="5"/>
<rect x="199" y="1089.5" width="53" height="53" rx="7" fill="#118200"/>
<circle cx="225.122" cy="1115.62" r="16.2786" fill="#D9D9D9"/>
<line x1="225.728" y1="1100.04" x2="226.485" y2="1131.08" stroke="#ACACAC" stroke-width="5"/>
<rect x="254" y="1089.5" width="53" height="53" rx="7" fill="#118200"/>
<circle cx="280.122" cy="1115.62" r="16.2786" fill="#D9D9D9"/>
<line x1="280.728" y1="1100.04" x2="281.485" y2="1131.08" stroke="#ACACAC" stroke-width="5"/>
<rect x="254" y="1089.5" width="53" height="53" rx="7" fill="#118200"/>
<circle cx="280.122" cy="1115.62" r="16.2786" fill="#D9D9D9"/>
<line x1="280.728" y1="1100.04" x2="281.485" y2="1131.08" stroke="#ACACAC" stroke-width="5"/>
<rect x="309" y="1089.5" width="53" height="53" rx="7" fill="#118200"/>
<circle cx="335.122" cy="1115.62" r="16.2786" fill="#D9D9D9"/>
<line x1="335.728" y1="1100.04" x2="336.485" y2="1131.08" stroke="#ACACAC" stroke-width="5"/>
<rect x="309" y="1089.5" width="53" height="53" rx="7" fill="#118200"/>
<circle cx="335.122" cy="1115.62" r="16.2786" fill="#D9D9D9"/>
<line x1="335.728" y1="1100.04" x2="336.485" y2="1131.08" stroke="#ACACAC" stroke-width="5"/>
<rect x="364" y="1089.5" width="53" height="53" rx="7" fill="#118200"/>
<circle cx="390.122" cy="1115.62" r="16.2786" fill="#D9D9D9"/>
<line x1="390.728" y1="1100.04" x2="391.485" y2="1131.08" stroke="#ACACAC" stroke-width="5"/>
<rect x="364" y="1089.5" width="53" height="53" rx="7" fill="#118200"/>
<circle cx="390.122" cy="1115.62" r="16.2786" fill="#D9D9D9"/>
<line x1="390.728" y1="1100.04" x2="391.485" y2="1131.08" stroke="#ACACAC" stroke-width="5"/>
<rect x="419" y="1089.5" width="53" height="53" rx="7" fill="#118200"/>
<circle cx="445.122" cy="1115.62" r="16.2786" fill="#D9D9D9"/>
<line x1="445.728" y1="1100.04" x2="446.485" y2="1131.08" stroke="#ACACAC" stroke-width="5"/>
<rect x="419" y="1089.5" width="53" height="53" rx="7" fill="#118200"/>
<circle cx="445.122" cy="1115.62" r="16.2786" fill="#D9D9D9"/>
<line x1="445.728" y1="1100.04" x2="446.485" y2="1131.08" stroke="#ACACAC" stroke-width="5"/>
<rect x="474" y="1089.5" width="53" height="53" rx="7" fill="#118200"/>
<circle cx="500.122" cy="1115.62" r="16.2786" fill="#D9D9D9"/>
<line x1="500.728" y1="1100.04" x2="501.485" y2="1131.08" stroke="#ACACAC" stroke-width="5"/>
<rect x="474" y="1089.5" width="53" height="53" rx="7" fill="#118200"/>
<circle cx="500.122" cy="1115.62" r="16.2786" fill="#D9D9D9"/>
<line x1="500.728" y1="1100.04" x2="501.485" y2="1131.08" stroke="#ACACAC" stroke-width="5"/>
<rect x="529" y="1089.5" width="53" height="53" rx="7" fill="#118200"/>
<circle cx="555.122" cy="1115.62" r="16.2786" fill="#D9D9D9"/>
<line x1="555.728" y1="1100.04" x2="556.485" y2="1131.08" stroke="#ACACAC" stroke-width="5"/>
<rect x="529" y="1089.5" width="53" height="53" rx="7" fill="#118200"/>
<circle cx="555.122" cy="1115.62" r="16.2786" fill="#D9D9D9"/>
<line x1="555.728" y1="1100.04" x2="556.485" y2="1131.08" stroke="#ACACAC" stroke-width="5"/>
<rect x="584" y="1089.5" width="53" height="53" rx="7" fill="#118200"/>
<circle cx="610.122" cy="1115.62" r="16.2786" fill="#D9D9D9"/>
<line x1="610.728" y1="1100.04" x2="611.485" y2="1131.08" stroke="#ACACAC" stroke-width="5"/>
<rect x="584" y="1089.5" width="53" height="53" rx="7" fill="#118200"/>
<circle cx="610.122" cy="1115.62" r="16.2786" fill="#D9D9D9"/>
<line x1="610.728" y1="1100.04" x2="611.485" y2="1131.08" stroke="#ACACAC" stroke-width="5"/>
<rect x="639" y="1089.5" width="53" height="53" rx="7" fill="#118200"/>
<circle cx="665.122" cy="1115.62" r="16.2786" fill="#D9D9D9"/>
<line x1="665.728" y1="1100.04" x2="666.485" y2="1131.08" stroke="#ACACAC" stroke-width="5"/>
<rect x="639" y="1089.5" width="53" height="53" rx="7" fill="#118200"/>
<circle cx="665.122" cy="1115.62" r="16.2786" fill="#D9D9D9"/>
<line x1="665.728" y1="1100.04" x2="666.485" y2="1131.08" stroke="#ACACAC" stroke-width="5"/>
<rect x="694" y="1089.5" width="53" height="53" rx="7" fill="#118200"/>
<circle cx="720.122" cy="1115.62" r="16.2786" fill="#D9D9D9"/>
<line x1="720.728" y1="1100.04" x2="721.485" y2="1131.08" stroke="#ACACAC" stroke-width="5"/>
<rect x="694" y="1089.5" width="53" height="53" rx="7" fill="#118200"/>
<circle cx="720.122" cy="1115.62" r="16.2786" fill="#D9D9D9"/>
<line x1="720.728" y1="1100.04" x2="721.485" y2="1131.08" stroke="#ACACAC" stroke-width="5"/>
<rect x="749" y="1089.5" width="53" height="53" rx="7" fill="#118200"/>
<circle cx="775.122" cy="1115.62" r="16.2786" fill="#D9D9D9"/>
<line x1="775.728" y1="1100.04" x2="776.485" y2="1131.08" stroke="#ACACAC" stroke-width="5"/>
<rect x="749" y="1089.5" width="53" height="53" rx="7" fill="#118200"/>
<circle cx="775.122" cy="1115.62" r="16.2786" fill="#D9D9D9"/>
<line x1="775.728" y1="1100.04" x2="776.485" y2="1131.08" stroke="#ACACAC" stroke-width="5"/>
<rect x="804" y="1089.5" width="53" height="53" rx="7" fill="#118200"/>
<circle cx="830.122" cy="1115.62" r="16.2786" fill="#D9D9D9"/>
<line x1="830.728" y1="1100.04" x2="831.485" y2="1131.08" stroke="#ACACAC" stroke-width="5"/>
<rect x="804" y="1089.5" width="53" height="53" rx="7" fill="#118200"/>
<circle cx="830.122" cy="1115.62" r="16.2786" fill="#D9D9D9"/>
<line x1="830.728" y1="1100.04" x2="831.485" y2="1131.08" stroke="#ACACAC" stroke-width="5"/>
<rect x="859" y="1089.5" width="53" height="53" rx="7" fill="#118200"/>
<circle cx="885.122" cy="1115.62" r="16.2786" fill="#D9D9D9"/>
<line x1="885.728" y1="1100.04" x2="886.485" y2="1131.08" stroke="#ACACAC" stroke-width="5"/>
<rect x="859" y="1089.5" width="53" height="53" rx="7" fill="#118200"/>
<circle cx="885.122" cy="1115.62" r="16.2786" fill="#D9D9D9"/>
<line x1="885.728" y1="1100.04" x2="886.485" y2="1131.08" stroke="#ACACAC" stroke-width="5"/>
<rect x="914" y="1089.5" width="53" height="53" rx="7" fill="#118200"/>
<circle cx="940.122" cy="1115.62" r="16.2786" fill="#D9D9D9"/>
<line x1="940.728" y1="1100.04" x2="941.485" y2="1131.08" stroke="#ACACAC" stroke-width="5"/>
<rect x="914" y="1089.5" width="53" height="53" rx="7" fill="#118200"/>
<circle cx="940.122" cy="1115.62" r="16.2786" fill="#D9D9D9"/>
<line x1="940.728" y1="1100.04" x2="941.485" y2="1131.08" stroke="#ACACAC" stroke-width="5"/>
<rect x="969" y="1089.5" width="53" height="53" rx="7" fill="#118200"/>
<circle cx="995.122" cy="1115.62" r="16.2786" fill="#D9D9D9"/>
<line x1="995.728" y1="1100.04" x2="996.485" y2="1131.08" stroke="#ACACAC" stroke-width="5"/>
<rect x="969" y="1089.5" width="53" height="53" rx="7" fill="#118200"/>
<circle cx="995.122" cy="1115.62" r="16.2786" fill="#D9D9D9"/>
<line x1="995.728" y1="1100.04" x2="996.485" y2="1131.08" stroke="#ACACAC" stroke-width="5"/>
<rect x="1024" y="1089.5" width="53" height="53" rx="7" fill="#118200"/>
<circle cx="1050.12" cy="1115.62" r="16.2786" fill="#D9D9D9"/>
<line x1="1050.73" y1="1100.04" x2="1051.48" y2="1131.08" stroke="#ACACAC" stroke-width="5"/>
<rect x="1024" y="1089.5" width="53" height="53" rx="7" fill="#118200"/>
<circle cx="1050.12" cy="1115.62" r="16.2786" fill="#D9D9D9"/>
<line x1="1050.73" y1="1100.04" x2="1051.48" y2="1131.08" stroke="#ACACAC" stroke-width="5"/>
<rect x="1079" y="1089.5" width="53" height="53" rx="7" fill="#118200"/>
<circle cx="1105.12" cy="1115.62" r="16.2786" fill="#D9D9D9"/>
<line x1="1105.73" y1="1100.04" x2="1106.48" y2="1131.08" stroke="#ACACAC" stroke-width="5"/>
<rect x="1079" y="1089.5" width="53" height="53" rx="7" fill="#118200"/>
<circle cx="1105.12" cy="1115.62" r="16.2786" fill="#D9D9D9"/>
<line x1="1105.73" y1="1100.04" x2="1106.48" y2="1131.08" stroke="#ACACAC" stroke-width="5"/>
<rect x="1134" y="1089.5" width="53" height="53" rx="7" fill="#118200"/>
<circle cx="1160.12" cy="1115.62" r="16.2786" fill="#D9D9D9"/>
<line x1="1160.73" y1="1100.04" x2="1161.48" y2="1131.08" stroke="#ACACAC" stroke-width="5"/>
<rect x="1134" y="1089.5" width="53" height="53" rx="7" fill="#118200"/>
<circle cx="1160.12" cy="1115.62" r="16.2786" fill="#D9D9D9"/>
<line x1="1160.73" y1="1100.04" x2="1161.48" y2="1131.08" stroke="#ACACAC" stroke-width="5"/>
<rect x="1189" y="1089.5" width="53" height="53" rx="7" fill="#118200"/>
<circle cx="1215.12" cy="1115.62" r="16.2786" fill="#D9D9D9"/>
<line x1="1215.73" y1="1100.04" x2="1216.48" y2="1131.08" stroke="#ACACAC" stroke-width="5"/>
<rect x="1189" y="1089.5" width="53" height="53" rx="7" fill="#118200"/>
<circle cx="1215.12" cy="1115.62" r="16.2786" fill="#D9D9D9"/>
<line x1="1215.73" y1="1100.04" x2="1216.48" y2="1131.08" stroke="#ACACAC" stroke-width="5"/>
<rect x="1244" y="1089.5" width="53" height="53" rx="7" fill="#118200"/>
<circle cx="1270.12" cy="1115.62" r="16.2786" fill="#D9D9D9"/>
<line x1="1270.73" y1="1100.04" x2="1271.48" y2="1131.08" stroke="#ACACAC" stroke-width="5"/>
<rect x="1244" y="1089.5" width="53" height="53" rx="7" fill="#118200"/>
<circle cx="1270.12" cy="1115.62" r="16.2786" fill="#D9D9D9"/>
<line x1="1270.73" y1="1100.04" x2="1271.48" y2="1131.08" stroke="#ACACAC" stroke-width="5"/>
<rect x="1299" y="1089.5" width="53" height="53" rx="7" fill="#118200"/>
<circle cx="1325.12" cy="1115.62" r="16.2786" fill="#D9D9D9"/>
<line x1="1325.73" y1="1100.04" x2="1326.48" y2="1131.08" stroke="#ACACAC" stroke-width="5"/>
<rect x="1299" y="1089.5" width="53" height="53" rx="7" fill="#118200"/>
<circle cx="1325.12" cy="1115.62" r="16.2786" fill="#D9D9D9"/>
<line x1="1325.73" y1="1100.04" x2="1326.48" y2="1131.08" stroke="#ACACAC" stroke-width="5"/>
<rect x="1354" y="1089.5" width="53" height="53" rx="7" fill="#118200"/>
<circle cx="1380.12" cy="1115.62" r="16.2786" fill="#D9D9D9"/>
<line x1="1380.73" y1="1100.04" x2="1381.48" y2="1131.08" stroke="#ACACAC" stroke-width="5"/>
<rect x="1354" y="1089.5" width="53" height="53" rx="7" fill="#118200"/>
<circle cx="1380.12" cy="1115.62" r="16.2786" fill="#D9D9D9"/>
<line x1="1380.73" y1="1100.04" x2="1381.48" y2="1131.08" stroke="#ACACAC" stroke-width="5"/>
<rect x="1409" y="1089.5" width="53" height="53" rx="7" fill="#118200"/>
<circle cx="1435.12" cy="1115.62" r="16.2786" fill="#D9D9D9"/>
<line x1="1435.73" y1="1100.04" x2="1436.48" y2="1131.08" stroke="#ACACAC" stroke-width="5"/>
<rect x="1409" y="1089.5" width="53" height="53" rx="7" fill="#118200"/>
<circle cx="1435.12" cy="1115.62" r="16.2786" fill="#D9D9D9"/>
<line x1="1435.73" y1="1100.04" x2="1436.48" y2="1131.08" stroke="#ACACAC" stroke-width="5"/>
<rect x="1464" y="1089.5" width="53" height="53" rx="7" fill="#118200"/>
<circle cx="1490.12" cy="1115.62" r="16.2786" fill="#D9D9D9"/>
<line x1="1490.73" y1="1100.04" x2="1491.48" y2="1131.08" stroke="#ACACAC" stroke-width="5"/>
<rect x="1464" y="1089.5" width="53" height="53" rx="7" fill="#118200"/>
<circle cx="1490.12" cy="1115.62" r="16.2786" fill="#D9D9D9"/>
<line x1="1490.73" y1="1100.04" x2="1491.48" y2="1131.08" stroke="#ACACAC" stroke-width="5"/>
<rect x="1519" y="1089.5" width="53" height="53" rx="7" fill="#118200"/>
<circle cx="1545.12" cy="1115.62" r="16.2786" fill="#D9D9D9"/>
<line x1="1545.73" y1="1100.04" x2="1546.48" y2="1131.08" stroke="#ACACAC" stroke-width="5"/>
<rect x="1519" y="1089.5" width="53" height="53" rx="7" fill="#118200"/>
<circle cx="1545.12" cy="1115.62" r="16.2786" fill="#D9D9D9"/>
<line x1="1545.73" y1="1100.04" x2="1546.48" y2="1131.08" stroke="#ACACAC" stroke-width="5"/>
<mask id="path-200-inside-3_49_936" fill="white">
<path d="M1584 1071H1608V1156C1608 1158.76 1605.76 1161 1603 1161H1589C1586.24 1161 1584 1158.76 1584 1156V1071Z"/>
</mask>
<path d="M1584 1071H1608V1156C1608 1158.76 1605.76 1161 1603 1161H1589C1586.24 1161 1584 1158.76 1584 1156V1071Z" fill="white"/>
<path d="M1584 1071H1608H1584M1609 1156C1609 1159.31 1606.31 1162 1603 1162H1589C1585.69 1162 1583 1159.31 1583 1156H1585C1585 1158.21 1586.79 1160 1589 1160H1603C1605.21 1160 1607 1158.21 1607 1156H1609ZM1589 1162C1585.69 1162 1583 1159.31 1583 1156V1071H1585V1156C1585 1158.21 1586.79 1160 1589 1160V1162ZM1609 1071V1156C1609 1159.31 1606.31 1162 1603 1162V1160C1605.21 1160 1607 1158.21 1607 1156V1071H1609Z" fill="black" mask="url(#path-200-inside-3_49_936)"/>
<rect x="1854.63" y="643.635" width="338.907" height="516.612" rx="37.4448" fill="#D9D9D9" stroke="black" stroke-width="1.26932"/>
<rect x="1886.37" y="674.098" width="274.172" height="148.51" rx="31.0982" fill="#BDBDBD" stroke="black" stroke-width="1.26932"/>
<circle cx="2129.44" cy="709.004" r="13.9625" fill="#DE737A"/>
<path d="M1991.95 911.85V940.94H1985.8V917.688H1985.63L1978.97 921.864V916.409L1986.17 911.85H1991.95ZM1998.86 940.94V936.509L2009.22 926.921C2010.1 926.068 2010.84 925.301 2011.43 924.619C2012.04 923.938 2012.5 923.27 2012.81 922.617C2013.12 921.954 2013.28 921.239 2013.28 920.472C2013.28 919.619 2013.09 918.886 2012.7 918.27C2012.31 917.645 2011.78 917.167 2011.11 916.835C2010.43 916.494 2009.67 916.324 2008.82 916.324C2007.93 916.324 2007.15 916.504 2006.49 916.864C2005.83 917.224 2005.32 917.74 2004.96 918.412C2004.6 919.084 2004.42 919.885 2004.42 920.813H1998.58C1998.58 918.909 1999.01 917.257 1999.87 915.855C2000.73 914.454 2001.94 913.369 2003.49 912.602C2005.05 911.835 2006.84 911.452 2008.86 911.452C2010.95 911.452 2012.76 911.821 2014.3 912.56C2015.86 913.289 2017.06 914.302 2017.93 915.6C2018.79 916.897 2019.22 918.384 2019.22 920.06C2019.22 921.158 2019 922.243 2018.56 923.313C2018.14 924.383 2017.38 925.571 2016.28 926.878C2015.18 928.175 2013.63 929.733 2011.63 931.551L2007.39 935.713V935.912H2019.6V940.94H1998.86ZM2038.74 911.85L2045.77 933.952H2046.04L2053.09 911.85H2059.91L2049.88 940.94H2041.95L2031.91 911.85H2038.74ZM1891.77 988.94V959.85H1903.24C1905.45 959.85 1907.33 960.271 1908.88 961.114C1910.44 961.947 1911.62 963.107 1912.44 964.594C1913.26 966.071 1913.67 967.776 1913.67 969.707C1913.67 971.639 1913.25 973.344 1912.42 974.821C1911.59 976.298 1910.38 977.449 1908.8 978.273C1907.23 979.097 1905.32 979.509 1903.09 979.509H1895.77V974.58H1902.09C1903.28 974.58 1904.25 974.376 1905.02 973.969C1905.8 973.552 1906.37 972.979 1906.75 972.25C1907.14 971.511 1907.34 970.664 1907.34 969.707C1907.34 968.742 1907.14 967.899 1906.75 967.179C1906.37 966.45 1905.8 965.886 1905.02 965.489C1904.24 965.082 1903.26 964.878 1902.07 964.878H1897.92V988.94H1891.77ZM1927.06 989.367C1924.85 989.367 1922.94 988.898 1921.33 987.96C1919.73 987.013 1918.5 985.697 1917.63 984.011C1916.76 982.316 1916.32 980.351 1916.32 978.117C1916.32 975.863 1916.76 973.893 1917.63 972.207C1918.5 970.512 1919.73 969.196 1921.33 968.259C1922.94 967.312 1924.85 966.838 1927.06 966.838C1929.27 966.838 1931.17 967.312 1932.77 968.259C1934.38 969.196 1935.62 970.512 1936.49 972.207C1937.36 973.893 1937.8 975.863 1937.8 978.117C1937.8 980.351 1937.36 982.316 1936.49 984.011C1935.62 985.697 1934.38 987.013 1932.77 987.96C1931.17 988.898 1929.27 989.367 1927.06 989.367ZM1927.09 984.679C1928.09 984.679 1928.93 984.395 1929.6 983.827C1930.27 983.249 1930.78 982.463 1931.12 981.469C1931.47 980.475 1931.65 979.343 1931.65 978.074C1931.65 976.805 1931.47 975.673 1931.12 974.679C1930.78 973.685 1930.27 972.899 1929.6 972.321C1928.93 971.743 1928.09 971.455 1927.09 971.455C1926.07 971.455 1925.22 971.743 1924.53 972.321C1923.85 972.899 1923.33 973.685 1922.98 974.679C1922.64 975.673 1922.47 976.805 1922.47 978.074C1922.47 979.343 1922.64 980.475 1922.98 981.469C1923.33 982.463 1923.85 983.249 1924.53 983.827C1925.22 984.395 1926.07 984.679 1927.09 984.679ZM1945.49 988.94L1939.55 967.122H1945.67L1949.05 981.781H1949.25L1952.78 967.122H1958.78L1962.36 981.696H1962.55L1965.87 967.122H1971.98L1966.06 988.94H1959.65L1955.9 975.219H1955.63L1951.88 988.94H1945.49ZM1984.61 989.367C1982.36 989.367 1980.43 988.912 1978.81 988.003C1977.2 987.084 1975.96 985.787 1975.09 984.111C1974.22 982.425 1973.78 980.432 1973.78 978.131C1973.78 975.886 1974.22 973.917 1975.09 972.222C1975.96 970.527 1977.19 969.206 1978.77 968.259C1980.36 967.312 1982.22 966.838 1984.36 966.838C1985.8 966.838 1987.14 967.07 1988.38 967.534C1989.63 967.989 1990.72 968.675 1991.65 969.594C1992.59 970.512 1993.32 971.668 1993.84 973.06C1994.36 974.442 1994.62 976.062 1994.62 977.918V979.58H1976.2V975.83H1988.92C1988.92 974.958 1988.73 974.187 1988.36 973.514C1987.98 972.842 1987.45 972.316 1986.78 971.938C1986.12 971.549 1985.34 971.355 1984.46 971.355C1983.54 971.355 1982.73 971.568 1982.02 971.994C1981.32 972.411 1980.77 972.975 1980.37 973.685C1979.97 974.386 1979.77 975.167 1979.76 976.028V979.594C1979.76 980.673 1979.96 981.606 1980.36 982.392C1980.77 983.178 1981.34 983.784 1982.08 984.21C1982.82 984.636 1983.69 984.85 1984.7 984.85C1985.38 984.85 1985.99 984.755 1986.55 984.565C1987.11 984.376 1987.59 984.092 1987.99 983.713C1988.38 983.334 1988.69 982.87 1988.89 982.321L1994.49 982.69C1994.21 984.035 1993.62 985.209 1992.74 986.213C1991.87 987.207 1990.75 987.984 1989.36 988.543C1987.99 989.092 1986.4 989.367 1984.61 989.367ZM1998.57 988.94V967.122H2004.43V970.929H2004.66C2005.06 969.575 2005.73 968.552 2006.66 967.861C2007.6 967.16 2008.68 966.81 2009.9 966.81C2010.21 966.81 2010.53 966.829 2010.88 966.867C2011.23 966.904 2011.54 966.957 2011.81 967.023V972.392C2011.52 972.307 2011.13 972.231 2010.63 972.165C2010.13 972.099 2009.67 972.065 2009.25 972.065C2008.36 972.065 2007.56 972.26 2006.86 972.648C2006.17 973.027 2005.62 973.557 2005.22 974.239C2004.82 974.921 2004.62 975.707 2004.62 976.597V988.94H1998.57ZM2040.09 968.216C2039.97 967.07 2039.49 966.18 2038.62 965.546C2037.76 964.911 2036.59 964.594 2035.12 964.594C2034.11 964.594 2033.27 964.736 2032.57 965.02C2031.88 965.295 2031.35 965.678 2030.98 966.171C2030.62 966.663 2030.44 967.222 2030.44 967.847C2030.42 968.368 2030.53 968.822 2030.77 969.21C2031.02 969.599 2031.35 969.935 2031.78 970.219C2032.2 970.493 2032.7 970.735 2033.26 970.943C2033.81 971.142 2034.41 971.313 2035.05 971.455L2037.66 972.08C2038.93 972.364 2040.09 972.743 2041.15 973.216C2042.21 973.689 2043.13 974.272 2043.91 974.963C2044.69 975.654 2045.29 976.469 2045.71 977.406C2046.15 978.344 2046.37 979.419 2046.38 980.631C2046.37 982.411 2045.92 983.955 2045.02 985.261C2044.13 986.559 2042.84 987.567 2041.15 988.287C2039.48 988.997 2037.46 989.352 2035.09 989.352C2032.74 989.352 2030.69 988.993 2028.95 988.273C2027.22 987.553 2025.86 986.488 2024.89 985.077C2023.92 983.656 2023.42 981.9 2023.37 979.807H2029.32C2029.39 980.782 2029.67 981.597 2030.16 982.25C2030.66 982.894 2031.33 983.382 2032.16 983.713C2033 984.035 2033.96 984.196 2035.02 984.196C2036.06 984.196 2036.96 984.045 2037.73 983.742C2038.51 983.439 2039.11 983.017 2039.53 982.477C2039.96 981.938 2040.17 981.317 2040.17 980.617C2040.17 979.963 2039.98 979.414 2039.59 978.969C2039.21 978.524 2038.65 978.145 2037.91 977.832C2037.19 977.52 2036.29 977.236 2035.23 976.98L2032.06 976.185C2029.61 975.588 2027.67 974.655 2026.25 973.386C2024.83 972.118 2024.13 970.408 2024.14 968.259C2024.13 966.497 2024.6 964.958 2025.54 963.642C2026.5 962.326 2027.81 961.298 2029.48 960.56C2031.14 959.821 2033.04 959.452 2035.16 959.452C2037.32 959.452 2039.2 959.821 2040.81 960.56C2042.43 961.298 2043.69 962.326 2044.59 963.642C2045.49 964.958 2045.95 966.483 2045.98 968.216H2040.09ZM2064.4 979.651V967.122H2070.45V988.94H2064.64V984.977H2064.41C2063.92 986.256 2063.1 987.283 2061.95 988.06C2060.82 988.836 2059.43 989.225 2057.79 989.225C2056.33 989.225 2055.05 988.893 2053.94 988.23C2052.83 987.567 2051.97 986.625 2051.34 985.403C2050.73 984.182 2050.41 982.719 2050.4 981.014V967.122H2056.46V979.935C2056.46 981.223 2056.81 982.241 2057.49 982.989C2058.17 983.737 2059.09 984.111 2060.23 984.111C2060.96 984.111 2061.64 983.945 2062.28 983.614C2062.91 983.273 2063.42 982.771 2063.81 982.108C2064.21 981.445 2064.4 980.626 2064.4 979.651ZM2075.29 997.122V967.122H2081.25V970.787H2081.52C2081.79 970.2 2082.17 969.603 2082.67 968.997C2083.18 968.382 2083.85 967.87 2084.66 967.463C2085.49 967.046 2086.51 966.838 2087.73 966.838C2089.32 966.838 2090.79 967.255 2092.13 968.088C2093.48 968.912 2094.55 970.157 2095.36 971.824C2096.16 973.481 2096.57 975.56 2096.57 978.06C2096.57 980.493 2096.17 982.548 2095.39 984.225C2094.61 985.891 2093.55 987.155 2092.2 988.017C2090.87 988.869 2089.37 989.296 2087.72 989.296C2086.54 989.296 2085.54 989.101 2084.72 988.713C2083.9 988.325 2083.24 987.837 2082.72 987.25C2082.19 986.653 2081.8 986.052 2081.52 985.446H2081.34V997.122H2075.29ZM2081.21 978.031C2081.21 979.329 2081.39 980.46 2081.75 981.426C2082.11 982.392 2082.63 983.145 2083.31 983.685C2083.99 984.215 2084.82 984.48 2085.8 984.48C2086.78 984.48 2087.62 984.21 2088.3 983.671C2088.98 983.121 2089.5 982.364 2089.85 981.398C2090.21 980.422 2090.39 979.3 2090.39 978.031C2090.39 976.772 2090.21 975.664 2089.86 974.707C2089.51 973.751 2088.99 973.003 2088.31 972.463C2087.63 971.923 2086.79 971.653 2085.8 971.653C2084.81 971.653 2083.98 971.914 2083.3 972.435C2082.63 972.956 2082.11 973.694 2081.75 974.651C2081.39 975.607 2081.21 976.734 2081.21 978.031ZM2100.6 997.122V967.122H2106.57V970.787H2106.84C2107.1 970.2 2107.48 969.603 2107.99 968.997C2108.5 968.382 2109.16 967.87 2109.97 967.463C2110.8 967.046 2111.82 966.838 2113.04 966.838C2114.63 966.838 2116.1 967.255 2117.45 968.088C2118.79 968.912 2119.87 970.157 2120.67 971.824C2121.48 973.481 2121.88 975.56 2121.88 978.06C2121.88 980.493 2121.48 982.548 2120.7 984.225C2119.92 985.891 2118.86 987.155 2117.52 988.017C2116.18 988.869 2114.69 989.296 2113.03 989.296C2111.85 989.296 2110.86 989.101 2110.03 988.713C2109.22 988.325 2108.55 987.837 2108.03 987.25C2107.51 986.653 2107.11 986.052 2106.84 985.446H2106.65V997.122H2100.6ZM2106.52 978.031C2106.52 979.329 2106.7 980.46 2107.06 981.426C2107.42 982.392 2107.94 983.145 2108.62 983.685C2109.31 984.215 2110.14 984.48 2111.11 984.48C2112.1 984.48 2112.93 984.21 2113.61 983.671C2114.29 983.121 2114.81 982.364 2115.16 981.398C2115.52 980.422 2115.7 979.3 2115.7 978.031C2115.7 976.772 2115.52 975.664 2115.17 974.707C2114.82 973.751 2114.31 973.003 2113.62 972.463C2112.94 971.923 2112.11 971.653 2111.11 971.653C2110.13 971.653 2109.29 971.914 2108.61 972.435C2107.94 972.956 2107.42 973.694 2107.06 974.651C2106.7 975.607 2106.52 976.734 2106.52 978.031ZM2131.96 959.85V988.94H2125.91V959.85H2131.96ZM2140.55 997.122C2139.78 997.122 2139.06 997.061 2138.39 996.938C2137.72 996.824 2137.17 996.677 2136.74 996.497L2138.1 991.98C2138.81 992.198 2139.45 992.316 2140.02 992.335C2140.6 992.354 2141.1 992.222 2141.51 991.938C2141.94 991.653 2142.28 991.171 2142.55 990.489L2142.9 989.565L2135.08 967.122H2141.44L2145.96 983.145H2146.19L2150.74 967.122H2157.15L2148.67 991.298C2148.26 992.473 2147.71 993.495 2147.01 994.367C2146.32 995.247 2145.44 995.924 2144.38 996.398C2143.32 996.881 2142.04 997.122 2140.55 997.122Z" fill="black"/>
<path d="M1195 1270.5C1143.5 1257 1052.9 1208.5 1050.5 1142.5" stroke="black" stroke-width="7"/>
<path d="M1197 1270C1144.37 1247 1107.08 1179.36 1105.5 1142.5" stroke="#ED313D" stroke-width="7"/>
<path d="M1194.5 1269.5C1515 1586.5 2049.54 1376.49 2027.5 1168.5" stroke="#6E6E6E" stroke-width="9"/>
<defs>
<filter id="filter0_d_49_936" x="2" y="0" width="1658" height="1187" filterUnits="userSpaceOnUse" color-interpolation-filters="sRGB">
<feFlood flood-opacity="0" result="BackgroundImageFix"/>
<feColorMatrix in="SourceAlpha" type="matrix" values="0 0 0 0 0 0 0 0 0 0 0 0 0 0 0 0 0 0 127 0" result="hardAlpha"/>
<feOffset dy="4"/>
<feGaussianBlur stdDeviation="2"/>
<feComposite in2="hardAlpha" operator="out"/>
<feColorMatrix type="matrix" values="0 0 0 0 0 0 0 0 0 0 0 0 0 0 0 0 0 0 0.25 0"/>
<feBlend mode="normal" in2="BackgroundImageFix" result="effect1_dropShadow_49_936"/>
<feBlend mode="normal" in="SourceGraphic" in2="effect1_dropShadow_49_936" result="shape"/>
</filter>
<filter id="filter1_d_49_936" x="0" y="0" width="1660" height="1080" filterUnits="userSpaceOnUse" color-interpolation-filters="sRGB">
<feFlood flood-opacity="0" result="BackgroundImageFix"/>
<feColorMatrix in="SourceAlpha" type="matrix" values="0 0 0 0 0 0 0 0 0 0 0 0 0 0 0 0 0 0 127 0" result="hardAlpha"/>
<feOffset dy="4"/>
<feGaussianBlur stdDeviation="2"/>
<feComposite in2="hardAlpha" operator="out"/>
<feColorMatrix type="matrix" values="0 0 0 0 0 0 0 0 0 0 0 0 0 0 0 0 0 0 0.25 0"/>
<feBlend mode="normal" in2="BackgroundImageFix" result="effect1_dropShadow_49_936"/>
<feBlend mode="normal" in="SourceGraphic" in2="effect1_dropShadow_49_936" result="shape"/>
</filter>
<linearGradient id="paint0_linear_49_936" x1="830" y1="719" x2="830" y2="929" gradientUnits="userSpaceOnUse">
<stop stop-color="#F3F3F3"/>
<stop offset="0.9999" stop-color="#E4E4E4"/>
</linearGradient>
</defs>
</svg>
