<svg width="2713" height="1752" viewBox="0 0 2713 1752" fill="none" xmlns="http://www.w3.org/2000/svg">
<g filter="url(#filter0_d_61_5)">
<rect x="478" width="1650" height="1179" rx="10" fill="#D9D9D9"/>
<rect x="478.5" y="0.5" width="1649" height="1178" rx="9.5" stroke="black"/>
</g>
<g filter="url(#filter1_d_61_5)">
<rect x="476" width="1652" height="1072" rx="10" fill="white"/>
<rect x="476.5" y="0.5" width="1651" height="1071" rx="9.5" stroke="black"/>
</g>
<mask id="path-5-inside-1_61_5" fill="white">
<path d="M476 719H2128V929H476V719Z"/>
</mask>
<path d="M476 719H2128V929H476V719Z" fill="url(#paint0_linear_61_5)"/>
<path d="M2128 719H2127V929H2128H2129V719H2128ZM476 929H477V719H476H475V929H476Z" fill="black" mask="url(#path-5-inside-1_61_5)"/>
<path d="M579.01 95.0854C579.235 95.085 579.461 95.0846 579.693 95.0842C580.452 95.0831 581.211 95.0836 581.97 95.0842C582.52 95.0837 583.071 95.0832 583.621 95.0826C584.824 95.0815 586.026 95.081 587.229 95.0812C589.029 95.0815 590.83 95.0805 592.63 95.0792C595.698 95.0771 598.766 95.0761 601.835 95.0756C604.945 95.0752 608.055 95.0742 611.165 95.0727C611.362 95.0726 611.558 95.0725 611.76 95.0724C612.56 95.072 613.359 95.0716 614.159 95.0713C623.854 95.0665 633.549 95.0641 643.243 95.0621C646.387 95.0615 649.531 95.0608 652.675 95.0599C653.008 95.0599 653.008 95.0599 653.347 95.0598C654.244 95.0595 655.142 95.0593 656.039 95.0591C671.387 95.0551 686.735 95.0517 702.082 95.0501C703.288 95.05 704.494 95.0499 705.699 95.0497C705.939 95.0497 706.178 95.0497 706.424 95.0496C708.847 95.0494 711.27 95.0491 713.693 95.0489C714.179 95.0488 714.665 95.0487 715.151 95.0487C730.752 95.047 746.354 95.0421 761.956 95.0349C773.166 95.0298 784.375 95.025 795.585 95.0235C795.931 95.0234 795.931 95.0234 796.284 95.0234C801.345 95.0227 806.407 95.0222 811.468 95.022C813.505 95.0219 815.541 95.0218 817.578 95.0217C817.801 95.0216 818.023 95.0216 818.253 95.0216C825.432 95.0212 832.61 95.018 839.788 95.0135C847.02 95.009 854.251 95.0073 861.482 95.0094C862.482 95.0097 863.482 95.0099 864.482 95.0102C864.677 95.0102 864.873 95.0103 865.075 95.0103C868.176 95.011 871.276 95.0087 874.376 95.0052C877.427 95.0018 880.477 95.0016 883.527 95.0047C885.314 95.0064 887.101 95.0057 888.888 95.0015C890.217 94.9986 891.546 95.0003 892.875 95.0038C893.408 95.0045 893.941 95.0037 894.473 95.0012C901.161 94.9725 908.399 96.3659 913.548 101.009C913.79 101.253 914.028 101.5 914.26 101.751C914.643 102.149 915.042 102.508 915.461 102.867C916.364 103.651 917.236 104.462 918.105 105.283C919.365 106.471 920.633 107.65 921.911 108.819C922.961 109.78 924.006 110.747 925.051 111.714C925.403 112.039 925.756 112.365 926.109 112.69C927.522 113.993 928.93 115.303 930.333 116.616C931.216 117.441 932.101 118.263 932.989 119.081C935.597 121.487 938.182 123.916 940.767 126.345C941.248 126.797 941.729 127.247 942.21 127.698C942.998 128.437 943.784 129.179 944.568 129.922C944.898 130.235 945.228 130.546 945.559 130.857C950.06 135.195 953.708 141.779 953.99 148.126C953.998 148.646 953.999 149.166 953.997 149.687C953.998 149.985 953.998 149.985 953.998 150.289C953.999 150.952 953.999 151.616 953.998 152.279C953.998 152.755 953.999 153.232 953.999 153.708C954 155 954 156.292 953.999 157.584C953.998 158.935 953.999 160.286 953.999 161.637C954 163.904 953.999 166.172 953.998 168.439C953.997 171.064 953.997 173.689 953.999 176.314C954 178.566 954 180.817 953.999 183.069C953.999 184.415 953.999 185.761 953.999 187.107C954 188.371 954 189.634 953.998 190.898C953.998 191.363 953.998 191.828 953.999 192.293C953.999 192.925 953.998 193.557 953.997 194.189C953.998 194.469 953.998 194.469 953.999 194.755C953.995 196.017 953.995 196.017 953.75 196.262C953.261 196.284 952.771 196.29 952.282 196.29C952.049 196.29 952.049 196.29 951.812 196.291C951.288 196.292 950.763 196.291 950.239 196.29C949.865 196.291 949.491 196.291 949.117 196.292C948.098 196.293 947.079 196.292 946.06 196.291C944.996 196.291 943.932 196.291 942.868 196.292C941.081 196.292 939.294 196.292 937.507 196.291C935.438 196.289 933.369 196.29 931.299 196.291C929.526 196.292 927.753 196.292 925.98 196.292C924.919 196.291 923.859 196.291 922.798 196.292C921.801 196.293 920.805 196.292 919.808 196.291C919.441 196.291 919.074 196.291 918.707 196.291C918.208 196.292 917.709 196.291 917.211 196.29C916.791 196.29 916.791 196.29 916.363 196.29C915.743 196.262 915.743 196.262 915.523 196.042C915.502 195.676 915.496 195.31 915.496 194.944C915.496 194.704 915.495 194.465 915.495 194.218C915.495 193.952 915.496 193.685 915.497 193.411C915.497 193.131 915.496 192.85 915.496 192.562C915.496 191.78 915.497 190.998 915.498 190.216C915.499 189.375 915.498 188.533 915.498 187.692C915.498 186.232 915.499 184.773 915.5 183.313C915.502 181.203 915.502 179.093 915.503 176.983C915.503 173.56 915.505 170.137 915.507 166.714C915.509 163.388 915.51 160.062 915.511 156.736C915.511 156.531 915.511 156.327 915.511 156.115C915.512 155.088 915.512 154.06 915.512 153.032C915.514 144.501 915.518 135.969 915.523 127.437C905.881 127.437 896.238 127.437 886.304 127.437C886.304 157.841 886.304 188.245 886.304 219.57C908.634 219.57 930.963 219.57 953.969 219.57C953.969 244.217 953.97 244.217 951.593 246.836C948.919 249.345 945.369 249.951 941.83 249.943C941.605 249.943 941.379 249.943 941.147 249.944C940.389 249.945 939.63 249.944 938.871 249.943C938.321 249.944 937.771 249.944 937.22 249.945C936.018 249.946 934.816 249.946 933.614 249.946C931.814 249.945 930.014 249.946 928.215 249.947C925.147 249.949 922.08 249.949 919.013 249.95C915.904 249.95 912.795 249.95 909.686 249.951C909.489 249.952 909.293 249.952 909.091 249.952C908.292 249.952 907.492 249.952 906.693 249.953C897.227 249.956 887.761 249.958 878.295 249.959C873.582 249.959 868.869 249.96 864.156 249.961C849.04 249.964 833.924 249.966 818.808 249.967C818.086 249.967 817.363 249.967 816.641 249.967C815.192 249.967 813.742 249.967 812.293 249.967C810.597 249.967 808.9 249.967 807.204 249.967C806.718 249.967 806.232 249.967 805.747 249.967C790.151 249.968 774.556 249.971 758.96 249.977C747.755 249.98 736.549 249.984 725.344 249.985C725.113 249.985 724.883 249.985 724.645 249.985C719.587 249.985 714.528 249.985 709.47 249.985C707.66 249.986 705.849 249.986 704.039 249.986C703.589 249.986 703.139 249.986 702.688 249.986C695.512 249.986 688.337 249.988 681.161 249.991C673.933 249.994 666.705 249.996 659.477 249.994C658.478 249.994 657.479 249.993 656.48 249.993C656.186 249.993 656.186 249.993 655.886 249.993C652.787 249.992 649.687 249.994 646.587 249.997C643.539 249.999 640.49 249.999 637.441 249.997C635.654 249.995 633.868 249.996 632.081 249.999C630.753 250.001 629.426 250 628.098 249.997C627.565 249.997 627.032 249.997 626.499 249.999C622.781 250.011 619.299 249.795 615.752 248.568C615.56 248.502 615.368 248.437 615.17 248.369C612.343 247.365 609.747 246 607.513 243.978C607.309 243.794 607.105 243.611 606.895 243.423C606.333 242.914 605.777 242.398 605.223 241.881C604.757 241.447 604.288 241.015 603.82 240.583C603.461 240.251 603.102 239.919 602.743 239.588C602.026 238.925 601.31 238.263 600.593 237.601C600.355 237.381 600.117 237.161 599.879 236.941C599.702 236.778 599.702 236.778 599.522 236.611C599.165 236.281 598.808 235.952 598.451 235.622C598.333 235.513 598.215 235.404 598.094 235.292C597.856 235.072 597.617 234.852 597.379 234.631C596.79 234.087 596.2 233.542 595.61 232.999C594.197 231.695 592.789 230.385 591.385 229.072C590.503 228.247 589.617 227.425 588.729 226.606C588.38 226.283 588.03 225.96 587.68 225.636C587.412 225.389 587.143 225.142 586.875 224.895C586.431 224.486 585.987 224.076 585.544 223.665C585.338 223.477 585.338 223.477 585.129 223.285C584.933 223.103 584.933 223.103 584.734 222.918C584.62 222.813 584.506 222.708 584.388 222.599C583.858 222.058 583.39 221.473 582.908 220.889C583.05 220.889 583.192 220.888 583.339 220.887C586.875 220.869 590.41 220.849 593.946 220.826C595.656 220.815 597.366 220.805 599.076 220.797C605.958 220.762 612.836 220.707 619.714 220.468C619.965 220.46 620.217 220.452 620.476 220.443C626.724 220.229 626.724 220.229 632.915 219.405C633.121 219.368 633.326 219.33 633.538 219.292C638.163 218.412 642.62 217.135 645.96 213.633C646.112 213.483 646.264 213.332 646.42 213.177C652.533 206.8 652.304 196.133 652.135 187.896C651.939 180.803 650.813 174.047 645.469 168.969C635.964 160.781 618.098 162.814 606.416 162.405C606.151 162.396 605.886 162.387 605.613 162.377C602.915 162.283 600.218 162.19 597.521 162.102C592.303 161.932 587.087 161.741 581.874 161.464C581.372 161.438 580.87 161.412 580.368 161.386C577.944 161.263 575.529 161.104 573.12 160.797C572.936 160.776 572.751 160.756 572.562 160.734C570.948 160.507 569.816 159.851 568.669 158.702C567.349 156.778 567.303 154.769 567.529 152.504C567.827 150.917 568.419 149.889 569.662 148.862C571.177 147.912 572.596 147.714 574.353 147.529C574.578 147.503 574.803 147.476 575.035 147.449C579.498 146.954 583.994 146.974 588.477 146.978C589.066 146.978 589.654 146.978 590.242 146.977C591.467 146.977 592.692 146.977 593.917 146.978C595.32 146.98 596.723 146.979 598.126 146.978C599.345 146.977 600.565 146.977 601.784 146.977C602.506 146.978 603.228 146.978 603.95 146.977C606.542 146.975 609.133 146.976 611.723 147.103C611.976 147.115 611.976 147.115 612.233 147.127C615.112 147.289 618.65 147.494 620.742 149.725C622.003 151.591 621.871 154.107 622.013 156.242C630.93 156.242 639.848 156.242 649.035 156.242C649.031 143.806 649.031 143.806 643.198 133.166C629.504 121.575 600.121 125.954 583.8 126.2C583.552 126.204 583.304 126.207 583.049 126.21C577.725 126.286 572.408 126.538 567.09 126.777C567.074 123.755 567.063 120.733 567.056 117.711C567.052 116.308 567.047 114.904 567.04 113.501C567.033 112.145 567.029 110.789 567.027 109.433C567.026 108.917 567.024 108.402 567.02 107.886C566.994 103.936 566.998 100.862 569.781 97.8073C572.225 95.49 575.795 95.0784 579.01 95.0854ZM662.217 127.437C662.217 157.841 662.217 188.245 662.217 219.57C671.424 219.57 680.632 219.57 690.118 219.57C690.19 209.048 690.263 198.527 690.338 187.686C712.087 187.614 733.837 187.541 756.246 187.466C756.246 180.573 756.246 173.679 756.246 166.577C734.423 166.577 712.601 166.577 690.118 166.577C690.118 160.772 690.118 154.967 690.118 148.986C713.027 148.986 735.937 148.986 759.541 148.986C759.541 141.875 759.541 134.764 759.541 127.437C727.424 127.437 695.307 127.437 662.217 127.437ZM766.132 127.437C766.132 157.841 766.132 188.245 766.132 219.57C775.339 219.57 784.546 219.57 794.033 219.57C794.105 212.169 794.178 204.767 794.253 197.141C799.388 197.125 799.388 197.125 804.628 197.109C806.812 197.101 808.997 197.093 811.182 197.085C814.64 197.072 818.099 197.059 821.557 197.049C824.077 197.041 826.597 197.033 829.118 197.022C830.448 197.017 831.779 197.012 833.109 197.009C837.984 196.997 842.853 196.978 847.722 196.721C847.973 196.708 847.973 196.708 848.229 196.695C856.667 196.244 865.1 194.745 871.09 188.36C876.821 181.758 876.766 171.115 876.723 162.836C876.72 162.094 876.722 161.351 876.726 160.609C876.76 152.58 876.692 141.569 870.73 135.365C870.432 135.065 870.13 134.769 869.827 134.474C869.683 134.327 869.538 134.18 869.389 134.029C864.211 129.102 855.62 127.997 848.843 127.635C848.672 127.626 848.502 127.617 848.327 127.607C844.556 127.404 840.792 127.376 837.017 127.386C836.047 127.388 835.076 127.387 834.106 127.387C832.236 127.387 830.366 127.389 828.496 127.392C826.326 127.395 824.155 127.395 821.985 127.396C816.274 127.398 810.564 127.404 804.853 127.41C792.075 127.419 779.297 127.428 766.132 127.437Z" fill="#8E8E8E"/>
<path d="M579.01 95.0854C579.235 95.085 579.461 95.0846 579.693 95.0842C580.452 95.0831 581.211 95.0836 581.97 95.0842C582.52 95.0837 583.071 95.0832 583.621 95.0826C584.824 95.0815 586.026 95.081 587.229 95.0812C589.029 95.0815 590.83 95.0805 592.63 95.0792C595.698 95.0771 598.766 95.0761 601.835 95.0756C604.945 95.0752 608.055 95.0742 611.165 95.0727C611.362 95.0726 611.558 95.0725 611.76 95.0724C612.56 95.072 613.359 95.0716 614.159 95.0713C623.854 95.0665 633.549 95.0641 643.243 95.0621C646.387 95.0615 649.531 95.0608 652.675 95.0599C653.008 95.0599 653.008 95.0599 653.347 95.0598C654.244 95.0595 655.142 95.0593 656.039 95.0591C671.387 95.0551 686.735 95.0517 702.082 95.0501C703.288 95.05 704.494 95.0499 705.699 95.0497C705.939 95.0497 706.178 95.0497 706.424 95.0496C708.847 95.0494 711.27 95.0491 713.693 95.0489C714.179 95.0488 714.665 95.0487 715.151 95.0487C730.752 95.047 746.354 95.0421 761.956 95.0349C773.166 95.0298 784.375 95.025 795.585 95.0235C795.931 95.0234 795.931 95.0234 796.284 95.0234C801.345 95.0227 806.407 95.0222 811.468 95.022C813.505 95.0219 815.541 95.0218 817.578 95.0217C817.801 95.0216 818.023 95.0216 818.253 95.0216C825.432 95.0212 832.61 95.018 839.788 95.0135C847.02 95.009 854.251 95.0073 861.482 95.0094C862.482 95.0097 863.482 95.0099 864.482 95.0102C864.677 95.0102 864.873 95.0103 865.075 95.0103C868.176 95.011 871.276 95.0087 874.376 95.0052C877.427 95.0018 880.477 95.0016 883.527 95.0047C885.314 95.0064 887.101 95.0057 888.888 95.0015C890.217 94.9986 891.546 95.0003 892.875 95.0038C893.408 95.0045 893.941 95.0037 894.473 95.0012C901.161 94.9725 908.399 96.3659 913.548 101.009C913.79 101.253 914.028 101.5 914.26 101.751C914.643 102.149 915.042 102.508 915.461 102.867C916.364 103.651 917.236 104.462 918.105 105.283C919.365 106.471 920.633 107.65 921.911 108.819C922.961 109.78 924.006 110.747 925.051 111.714C925.403 112.039 925.756 112.365 926.109 112.69C927.522 113.993 928.93 115.303 930.333 116.616C931.216 117.441 932.101 118.263 932.989 119.081C935.597 121.487 938.182 123.916 940.767 126.345C941.248 126.797 941.729 127.247 942.21 127.698C942.998 128.437 943.784 129.179 944.568 129.922C944.898 130.235 945.228 130.546 945.559 130.857C950.06 135.195 953.708 141.779 953.99 148.126C953.998 148.646 953.999 149.166 953.997 149.687C953.998 149.985 953.998 149.985 953.998 150.289C953.999 150.952 953.999 151.616 953.998 152.279C953.998 152.755 953.999 153.232 953.999 153.708C954 155 954 156.292 953.999 157.584C953.998 158.935 953.999 160.286 953.999 161.637C954 163.904 953.999 166.172 953.998 168.439C953.997 171.064 953.997 173.689 953.999 176.314C954 178.566 954 180.817 953.999 183.069C953.999 184.415 953.999 185.761 953.999 187.107C954 188.371 954 189.634 953.998 190.898C953.998 191.363 953.998 191.828 953.999 192.293C953.999 192.925 953.998 193.557 953.997 194.189C953.998 194.469 953.998 194.469 953.999 194.755C953.995 196.017 953.995 196.017 953.75 196.262C953.261 196.284 952.771 196.29 952.282 196.29C952.049 196.29 952.049 196.29 951.812 196.291C951.288 196.292 950.763 196.291 950.239 196.29C949.865 196.291 949.491 196.291 949.117 196.292C948.098 196.293 947.079 196.292 946.06 196.291C944.996 196.291 943.932 196.291 942.868 196.292C941.081 196.292 939.294 196.292 937.507 196.291C935.438 196.289 933.369 196.29 931.299 196.291C929.526 196.292 927.753 196.292 925.98 196.292C924.919 196.291 923.859 196.291 922.798 196.292C921.801 196.293 920.805 196.292 919.808 196.291C919.441 196.291 919.074 196.291 918.707 196.291C918.208 196.292 917.709 196.291 917.211 196.29C916.791 196.29 916.791 196.29 916.363 196.29C915.743 196.262 915.743 196.262 915.523 196.042C915.502 195.676 915.496 195.31 915.496 194.944C915.496 194.704 915.495 194.465 915.495 194.218C915.495 193.952 915.496 193.685 915.497 193.411C915.497 193.131 915.496 192.85 915.496 192.562C915.496 191.78 915.497 190.998 915.498 190.216C915.499 189.375 915.498 188.533 915.498 187.692C915.498 186.232 915.499 184.773 915.5 183.313C915.502 181.203 915.502 179.093 915.503 176.983C915.503 173.56 915.505 170.137 915.507 166.714C915.509 163.388 915.51 160.062 915.511 156.736C915.511 156.531 915.511 156.327 915.511 156.115C915.512 155.088 915.512 154.06 915.512 153.032C915.514 144.501 915.518 135.969 915.523 127.437C905.881 127.437 896.238 127.437 886.304 127.437C886.304 157.841 886.304 188.245 886.304 219.57C908.634 219.57 930.963 219.57 953.969 219.57C953.969 244.217 953.97 244.217 951.593 246.836C948.919 249.345 945.369 249.951 941.83 249.943C941.605 249.943 941.379 249.943 941.147 249.944C940.389 249.945 939.63 249.944 938.871 249.943C938.321 249.944 937.771 249.944 937.22 249.945C936.018 249.946 934.816 249.946 933.614 249.946C931.814 249.945 930.014 249.946 928.215 249.947C925.147 249.949 922.08 249.949 919.013 249.95C915.904 249.95 912.795 249.95 909.686 249.951C909.489 249.952 909.293 249.952 909.091 249.952C908.292 249.952 907.492 249.952 906.693 249.953C897.227 249.956 887.761 249.958 878.295 249.959C873.582 249.959 868.869 249.96 864.156 249.961C849.04 249.964 833.924 249.966 818.808 249.967C818.086 249.967 817.363 249.967 816.641 249.967C815.192 249.967 813.742 249.967 812.293 249.967C810.597 249.967 808.9 249.967 807.204 249.967C806.718 249.967 806.232 249.967 805.747 249.967C790.151 249.968 774.556 249.971 758.96 249.977C747.755 249.98 736.549 249.984 725.344 249.985C725.113 249.985 724.883 249.985 724.645 249.985C719.587 249.985 714.528 249.985 709.47 249.985C707.66 249.986 705.849 249.986 704.039 249.986C703.589 249.986 703.139 249.986 702.688 249.986C695.512 249.986 688.337 249.988 681.161 249.991C673.933 249.994 666.705 249.996 659.477 249.994C658.478 249.994 657.479 249.993 656.48 249.993C656.186 249.993 656.186 249.993 655.886 249.993C652.787 249.992 649.687 249.994 646.587 249.997C643.539 249.999 640.49 249.999 637.441 249.997C635.654 249.995 633.868 249.996 632.081 249.999C630.753 250.001 629.426 250 628.098 249.997C627.565 249.997 627.032 249.997 626.499 249.999C622.781 250.011 619.299 249.795 615.752 248.568C615.56 248.502 615.368 248.437 615.17 248.369C612.343 247.365 609.747 246 607.513 243.978C607.309 243.794 607.105 243.611 606.895 243.423C606.333 242.914 605.777 242.398 605.223 241.881C604.757 241.447 604.288 241.015 603.82 240.583C603.461 240.251 603.102 239.919 602.743 239.588C602.026 238.925 601.31 238.263 600.593 237.601C600.355 237.381 600.117 237.161 599.879 236.941C599.702 236.778 599.702 236.778 599.522 236.611C599.165 236.281 598.808 235.952 598.451 235.622C598.333 235.513 598.215 235.404 598.094 235.292C597.856 235.072 597.617 234.852 597.379 234.631C596.79 234.087 596.2 233.542 595.61 232.999C594.197 231.695 592.789 230.385 591.385 229.072C590.503 228.247 589.617 227.425 588.729 226.606C588.38 226.283 588.03 225.96 587.68 225.636C587.412 225.389 587.143 225.142 586.875 224.895C586.431 224.486 585.987 224.076 585.544 223.665C585.338 223.477 585.338 223.477 585.129 223.285C584.933 223.103 584.933 223.103 584.734 222.918C584.62 222.813 584.506 222.708 584.388 222.599C583.858 222.058 583.39 221.473 582.908 220.889C583.05 220.889 583.192 220.888 583.339 220.887C586.875 220.869 590.41 220.849 593.946 220.826C595.656 220.815 597.366 220.805 599.076 220.797C605.958 220.762 612.836 220.707 619.714 220.468C619.965 220.46 620.217 220.452 620.476 220.443C626.724 220.229 626.724 220.229 632.915 219.405C633.121 219.368 633.326 219.33 633.538 219.292C638.163 218.412 642.62 217.135 645.96 213.633C646.112 213.483 646.264 213.332 646.42 213.177C652.533 206.8 652.304 196.133 652.135 187.896C651.939 180.803 650.813 174.047 645.469 168.969C635.964 160.781 618.098 162.814 606.416 162.405C606.151 162.396 605.886 162.387 605.613 162.377C602.915 162.283 600.218 162.19 597.521 162.102C592.303 161.932 587.087 161.741 581.874 161.464C581.372 161.438 580.87 161.412 580.368 161.386C577.944 161.263 575.529 161.104 573.12 160.797C572.936 160.776 572.751 160.756 572.562 160.734C570.948 160.507 569.816 159.851 568.669 158.702C567.349 156.778 567.303 154.769 567.529 152.504C567.827 150.917 568.419 149.889 569.662 148.862C571.177 147.912 572.596 147.714 574.353 147.529C574.578 147.503 574.803 147.476 575.035 147.449C579.498 146.954 583.994 146.974 588.477 146.978C589.066 146.978 589.654 146.978 590.242 146.977C591.467 146.977 592.692 146.977 593.917 146.978C595.32 146.98 596.723 146.979 598.126 146.978C599.345 146.977 600.565 146.977 601.784 146.977C602.506 146.978 603.228 146.978 603.95 146.977C606.542 146.975 609.133 146.976 611.723 147.103C611.976 147.115 611.976 147.115 612.233 147.127C615.112 147.289 618.65 147.494 620.742 149.725C622.003 151.591 621.871 154.107 622.013 156.242C630.93 156.242 639.848 156.242 649.035 156.242C649.031 143.806 649.031 143.806 643.198 133.166C629.504 121.575 600.121 125.954 583.8 126.2C583.552 126.204 583.304 126.207 583.049 126.21C577.725 126.286 572.408 126.538 567.09 126.777C567.074 123.755 567.063 120.733 567.056 117.711C567.052 116.308 567.047 114.904 567.04 113.501C567.033 112.145 567.029 110.789 567.027 109.433C567.026 108.917 567.024 108.402 567.02 107.886C566.994 103.936 566.998 100.862 569.781 97.8073C572.225 95.49 575.795 95.0784 579.01 95.0854ZM662.217 127.437C662.217 157.841 662.217 188.245 662.217 219.57C671.424 219.57 680.632 219.57 690.118 219.57C690.19 209.048 690.263 198.527 690.338 187.686C712.087 187.614 733.837 187.541 756.246 187.466C756.246 180.573 756.246 173.679 756.246 166.577C734.423 166.577 712.601 166.577 690.118 166.577C690.118 160.772 690.118 154.967 690.118 148.986C713.027 148.986 735.937 148.986 759.541 148.986C759.541 141.875 759.541 134.764 759.541 127.437C727.424 127.437 695.307 127.437 662.217 127.437ZM766.132 127.437C766.132 157.841 766.132 188.245 766.132 219.57C775.339 219.57 784.546 219.57 794.033 219.57C794.105 212.169 794.178 204.767 794.253 197.141C799.388 197.125 799.388 197.125 804.628 197.109C806.812 197.101 808.997 197.093 811.182 197.085C814.64 197.072 818.099 197.059 821.557 197.049C824.077 197.041 826.597 197.033 829.118 197.022C830.448 197.017 831.779 197.012 833.109 197.009C837.984 196.997 842.853 196.978 847.722 196.721C847.973 196.708 847.973 196.708 848.229 196.695C856.667 196.244 865.1 194.745 871.09 188.36C876.821 181.758 876.766 171.115 876.723 162.836C876.72 162.094 876.722 161.351 876.726 160.609C876.76 152.58 876.692 141.569 870.73 135.365C870.432 135.065 870.13 134.769 869.827 134.474C869.683 134.327 869.538 134.18 869.389 134.029C864.211 129.102 855.62 127.997 848.843 127.635C848.672 127.626 848.502 127.617 848.327 127.607C844.556 127.404 840.792 127.376 837.017 127.386C836.047 127.388 835.076 127.387 834.106 127.387C832.236 127.387 830.366 127.389 828.496 127.392C826.326 127.395 824.155 127.395 821.985 127.396C816.274 127.398 810.564 127.404 804.853 127.41C792.075 127.419 779.297 127.428 766.132 127.437Z" fill="#8E8E8E"/>
<path d="M579.01 95.0854C579.235 95.085 579.461 95.0846 579.693 95.0842C580.452 95.0831 581.211 95.0836 581.97 95.0842C582.52 95.0837 583.071 95.0832 583.621 95.0826C584.824 95.0815 586.026 95.081 587.229 95.0812C589.029 95.0815 590.83 95.0805 592.63 95.0792C595.698 95.0771 598.766 95.0761 601.835 95.0756C604.945 95.0752 608.055 95.0742 611.165 95.0727C611.362 95.0726 611.558 95.0725 611.76 95.0724C612.56 95.072 613.359 95.0716 614.159 95.0713C623.854 95.0665 633.549 95.0641 643.243 95.0621C646.387 95.0615 649.531 95.0608 652.675 95.0599C653.008 95.0599 653.008 95.0599 653.347 95.0598C654.244 95.0595 655.142 95.0593 656.039 95.0591C671.387 95.0551 686.735 95.0517 702.082 95.0501C703.288 95.05 704.494 95.0499 705.699 95.0497C705.939 95.0497 706.178 95.0497 706.424 95.0496C708.847 95.0494 711.27 95.0491 713.693 95.0489C714.179 95.0488 714.665 95.0487 715.151 95.0487C730.752 95.047 746.354 95.0421 761.956 95.0349C773.166 95.0298 784.375 95.025 795.585 95.0235C795.931 95.0234 795.931 95.0234 796.284 95.0234C801.345 95.0227 806.407 95.0222 811.468 95.022C813.505 95.0219 815.541 95.0218 817.578 95.0217C817.801 95.0216 818.023 95.0216 818.253 95.0216C825.432 95.0212 832.61 95.018 839.788 95.0135C847.02 95.009 854.251 95.0073 861.482 95.0094C862.482 95.0097 863.482 95.0099 864.482 95.0102C864.677 95.0102 864.873 95.0103 865.075 95.0103C868.176 95.011 871.276 95.0087 874.376 95.0052C877.427 95.0018 880.477 95.0016 883.527 95.0047C885.314 95.0064 887.101 95.0057 888.888 95.0015C890.217 94.9986 891.546 95.0003 892.875 95.0038C893.408 95.0045 893.941 95.0037 894.473 95.0012C901.161 94.9725 908.399 96.3659 913.548 101.009C913.79 101.253 914.028 101.5 914.26 101.751C914.643 102.149 915.042 102.508 915.461 102.867C916.364 103.651 917.236 104.462 918.105 105.283C919.365 106.471 920.633 107.65 921.911 108.819C922.961 109.78 924.006 110.747 925.051 111.714C925.403 112.039 925.756 112.365 926.109 112.69C927.522 113.993 928.93 115.303 930.333 116.616C931.216 117.441 932.101 118.263 932.989 119.081C935.597 121.487 938.182 123.916 940.767 126.345C941.248 126.797 941.729 127.247 942.21 127.698C942.998 128.437 943.784 129.179 944.568 129.922C944.898 130.235 945.228 130.546 945.559 130.857C950.06 135.195 953.708 141.779 953.99 148.126C953.998 148.646 953.999 149.166 953.997 149.687C953.998 149.985 953.998 149.985 953.998 150.289C953.999 150.952 953.999 151.616 953.998 152.279C953.998 152.755 953.999 153.232 953.999 153.708C954 155 954 156.292 953.999 157.584C953.998 158.935 953.999 160.286 953.999 161.637C954 163.904 953.999 166.172 953.998 168.439C953.997 171.064 953.997 173.689 953.999 176.314C954 178.566 954 180.817 953.999 183.069C953.999 184.415 953.999 185.761 953.999 187.107C954 188.371 954 189.634 953.998 190.898C953.998 191.363 953.998 191.828 953.999 192.293C953.999 192.925 953.998 193.557 953.997 194.189C953.998 194.469 953.998 194.469 953.999 194.755C953.995 196.017 953.995 196.017 953.75 196.262C953.261 196.284 952.771 196.29 952.282 196.29C952.049 196.29 952.049 196.29 951.812 196.291C951.288 196.292 950.763 196.291 950.239 196.29C949.865 196.291 949.491 196.291 949.117 196.292C948.098 196.293 947.079 196.292 946.06 196.291C944.996 196.291 943.932 196.291 942.868 196.292C941.081 196.292 939.294 196.292 937.507 196.291C935.438 196.289 933.369 196.29 931.299 196.291C929.526 196.292 927.753 196.292 925.98 196.292C924.919 196.291 923.859 196.291 922.798 196.292C921.801 196.293 920.805 196.292 919.808 196.291C919.441 196.291 919.074 196.291 918.707 196.291C918.208 196.292 917.709 196.291 917.211 196.29C916.791 196.29 916.791 196.29 916.363 196.29C915.743 196.262 915.743 196.262 915.523 196.042C915.502 195.676 915.496 195.31 915.496 194.944C915.496 194.704 915.495 194.465 915.495 194.218C915.495 193.952 915.496 193.685 915.497 193.411C915.497 193.131 915.496 192.85 915.496 192.562C915.496 191.78 915.497 190.998 915.498 190.216C915.499 189.375 915.498 188.533 915.498 187.692C915.498 186.232 915.499 184.773 915.5 183.313C915.502 181.203 915.502 179.093 915.503 176.983C915.503 173.56 915.505 170.137 915.507 166.714C915.509 163.388 915.51 160.062 915.511 156.736C915.511 156.531 915.511 156.327 915.511 156.115C915.512 155.088 915.512 154.06 915.512 153.032C915.514 144.501 915.518 135.969 915.523 127.437C905.881 127.437 896.238 127.437 886.304 127.437C886.304 157.841 886.304 188.245 886.304 219.57C908.634 219.57 930.963 219.57 953.969 219.57C953.969 244.217 953.97 244.217 951.593 246.836C948.919 249.345 945.369 249.951 941.83 249.943C941.605 249.943 941.379 249.943 941.147 249.944C940.389 249.945 939.63 249.944 938.871 249.943C938.321 249.944 937.771 249.944 937.22 249.945C936.018 249.946 934.816 249.946 933.614 249.946C931.814 249.945 930.014 249.946 928.215 249.947C925.147 249.949 922.08 249.949 919.013 249.95C915.904 249.95 912.795 249.95 909.686 249.951C909.489 249.952 909.293 249.952 909.091 249.952C908.292 249.952 907.492 249.952 906.693 249.953C897.227 249.956 887.761 249.958 878.295 249.959C873.582 249.959 868.869 249.96 864.156 249.961C849.04 249.964 833.924 249.966 818.808 249.967C818.086 249.967 817.363 249.967 816.641 249.967C815.192 249.967 813.742 249.967 812.293 249.967C810.597 249.967 808.9 249.967 807.204 249.967C806.718 249.967 806.232 249.967 805.747 249.967C790.151 249.968 774.556 249.971 758.96 249.977C747.755 249.98 736.549 249.984 725.344 249.985C725.113 249.985 724.883 249.985 724.645 249.985C719.587 249.985 714.528 249.985 709.47 249.985C707.66 249.986 705.849 249.986 704.039 249.986C703.589 249.986 703.139 249.986 702.688 249.986C695.512 249.986 688.337 249.988 681.161 249.991C673.933 249.994 666.705 249.996 659.477 249.994C658.478 249.994 657.479 249.993 656.48 249.993C656.186 249.993 656.186 249.993 655.886 249.993C652.787 249.992 649.687 249.994 646.587 249.997C643.539 249.999 640.49 249.999 637.441 249.997C635.654 249.995 633.868 249.996 632.081 249.999C630.753 250.001 629.426 250 628.098 249.997C627.565 249.997 627.032 249.997 626.499 249.999C622.781 250.011 619.299 249.795 615.752 248.568C615.56 248.502 615.368 248.437 615.17 248.369C612.343 247.365 609.747 246 607.513 243.978C607.309 243.794 607.105 243.611 606.895 243.423C606.333 242.914 605.777 242.398 605.223 241.881C604.757 241.447 604.288 241.015 603.82 240.583C603.461 240.251 603.102 239.919 602.743 239.588C602.026 238.925 601.31 238.263 600.593 237.601C600.355 237.381 600.117 237.161 599.879 236.941C599.702 236.778 599.702 236.778 599.522 236.611C599.165 236.281 598.808 235.952 598.451 235.622C598.333 235.513 598.215 235.404 598.094 235.292C597.856 235.072 597.617 234.852 597.379 234.631C596.79 234.087 596.2 233.542 595.61 232.999C594.197 231.695 592.789 230.385 591.385 229.072C590.503 228.247 589.617 227.425 588.729 226.606C588.38 226.283 588.03 225.96 587.68 225.636C587.412 225.389 587.143 225.142 586.875 224.895C586.431 224.486 585.987 224.076 585.544 223.665C585.338 223.477 585.338 223.477 585.129 223.285C584.933 223.103 584.933 223.103 584.734 222.918C584.62 222.813 584.506 222.708 584.388 222.599C583.858 222.058 583.39 221.473 582.908 220.889C583.05 220.889 583.192 220.888 583.339 220.887C586.875 220.869 590.41 220.849 593.946 220.826C595.656 220.815 597.366 220.805 599.076 220.797C605.958 220.762 612.836 220.707 619.714 220.468C619.965 220.46 620.217 220.452 620.476 220.443C626.724 220.229 626.724 220.229 632.915 219.405C633.121 219.368 633.326 219.33 633.538 219.292C638.163 218.412 642.62 217.135 645.96 213.633C646.112 213.483 646.264 213.332 646.42 213.177C652.533 206.8 652.304 196.133 652.135 187.896C651.939 180.803 650.813 174.047 645.469 168.969C635.964 160.781 618.098 162.814 606.416 162.405C606.151 162.396 605.886 162.387 605.613 162.377C602.915 162.283 600.218 162.19 597.521 162.102C592.303 161.932 587.087 161.741 581.874 161.464C581.372 161.438 580.87 161.412 580.368 161.386C577.944 161.263 575.529 161.104 573.12 160.797C572.936 160.776 572.751 160.756 572.562 160.734C570.948 160.507 569.816 159.851 568.669 158.702C567.349 156.778 567.303 154.769 567.529 152.504C567.827 150.917 568.419 149.889 569.662 148.862C571.177 147.912 572.596 147.714 574.353 147.529C574.578 147.503 574.803 147.476 575.035 147.449C579.498 146.954 583.994 146.974 588.477 146.978C589.066 146.978 589.654 146.978 590.242 146.977C591.467 146.977 592.692 146.977 593.917 146.978C595.32 146.98 596.723 146.979 598.126 146.978C599.345 146.977 600.565 146.977 601.784 146.977C602.506 146.978 603.228 146.978 603.95 146.977C606.542 146.975 609.133 146.976 611.723 147.103C611.976 147.115 611.976 147.115 612.233 147.127C615.112 147.289 618.65 147.494 620.742 149.725C622.003 151.591 621.871 154.107 622.013 156.242C630.93 156.242 639.848 156.242 649.035 156.242C649.031 143.806 649.031 143.806 643.198 133.166C629.504 121.575 600.121 125.954 583.8 126.2C583.552 126.204 583.304 126.207 583.049 126.21C577.725 126.286 572.408 126.538 567.09 126.777C567.074 123.755 567.063 120.733 567.056 117.711C567.052 116.308 567.047 114.904 567.04 113.501C567.033 112.145 567.029 110.789 567.027 109.433C567.026 108.917 567.024 108.402 567.02 107.886C566.994 103.936 566.998 100.862 569.781 97.8073C572.225 95.49 575.795 95.0784 579.01 95.0854ZM662.217 127.437C662.217 157.841 662.217 188.245 662.217 219.57C671.424 219.57 680.632 219.57 690.118 219.57C690.19 209.048 690.263 198.527 690.338 187.686C712.087 187.614 733.837 187.541 756.246 187.466C756.246 180.573 756.246 173.679 756.246 166.577C734.423 166.577 712.601 166.577 690.118 166.577C690.118 160.772 690.118 154.967 690.118 148.986C713.027 148.986 735.937 148.986 759.541 148.986C759.541 141.875 759.541 134.764 759.541 127.437C727.424 127.437 695.307 127.437 662.217 127.437ZM766.132 127.437C766.132 157.841 766.132 188.245 766.132 219.57C775.339 219.57 784.546 219.57 794.033 219.57C794.105 212.169 794.178 204.767 794.253 197.141C799.388 197.125 799.388 197.125 804.628 197.109C806.812 197.101 808.997 197.093 811.182 197.085C814.64 197.072 818.099 197.059 821.557 197.049C824.077 197.041 826.597 197.033 829.118 197.022C830.448 197.017 831.779 197.012 833.109 197.009C837.984 196.997 842.853 196.978 847.722 196.721C847.973 196.708 847.973 196.708 848.229 196.695C856.667 196.244 865.1 194.745 871.09 188.36C876.821 181.758 876.766 171.115 876.723 162.836C876.72 162.094 876.722 161.351 876.726 160.609C876.76 152.58 876.692 141.569 870.73 135.365C870.432 135.065 870.13 134.769 869.827 134.474C869.683 134.327 869.538 134.18 869.389 134.029C864.211 129.102 855.62 127.997 848.843 127.635C848.672 127.626 848.502 127.617 848.327 127.607C844.556 127.404 840.792 127.376 837.017 127.386C836.047 127.388 835.076 127.387 834.106 127.387C832.236 127.387 830.366 127.389 828.496 127.392C826.326 127.395 824.155 127.395 821.985 127.396C816.274 127.398 810.564 127.404 804.853 127.41C792.075 127.419 779.297 127.428 766.132 127.437Z" fill="#8E8E8E"/>
<path d="M794.033 150.305C803.933 150.288 803.933 150.288 808.127 150.284C811.006 150.281 813.885 150.278 816.765 150.272C818.863 150.268 820.962 150.265 823.06 150.264C824.168 150.264 825.275 150.262 826.383 150.259C830.515 150.247 834.638 150.254 838.764 150.501C838.986 150.513 838.986 150.513 839.213 150.527C844.811 150.861 844.811 150.861 846.828 152.972C849.527 156.45 849.054 162.427 848.572 166.55C848.372 167.904 848.059 169.103 847.419 170.315C847.345 170.457 847.271 170.598 847.195 170.744C846.258 172.271 844.642 173.072 842.97 173.572C841.732 173.832 840.516 173.907 839.256 173.958C838.937 173.972 838.937 173.972 838.612 173.986C836.472 174.071 834.334 174.083 832.193 174.078C831.772 174.078 831.351 174.078 830.931 174.078C829.806 174.078 828.682 174.077 827.557 174.076C826.376 174.074 825.194 174.074 824.013 174.074C821.783 174.073 819.553 174.071 817.323 174.069C814.305 174.066 811.286 174.065 808.267 174.064C803.523 174.062 798.778 174.057 794.033 174.053C794.033 166.217 794.033 158.38 794.033 150.305Z" fill="#8E8E8E"/>
<path d="M567.09 182.629C571.025 182.562 574.949 182.755 578.878 182.933C579.843 182.976 580.808 183.018 581.773 183.06C584.018 183.158 586.263 183.258 588.508 183.357C591.349 183.483 594.191 183.609 597.032 183.733C597.985 183.775 598.938 183.817 599.89 183.86C600.961 183.908 602.033 183.955 603.104 184.002C603.276 184.009 603.448 184.017 603.625 184.025C605.613 184.111 607.601 184.18 609.59 184.224C609.781 184.228 609.972 184.232 610.169 184.237C611.08 184.257 611.99 184.275 612.901 184.289C614.607 184.321 616.294 184.406 617.991 184.592C618.151 184.609 618.311 184.627 618.476 184.645C620.737 184.912 622.953 185.377 624.43 187.247C625.763 189.625 625.508 192.832 624.869 195.382C624.377 196.851 623.722 197.847 622.377 198.641C619.985 199.705 617.252 199.803 614.672 199.85C614.45 199.854 614.227 199.859 613.997 199.864C613.255 199.878 612.513 199.891 611.77 199.904C611.51 199.908 611.25 199.913 610.982 199.918C601.401 200.082 591.816 200.068 582.235 199.904C581.975 199.9 581.715 199.895 581.448 199.891C571.234 199.716 571.234 199.716 568.918 197.7C567.242 195.922 566.96 193.875 567.004 191.519C567.005 191.263 567.007 191.008 567.008 190.744C567.013 189.936 567.024 189.127 567.035 188.319C567.039 187.767 567.043 187.216 567.047 186.664C567.057 185.319 567.071 183.974 567.09 182.629Z" fill="#8E8E8E"/>
<path d="M593.302 1045.56C593.131 1045.02 592.9 1044.54 592.61 1044.12C592.326 1043.68 591.985 1043.32 591.589 1043.01C591.192 1042.71 590.739 1042.47 590.23 1042.31C589.727 1042.15 589.174 1042.07 588.57 1042.07C587.546 1042.07 586.623 1042.34 585.8 1042.86C584.978 1043.39 584.327 1044.16 583.847 1045.18C583.374 1046.19 583.137 1047.43 583.137 1048.9C583.137 1050.37 583.377 1051.62 583.856 1052.64C584.336 1053.66 584.993 1054.43 585.827 1054.95C586.662 1055.48 587.612 1055.75 588.677 1055.75C589.665 1055.75 590.526 1055.54 591.26 1055.14C592 1054.74 592.571 1054.17 592.974 1053.44C593.382 1052.7 593.586 1051.83 593.586 1050.83L594.297 1050.96H589.094V1048.7H596.241V1050.76C596.241 1052.29 595.915 1053.62 595.264 1054.74C594.619 1055.86 593.725 1056.72 592.583 1057.33C591.447 1057.94 590.145 1058.25 588.677 1058.25C587.031 1058.25 585.587 1057.87 584.344 1057.11C583.107 1056.35 582.143 1055.28 581.45 1053.89C580.758 1052.49 580.412 1050.84 580.412 1048.92C580.412 1047.47 580.613 1046.17 581.015 1045.01C581.418 1043.86 581.983 1042.88 582.711 1042.07C583.445 1041.26 584.306 1040.64 585.294 1040.22C586.289 1039.79 587.375 1039.57 588.553 1039.57C589.535 1039.57 590.449 1039.71 591.296 1040C592.148 1040.29 592.906 1040.71 593.569 1041.24C594.237 1041.77 594.791 1042.4 595.229 1043.14C595.667 1043.87 595.963 1044.67 596.116 1045.56H593.302Z" fill="black"/>
<path d="M644.795 1039.57C645.606 1039.58 646.405 1039.72 647.192 1040.01C647.979 1040.3 648.689 1040.78 649.322 1041.43C649.962 1042.09 650.471 1042.98 650.849 1044.1C651.234 1045.21 651.429 1046.59 651.435 1048.25C651.435 1049.84 651.276 1051.26 650.956 1052.5C650.636 1053.74 650.178 1054.79 649.58 1055.64C648.988 1056.49 648.269 1057.14 647.423 1057.58C646.576 1058.03 645.623 1058.25 644.564 1058.25C643.481 1058.25 642.519 1058.04 641.679 1057.61C640.838 1057.18 640.155 1056.59 639.628 1055.84C639.101 1055.09 638.773 1054.22 638.642 1053.23H641.35C641.528 1054.01 641.889 1054.65 642.433 1055.13C642.984 1055.61 643.694 1055.85 644.564 1055.85C645.896 1055.85 646.934 1055.27 647.68 1054.11C648.426 1052.95 648.802 1051.32 648.808 1049.23H648.665C648.358 1049.74 647.973 1050.18 647.511 1050.54C647.056 1050.91 646.544 1051.19 645.975 1051.39C645.407 1051.6 644.801 1051.7 644.156 1051.7C643.108 1051.7 642.155 1051.44 641.297 1050.92C640.439 1050.41 639.755 1049.7 639.246 1048.8C638.737 1047.9 638.483 1046.88 638.483 1045.72C638.483 1044.57 638.743 1043.53 639.264 1042.6C639.791 1041.66 640.525 1040.92 641.466 1040.38C642.413 1039.83 643.522 1039.56 644.795 1039.57ZM644.804 1041.88C644.111 1041.88 643.487 1042.05 642.93 1042.39C642.38 1042.73 641.945 1043.19 641.625 1043.77C641.306 1044.34 641.146 1044.98 641.146 1045.69C641.146 1046.39 641.3 1047.03 641.608 1047.6C641.921 1048.17 642.347 1048.62 642.886 1048.96C643.431 1049.29 644.052 1049.46 644.75 1049.46C645.271 1049.46 645.757 1049.36 646.206 1049.16C646.656 1048.96 647.05 1048.68 647.387 1048.32C647.724 1047.96 647.988 1047.55 648.177 1047.1C648.367 1046.64 648.461 1046.16 648.461 1045.66C648.461 1044.99 648.301 1044.37 647.982 1043.8C647.668 1043.22 647.236 1042.76 646.686 1042.41C646.135 1042.06 645.508 1041.88 644.804 1041.88Z" fill="black"/>
<path d="M699.892 1058.25C698.62 1058.25 697.495 1058.03 696.519 1057.59C695.548 1057.15 694.788 1056.55 694.237 1055.78C693.687 1055.01 693.415 1054.14 693.42 1053.15C693.415 1052.38 693.571 1051.68 693.891 1051.03C694.217 1050.38 694.657 1049.84 695.214 1049.41C695.77 1048.97 696.392 1048.69 697.078 1048.57V1048.47C696.173 1048.25 695.448 1047.76 694.903 1047.01C694.359 1046.26 694.089 1045.39 694.095 1044.42C694.089 1043.49 694.335 1042.66 694.832 1041.93C695.335 1041.2 696.025 1040.62 696.901 1040.2C697.777 1039.78 698.774 1039.57 699.892 1039.57C700.999 1039.57 701.988 1039.78 702.858 1040.21C703.734 1040.63 704.423 1041.21 704.926 1041.94C705.429 1042.67 705.684 1043.49 705.69 1044.42C705.684 1045.39 705.406 1046.26 704.855 1047.01C704.305 1047.76 703.589 1048.25 702.707 1048.47V1048.57C703.387 1048.69 704 1048.97 704.544 1049.41C705.095 1049.84 705.533 1050.38 705.858 1051.03C706.19 1051.68 706.358 1052.38 706.364 1053.15C706.358 1054.14 706.08 1055.01 705.53 1055.78C704.979 1056.55 704.216 1057.15 703.239 1057.59C702.269 1058.03 701.153 1058.25 699.892 1058.25ZM699.892 1056C700.644 1056 701.295 1055.88 701.846 1055.63C702.396 1055.38 702.822 1055.02 703.124 1054.57C703.426 1054.12 703.58 1053.58 703.586 1052.98C703.58 1052.34 703.414 1051.78 703.088 1051.3C702.769 1050.81 702.334 1050.43 701.783 1050.15C701.233 1049.87 700.603 1049.73 699.892 1049.73C699.176 1049.73 698.54 1049.87 697.984 1050.15C697.427 1050.43 696.989 1050.81 696.67 1051.3C696.35 1051.78 696.193 1052.34 696.199 1052.98C696.193 1053.58 696.338 1054.12 696.634 1054.57C696.936 1055.02 697.365 1055.38 697.922 1055.63C698.478 1055.88 699.135 1056 699.892 1056ZM699.892 1047.54C700.496 1047.54 701.032 1047.42 701.499 1047.18C701.967 1046.94 702.334 1046.6 702.6 1046.17C702.872 1045.73 703.011 1045.23 703.017 1044.65C703.011 1044.08 702.875 1043.58 702.609 1043.16C702.349 1042.73 701.985 1042.4 701.517 1042.17C701.049 1041.93 700.508 1041.82 699.892 1041.82C699.265 1041.82 698.715 1041.93 698.241 1042.17C697.774 1042.4 697.41 1042.73 697.149 1043.16C696.889 1043.58 696.761 1044.08 696.767 1044.65C696.761 1045.23 696.892 1045.73 697.158 1046.17C697.424 1046.6 697.791 1046.94 698.259 1047.18C698.732 1047.42 699.277 1047.54 699.892 1047.54Z" fill="black"/>
<path d="M749.362 1058L757.298 1042.3V1042.17H748.119V1039.82H760.139V1042.25L752.229 1058H749.362Z" fill="black"/>
<path d="M810.097 1058.25C809.286 1058.24 808.487 1058.09 807.7 1057.8C806.918 1057.52 806.208 1057.05 805.569 1056.38C804.93 1055.72 804.418 1054.83 804.033 1053.71C803.654 1052.59 803.465 1051.2 803.465 1049.52C803.465 1047.94 803.622 1046.53 803.935 1045.3C804.255 1044.06 804.714 1043.03 805.311 1042.18C805.909 1041.33 806.631 1040.68 807.478 1040.24C808.324 1039.79 809.274 1039.57 810.327 1039.57C811.411 1039.57 812.372 1039.78 813.213 1040.21C814.053 1040.63 814.734 1041.22 815.255 1041.98C815.781 1042.73 816.116 1043.58 816.258 1044.54H813.55C813.367 1043.78 813.003 1043.17 812.458 1042.69C811.914 1042.21 811.203 1041.97 810.327 1041.97C808.996 1041.97 807.957 1042.55 807.211 1043.71C806.471 1044.87 806.099 1046.48 806.093 1048.55H806.226C806.54 1048.03 806.924 1047.59 807.38 1047.23C807.842 1046.86 808.357 1046.58 808.925 1046.39C809.499 1046.19 810.103 1046.09 810.736 1046.09C811.789 1046.09 812.742 1046.34 813.594 1046.86C814.453 1047.37 815.136 1048.07 815.645 1048.97C816.154 1049.87 816.409 1050.9 816.409 1052.06C816.409 1053.22 816.145 1054.27 815.619 1055.21C815.098 1056.15 814.364 1056.9 813.417 1057.45C812.47 1057.99 811.363 1058.26 810.097 1058.25ZM810.088 1055.94C810.786 1055.94 811.411 1055.77 811.961 1055.43C812.511 1055.08 812.946 1054.62 813.266 1054.04C813.586 1053.46 813.745 1052.81 813.745 1052.1C813.745 1051.4 813.589 1050.76 813.275 1050.19C812.967 1049.61 812.541 1049.16 811.996 1048.82C811.458 1048.48 810.842 1048.31 810.15 1048.31C809.623 1048.31 809.135 1048.41 808.685 1048.62C808.241 1048.82 807.85 1049.1 807.513 1049.45C807.176 1049.81 806.909 1050.21 806.714 1050.68C806.525 1051.13 806.43 1051.61 806.43 1052.12C806.43 1052.8 806.587 1053.43 806.901 1054.01C807.22 1054.59 807.655 1055.06 808.206 1055.42C808.762 1055.77 809.389 1055.94 810.088 1055.94Z" fill="black"/>
<path d="M919.75 1058.25C918.638 1058.25 917.637 1058.04 916.75 1057.61C915.868 1057.18 915.163 1056.59 914.637 1055.83C914.11 1055.08 913.829 1054.22 913.793 1053.26H916.457C916.522 1054.04 916.868 1054.68 917.495 1055.19C918.123 1055.69 918.874 1055.94 919.75 1055.94C920.449 1055.94 921.067 1055.78 921.606 1055.46C922.15 1055.14 922.576 1054.69 922.884 1054.12C923.198 1053.55 923.355 1052.9 923.355 1052.18C923.355 1051.44 923.195 1050.78 922.875 1050.2C922.556 1049.62 922.115 1049.16 921.553 1048.83C920.996 1048.5 920.357 1048.33 919.635 1048.32C919.085 1048.32 918.531 1048.42 917.975 1048.61C917.418 1048.8 916.969 1049.05 916.625 1049.35L914.113 1048.98L915.134 1039.82H925.13V1042.17H917.415L916.838 1047.26H916.945C917.3 1046.91 917.771 1046.63 918.357 1046.4C918.948 1046.17 919.582 1046.05 920.256 1046.05C921.363 1046.05 922.349 1046.31 923.213 1046.84C924.083 1047.37 924.766 1048.09 925.263 1049C925.767 1049.9 926.015 1050.95 926.009 1052.12C926.015 1053.3 925.749 1054.35 925.21 1055.27C924.678 1056.2 923.938 1056.93 922.991 1057.46C922.05 1057.99 920.97 1058.25 919.75 1058.25Z" fill="black"/>
<path d="M967.367 1054.45V1052.23L975.224 1039.82H976.973V1043.09H975.863L970.244 1051.98V1052.12H981.012V1054.45H967.367ZM975.988 1058V1053.77L976.005 1052.76V1039.82H978.607V1058H975.988Z" fill="black"/>
<path d="M1029.08 1058.25C1027.86 1058.25 1026.77 1058.04 1025.81 1057.62C1024.86 1057.2 1024.1 1056.62 1023.55 1055.87C1023 1055.12 1022.7 1054.25 1022.66 1053.26H1025.45C1025.48 1053.8 1025.66 1054.27 1025.99 1054.66C1026.32 1055.05 1026.75 1055.35 1027.29 1055.57C1027.82 1055.78 1028.41 1055.89 1029.06 1055.89C1029.78 1055.89 1030.41 1055.76 1030.96 1055.51C1031.52 1055.27 1031.95 1054.92 1032.27 1054.48C1032.58 1054.03 1032.74 1053.51 1032.74 1052.92C1032.74 1052.31 1032.58 1051.78 1032.27 1051.31C1031.96 1050.85 1031.51 1050.48 1030.91 1050.21C1030.32 1049.95 1029.6 1049.81 1028.76 1049.81H1027.22V1047.58H1028.76C1029.43 1047.58 1030.03 1047.46 1030.53 1047.21C1031.05 1046.97 1031.45 1046.63 1031.74 1046.2C1032.03 1045.76 1032.18 1045.25 1032.18 1044.67C1032.18 1044.1 1032.05 1043.61 1031.8 1043.2C1031.55 1042.78 1031.19 1042.45 1030.73 1042.22C1030.27 1041.98 1029.74 1041.86 1029.11 1041.86C1028.52 1041.86 1027.97 1041.97 1027.45 1042.19C1026.95 1042.4 1026.53 1042.71 1026.21 1043.11C1025.89 1043.51 1025.72 1043.98 1025.7 1044.54H1023.04C1023.07 1043.56 1023.36 1042.69 1023.91 1041.95C1024.47 1041.2 1025.2 1040.62 1026.11 1040.2C1027.03 1039.78 1028.04 1039.57 1029.15 1039.57C1030.32 1039.57 1031.32 1039.8 1032.17 1040.25C1033.02 1040.7 1033.68 1041.3 1034.14 1042.06C1034.61 1042.81 1034.84 1043.63 1034.83 1044.52C1034.84 1045.54 1034.55 1046.41 1033.98 1047.12C1033.41 1047.83 1032.65 1048.3 1031.71 1048.55V1048.69C1032.91 1048.87 1033.85 1049.35 1034.51 1050.13C1035.18 1050.9 1035.51 1051.86 1035.51 1053.01C1035.51 1054.01 1035.23 1054.91 1034.67 1055.7C1034.12 1056.49 1033.35 1057.12 1032.39 1057.57C1031.43 1058.02 1030.32 1058.25 1029.08 1058.25Z" fill="black"/>
<path d="M1077.75 1058V1056.01L1083.9 1049.64C1084.56 1048.94 1085.1 1048.34 1085.53 1047.82C1085.96 1047.29 1086.28 1046.79 1086.49 1046.32C1086.71 1045.84 1086.81 1045.34 1086.81 1044.81C1086.81 1044.2 1086.67 1043.68 1086.39 1043.25C1086.1 1042.8 1085.72 1042.46 1085.22 1042.22C1084.73 1041.98 1084.18 1041.86 1083.56 1041.86C1082.91 1041.86 1082.34 1041.99 1081.86 1042.26C1081.37 1042.53 1081 1042.9 1080.74 1043.39C1080.48 1043.87 1080.35 1044.44 1080.35 1045.09H1077.73C1077.73 1043.98 1077.99 1043.02 1078.49 1042.19C1079 1041.36 1079.7 1040.72 1080.59 1040.26C1081.48 1039.8 1082.49 1039.57 1083.62 1039.57C1084.76 1039.57 1085.77 1039.8 1086.64 1040.25C1087.51 1040.7 1088.2 1041.32 1088.69 1042.1C1089.18 1042.88 1089.42 1043.75 1089.42 1044.73C1089.42 1045.4 1089.3 1046.06 1089.04 1046.71C1088.79 1047.35 1088.36 1048.07 1087.74 1048.86C1087.12 1049.65 1086.25 1050.61 1085.14 1051.73L1081.53 1055.51V1055.65H1089.72V1058H1077.75Z" fill="black"/>
<path d="M1140.65 1039.82V1058H1137.89V1042.57H1137.79L1133.44 1045.41V1042.78L1137.97 1039.82H1140.65Z" fill="black"/>
<path d="M869.302 1045.56C869.131 1045.02 868.9 1044.54 868.61 1044.12C868.326 1043.68 867.985 1043.32 867.589 1043.01C867.192 1042.71 866.739 1042.47 866.23 1042.31C865.727 1042.15 865.174 1042.07 864.57 1042.07C863.546 1042.07 862.623 1042.34 861.8 1042.86C860.978 1043.39 860.327 1044.16 859.847 1045.18C859.374 1046.19 859.137 1047.43 859.137 1048.9C859.137 1050.37 859.377 1051.62 859.856 1052.64C860.336 1053.66 860.993 1054.43 861.827 1054.95C862.662 1055.48 863.612 1055.75 864.677 1055.75C865.665 1055.75 866.526 1055.54 867.26 1055.14C868 1054.74 868.571 1054.17 868.974 1053.44C869.382 1052.7 869.586 1051.83 869.586 1050.83L870.297 1050.96H865.094V1048.7H872.241V1050.76C872.241 1052.29 871.915 1053.62 871.264 1054.74C870.619 1055.86 869.725 1056.72 868.583 1057.33C867.447 1057.94 866.145 1058.25 864.677 1058.25C863.031 1058.25 861.587 1057.87 860.344 1057.11C859.107 1056.35 858.143 1055.28 857.45 1053.89C856.758 1052.49 856.412 1050.84 856.412 1048.92C856.412 1047.47 856.613 1046.17 857.015 1045.01C857.418 1043.86 857.983 1042.88 858.711 1042.07C859.445 1041.26 860.306 1040.64 861.294 1040.22C862.289 1039.79 863.375 1039.57 864.553 1039.57C865.535 1039.57 866.449 1039.71 867.296 1040C868.148 1040.29 868.906 1040.71 869.569 1041.24C870.237 1041.77 870.791 1042.4 871.229 1043.14C871.667 1043.87 871.963 1044.67 872.116 1045.56H869.302Z" fill="black"/>
<path d="M1199.3 1045.56C1199.13 1045.02 1198.9 1044.54 1198.61 1044.12C1198.33 1043.68 1197.99 1043.32 1197.59 1043.01C1197.19 1042.71 1196.74 1042.47 1196.23 1042.31C1195.73 1042.15 1195.17 1042.07 1194.57 1042.07C1193.55 1042.07 1192.62 1042.34 1191.8 1042.86C1190.98 1043.39 1190.33 1044.16 1189.85 1045.18C1189.37 1046.19 1189.14 1047.43 1189.14 1048.9C1189.14 1050.37 1189.38 1051.62 1189.86 1052.64C1190.34 1053.66 1190.99 1054.43 1191.83 1054.95C1192.66 1055.48 1193.61 1055.75 1194.68 1055.75C1195.67 1055.75 1196.53 1055.54 1197.26 1055.14C1198 1054.74 1198.57 1054.17 1198.97 1053.44C1199.38 1052.7 1199.59 1051.83 1199.59 1050.83L1200.3 1050.96H1195.09V1048.7H1202.24V1050.76C1202.24 1052.29 1201.92 1053.62 1201.26 1054.74C1200.62 1055.86 1199.73 1056.72 1198.58 1057.33C1197.45 1057.94 1196.14 1058.25 1194.68 1058.25C1193.03 1058.25 1191.59 1057.87 1190.34 1057.11C1189.11 1056.35 1188.14 1055.28 1187.45 1053.89C1186.76 1052.49 1186.41 1050.84 1186.41 1048.92C1186.41 1047.47 1186.61 1046.17 1187.02 1045.01C1187.42 1043.86 1187.98 1042.88 1188.71 1042.07C1189.44 1041.26 1190.31 1040.64 1191.29 1040.22C1192.29 1039.79 1193.37 1039.57 1194.55 1039.57C1195.54 1039.57 1196.45 1039.71 1197.3 1040C1198.15 1040.29 1198.91 1040.71 1199.57 1041.24C1200.24 1041.77 1200.79 1042.4 1201.23 1043.14C1201.67 1043.87 1201.96 1044.67 1202.12 1045.56H1199.3Z" fill="black"/>
<path d="M1243 1058V1039.82H1249.48C1250.89 1039.82 1252.06 1040.06 1252.99 1040.55C1253.92 1041.03 1254.62 1041.7 1255.08 1042.56C1255.54 1043.41 1255.77 1044.4 1255.77 1045.52C1255.77 1046.63 1255.54 1047.61 1255.07 1048.46C1254.61 1049.3 1253.91 1049.95 1252.98 1050.42C1252.05 1050.89 1250.88 1051.12 1249.47 1051.12H1244.56V1048.76H1249.22C1250.11 1048.76 1250.83 1048.63 1251.39 1048.38C1251.95 1048.12 1252.36 1047.75 1252.62 1047.27C1252.88 1046.78 1253.01 1046.2 1253.01 1045.52C1253.01 1044.83 1252.88 1044.24 1252.61 1043.73C1252.35 1043.23 1251.94 1042.85 1251.38 1042.58C1250.82 1042.31 1250.09 1042.17 1249.19 1042.17H1245.74V1058H1243ZM1251.97 1049.8L1256.47 1058H1253.34L1248.94 1049.8H1251.97Z" fill="black"/>
<path d="M1309.3 1045.56C1309.13 1045.02 1308.9 1044.54 1308.61 1044.12C1308.33 1043.68 1307.99 1043.32 1307.59 1043.01C1307.19 1042.71 1306.74 1042.47 1306.23 1042.31C1305.73 1042.15 1305.17 1042.07 1304.57 1042.07C1303.55 1042.07 1302.62 1042.34 1301.8 1042.86C1300.98 1043.39 1300.33 1044.16 1299.85 1045.18C1299.37 1046.19 1299.14 1047.43 1299.14 1048.9C1299.14 1050.37 1299.38 1051.62 1299.86 1052.64C1300.34 1053.66 1300.99 1054.43 1301.83 1054.95C1302.66 1055.48 1303.61 1055.75 1304.68 1055.75C1305.67 1055.75 1306.53 1055.54 1307.26 1055.14C1308 1054.74 1308.57 1054.17 1308.97 1053.44C1309.38 1052.7 1309.59 1051.83 1309.59 1050.83L1310.3 1050.96H1305.09V1048.7H1312.24V1050.76C1312.24 1052.29 1311.92 1053.62 1311.26 1054.74C1310.62 1055.86 1309.73 1056.72 1308.58 1057.33C1307.45 1057.94 1306.14 1058.25 1304.68 1058.25C1303.03 1058.25 1301.59 1057.87 1300.34 1057.11C1299.11 1056.35 1298.14 1055.28 1297.45 1053.89C1296.76 1052.49 1296.41 1050.84 1296.41 1048.92C1296.41 1047.47 1296.61 1046.17 1297.02 1045.01C1297.42 1043.86 1297.98 1042.88 1298.71 1042.07C1299.44 1041.26 1300.31 1040.64 1301.29 1040.22C1302.29 1039.79 1303.37 1039.57 1304.55 1039.57C1305.54 1039.57 1306.45 1039.71 1307.3 1040C1308.15 1040.29 1308.91 1040.71 1309.57 1041.24C1310.24 1041.77 1310.79 1042.4 1311.23 1043.14C1311.67 1043.87 1311.96 1044.67 1312.12 1045.56H1309.3Z" fill="black"/>
<path d="M1351.59 1039.82H1354.71L1359.46 1048.08H1359.66L1364.41 1039.82H1367.52L1360.93 1050.86V1058H1358.19V1050.86L1351.59 1039.82Z" fill="black"/>
<path d="M1419.3 1045.56C1419.13 1045.02 1418.9 1044.54 1418.61 1044.12C1418.33 1043.68 1417.99 1043.32 1417.59 1043.01C1417.19 1042.71 1416.74 1042.47 1416.23 1042.31C1415.73 1042.15 1415.17 1042.07 1414.57 1042.07C1413.55 1042.07 1412.62 1042.34 1411.8 1042.86C1410.98 1043.39 1410.33 1044.16 1409.85 1045.18C1409.37 1046.19 1409.14 1047.43 1409.14 1048.9C1409.14 1050.37 1409.38 1051.62 1409.86 1052.64C1410.34 1053.66 1410.99 1054.43 1411.83 1054.95C1412.66 1055.48 1413.61 1055.75 1414.68 1055.75C1415.67 1055.75 1416.53 1055.54 1417.26 1055.14C1418 1054.74 1418.57 1054.17 1418.97 1053.44C1419.38 1052.7 1419.59 1051.83 1419.59 1050.83L1420.3 1050.96H1415.09V1048.7H1422.24V1050.76C1422.24 1052.29 1421.92 1053.62 1421.26 1054.74C1420.62 1055.86 1419.73 1056.72 1418.58 1057.33C1417.45 1057.94 1416.14 1058.25 1414.68 1058.25C1413.03 1058.25 1411.59 1057.87 1410.34 1057.11C1409.11 1056.35 1408.14 1055.28 1407.45 1053.89C1406.76 1052.49 1406.41 1050.84 1406.41 1048.92C1406.41 1047.47 1406.61 1046.17 1407.02 1045.01C1407.42 1043.86 1407.98 1042.88 1408.71 1042.07C1409.44 1041.26 1410.31 1040.64 1411.29 1040.22C1412.29 1039.79 1413.37 1039.57 1414.55 1039.57C1415.54 1039.57 1416.45 1039.71 1417.3 1040C1418.15 1040.29 1418.91 1040.71 1419.57 1041.24C1420.24 1041.77 1420.79 1042.4 1421.23 1043.14C1421.67 1043.87 1421.96 1044.67 1422.12 1045.56H1419.3Z" fill="black"/>
<path d="M1529.3 1045.56C1529.13 1045.02 1528.9 1044.54 1528.61 1044.12C1528.33 1043.68 1527.99 1043.32 1527.59 1043.01C1527.19 1042.71 1526.74 1042.47 1526.23 1042.31C1525.73 1042.15 1525.17 1042.07 1524.57 1042.07C1523.55 1042.07 1522.62 1042.34 1521.8 1042.86C1520.98 1043.39 1520.33 1044.16 1519.85 1045.18C1519.37 1046.19 1519.14 1047.43 1519.14 1048.9C1519.14 1050.37 1519.38 1051.62 1519.86 1052.64C1520.34 1053.66 1520.99 1054.43 1521.83 1054.95C1522.66 1055.48 1523.61 1055.75 1524.68 1055.75C1525.67 1055.75 1526.53 1055.54 1527.26 1055.14C1528 1054.74 1528.57 1054.17 1528.97 1053.44C1529.38 1052.7 1529.59 1051.83 1529.59 1050.83L1530.3 1050.96H1525.09V1048.7H1532.24V1050.76C1532.24 1052.29 1531.92 1053.62 1531.26 1054.74C1530.62 1055.86 1529.73 1056.72 1528.58 1057.33C1527.45 1057.94 1526.14 1058.25 1524.68 1058.25C1523.03 1058.25 1521.59 1057.87 1520.34 1057.11C1519.11 1056.35 1518.14 1055.28 1517.45 1053.89C1516.76 1052.49 1516.41 1050.84 1516.41 1048.92C1516.41 1047.47 1516.61 1046.17 1517.02 1045.01C1517.42 1043.86 1517.98 1042.88 1518.71 1042.07C1519.44 1041.26 1520.31 1040.64 1521.29 1040.22C1522.29 1039.79 1523.37 1039.57 1524.55 1039.57C1525.54 1039.57 1526.45 1039.71 1527.3 1040C1528.15 1040.29 1528.91 1040.71 1529.57 1041.24C1530.24 1041.77 1530.79 1042.4 1531.23 1043.14C1531.67 1043.87 1531.96 1044.67 1532.12 1045.56H1529.3Z" fill="black"/>
<path d="M1627.3 1045.56C1627.13 1045.02 1626.9 1044.54 1626.61 1044.12C1626.33 1043.68 1625.99 1043.32 1625.59 1043.01C1625.19 1042.71 1624.74 1042.47 1624.23 1042.31C1623.73 1042.15 1623.17 1042.07 1622.57 1042.07C1621.55 1042.07 1620.62 1042.34 1619.8 1042.86C1618.98 1043.39 1618.33 1044.16 1617.85 1045.18C1617.37 1046.19 1617.14 1047.43 1617.14 1048.9C1617.14 1050.37 1617.38 1051.62 1617.86 1052.64C1618.34 1053.66 1618.99 1054.43 1619.83 1054.95C1620.66 1055.48 1621.61 1055.75 1622.68 1055.75C1623.67 1055.75 1624.53 1055.54 1625.26 1055.14C1626 1054.74 1626.57 1054.17 1626.97 1053.44C1627.38 1052.7 1627.59 1051.83 1627.59 1050.83L1628.3 1050.96H1623.09V1048.7H1630.24V1050.76C1630.24 1052.29 1629.92 1053.62 1629.26 1054.74C1628.62 1055.86 1627.73 1056.72 1626.58 1057.33C1625.45 1057.94 1624.14 1058.25 1622.68 1058.25C1621.03 1058.25 1619.59 1057.87 1618.34 1057.11C1617.11 1056.35 1616.14 1055.28 1615.45 1053.89C1614.76 1052.49 1614.41 1050.84 1614.41 1048.92C1614.41 1047.47 1614.61 1046.17 1615.02 1045.01C1615.42 1043.86 1615.98 1042.88 1616.71 1042.07C1617.44 1041.26 1618.31 1040.64 1619.29 1040.22C1620.29 1039.79 1621.37 1039.57 1622.55 1039.57C1623.54 1039.57 1624.45 1039.71 1625.3 1040C1626.15 1040.29 1626.91 1040.71 1627.57 1041.24C1628.24 1041.77 1628.79 1042.4 1629.23 1043.14C1629.67 1043.87 1629.96 1044.67 1630.12 1045.56H1627.3ZM1648.4 1039.82V1058H1645.88L1636.64 1044.67H1636.47V1058H1633.72V1039.82H1636.26L1645.51 1053.17H1645.68V1039.82H1648.4Z" fill="black"/>
<path d="M1696.67 1039.82V1058H1694.15L1684.91 1044.67H1684.74V1058H1682V1039.82H1684.54L1693.79 1053.17H1693.96V1039.82H1696.67Z" fill="black"/>
<path d="M2012 1058V1039.82H2018.48C2019.89 1039.82 2021.06 1040.06 2021.99 1040.55C2022.92 1041.03 2023.62 1041.7 2024.08 1042.56C2024.54 1043.41 2024.77 1044.4 2024.77 1045.52C2024.77 1046.63 2024.54 1047.61 2024.07 1048.46C2023.61 1049.3 2022.91 1049.95 2021.98 1050.42C2021.05 1050.89 2019.88 1051.12 2018.47 1051.12H2013.56V1048.76H2018.22C2019.11 1048.76 2019.83 1048.63 2020.39 1048.38C2020.95 1048.12 2021.36 1047.75 2021.62 1047.27C2021.88 1046.78 2022.01 1046.2 2022.01 1045.52C2022.01 1044.83 2021.88 1044.24 2021.61 1043.73C2021.35 1043.23 2020.94 1042.85 2020.38 1042.58C2019.82 1042.31 2019.09 1042.17 2018.19 1042.17H2014.74V1058H2012ZM2020.97 1049.8L2025.47 1058H2022.34L2017.94 1049.8H2020.97Z" fill="black"/>
<path d="M1901.59 1039.82H1904.71L1909.46 1048.08H1909.66L1914.41 1039.82H1917.52L1910.93 1050.86V1058H1908.19V1050.86L1901.59 1039.82Z" fill="black"/>
<path d="M1793 1058V1039.82H1799.66C1800.95 1039.82 1802.01 1040.03 1802.86 1040.46C1803.71 1040.88 1804.34 1041.45 1804.76 1042.17C1805.18 1042.89 1805.39 1043.69 1805.39 1044.59C1805.39 1045.35 1805.25 1045.99 1804.97 1046.51C1804.7 1047.03 1804.32 1047.44 1803.86 1047.75C1803.39 1048.06 1802.88 1048.29 1802.33 1048.43V1048.61C1802.93 1048.64 1803.52 1048.83 1804.09 1049.19C1804.67 1049.55 1805.15 1050.05 1805.53 1050.71C1805.91 1051.37 1806.1 1052.17 1806.1 1053.11C1806.1 1054.04 1805.88 1054.87 1805.44 1055.61C1805.01 1056.35 1804.34 1056.93 1803.44 1057.36C1802.53 1057.79 1801.38 1058 1799.97 1058H1793ZM1795.74 1055.65H1799.7C1801.01 1055.65 1801.96 1055.39 1802.52 1054.88C1803.09 1054.37 1803.38 1053.74 1803.38 1052.98C1803.38 1052.4 1803.23 1051.87 1802.94 1051.39C1802.65 1050.92 1802.24 1050.53 1801.7 1050.25C1801.17 1049.97 1800.53 1049.82 1799.8 1049.82H1795.74V1055.65ZM1795.74 1047.68H1799.42C1800.03 1047.68 1800.59 1047.57 1801.08 1047.33C1801.57 1047.09 1801.97 1046.76 1802.26 1046.33C1802.55 1045.9 1802.7 1045.39 1802.7 1044.81C1802.7 1044.06 1802.44 1043.43 1801.91 1042.92C1801.38 1042.41 1800.58 1042.15 1799.49 1042.15H1795.74V1047.68Z" fill="black"/>
<path d="M1562.13 1054.95V1042.94H1564.52V1054.95H1562.13ZM1557.33 1050.13V1047.75H1569.33V1050.13H1557.33ZM1580.3 1039.82V1058H1577.55V1042.57H1577.44L1573.09 1045.41V1042.78L1577.63 1039.82H1580.3ZM1585.22 1058V1056.01L1591.37 1049.64C1592.03 1048.94 1592.57 1048.34 1592.99 1047.82C1593.42 1047.29 1593.75 1046.79 1593.96 1046.32C1594.17 1045.84 1594.28 1045.34 1594.28 1044.81C1594.28 1044.2 1594.14 1043.68 1593.85 1043.25C1593.57 1042.8 1593.18 1042.46 1592.69 1042.22C1592.2 1041.98 1591.65 1041.86 1591.03 1041.86C1590.38 1041.86 1589.81 1041.99 1589.33 1042.26C1588.84 1042.53 1588.47 1042.9 1588.21 1043.39C1587.95 1043.87 1587.82 1044.44 1587.82 1045.09H1585.2C1585.2 1043.98 1585.45 1043.02 1585.96 1042.19C1586.47 1041.36 1587.17 1040.72 1588.06 1040.26C1588.94 1039.8 1589.95 1039.57 1591.08 1039.57C1592.23 1039.57 1593.23 1039.8 1594.1 1040.25C1594.98 1040.7 1595.66 1041.32 1596.15 1042.1C1596.64 1042.88 1596.89 1043.75 1596.89 1044.73C1596.89 1045.4 1596.76 1046.06 1596.51 1046.71C1596.26 1047.35 1595.82 1048.07 1595.2 1048.86C1594.58 1049.65 1593.72 1050.61 1592.61 1051.73L1589 1055.51V1055.65H1597.18V1058H1585.22Z" fill="black"/>
<path d="M1461 1058V1039.82H1467.66C1468.95 1039.82 1470.01 1040.03 1470.86 1040.46C1471.71 1040.88 1472.34 1041.45 1472.76 1042.17C1473.18 1042.89 1473.39 1043.69 1473.39 1044.59C1473.39 1045.35 1473.25 1045.99 1472.97 1046.51C1472.7 1047.03 1472.32 1047.44 1471.86 1047.75C1471.39 1048.06 1470.88 1048.29 1470.33 1048.43V1048.61C1470.93 1048.64 1471.52 1048.83 1472.09 1049.19C1472.67 1049.55 1473.15 1050.05 1473.53 1050.71C1473.91 1051.37 1474.1 1052.17 1474.1 1053.11C1474.1 1054.04 1473.88 1054.87 1473.44 1055.61C1473.01 1056.35 1472.34 1056.93 1471.44 1057.36C1470.53 1057.79 1469.38 1058 1467.97 1058H1461ZM1463.74 1055.65H1467.7C1469.01 1055.65 1469.96 1055.39 1470.52 1054.88C1471.09 1054.37 1471.38 1053.74 1471.38 1052.98C1471.38 1052.4 1471.23 1051.87 1470.94 1051.39C1470.65 1050.92 1470.24 1050.53 1469.7 1050.25C1469.17 1049.97 1468.53 1049.82 1467.8 1049.82H1463.74V1055.65ZM1463.74 1047.68H1467.42C1468.03 1047.68 1468.59 1047.57 1469.08 1047.33C1469.57 1047.09 1469.97 1046.76 1470.26 1046.33C1470.55 1045.9 1470.7 1045.39 1470.7 1044.81C1470.7 1044.06 1470.44 1043.43 1469.91 1042.92C1469.38 1042.41 1468.58 1042.15 1467.49 1042.15H1463.74V1047.68Z" fill="black"/>
<mask id="path-36-inside-2_61_5" fill="white">
<path d="M525 1071H549V1156C549 1158.76 546.761 1161 544 1161H530C527.239 1161 525 1158.76 525 1156V1071Z"/>
</mask>
<path d="M525 1071H549V1156C549 1158.76 546.761 1161 544 1161H530C527.239 1161 525 1158.76 525 1156V1071Z" fill="white"/>
<path d="M525 1071H549H525M550 1156C550 1159.31 547.314 1162 544 1162H530C526.686 1162 524 1159.31 524 1156H526C526 1158.21 527.791 1160 530 1160H544C546.209 1160 548 1158.21 548 1156H550ZM530 1162C526.686 1162 524 1159.31 524 1156V1071H526V1156C526 1158.21 527.791 1160 530 1160V1162ZM550 1071V1156C550 1159.31 547.314 1162 544 1162V1160C546.209 1160 548 1158.21 548 1156V1071H550Z" fill="black" mask="url(#path-36-inside-2_61_5)"/>
<rect x="561" y="1089.5" width="53" height="53" rx="7" fill="#118200"/>
<circle cx="587.122" cy="1115.62" r="16.2786" fill="#D9D9D9"/>
<line x1="587.728" y1="1100.04" x2="588.485" y2="1131.08" stroke="#ACACAC" stroke-width="5"/>
<rect x="561" y="1089.5" width="53" height="53" rx="7" fill="#118200"/>
<circle cx="587.122" cy="1115.62" r="16.2786" fill="#D9D9D9"/>
<line x1="587.728" y1="1100.04" x2="588.485" y2="1131.08" stroke="#ACACAC" stroke-width="5"/>
<rect x="616" y="1089.5" width="53" height="53" rx="7" fill="#118200"/>
<circle cx="642.122" cy="1115.62" r="16.2786" fill="#D9D9D9"/>
<line x1="642.728" y1="1100.04" x2="643.485" y2="1131.08" stroke="#ACACAC" stroke-width="5"/>
<rect x="616" y="1089.5" width="53" height="53" rx="7" fill="#118200"/>
<circle cx="642.122" cy="1115.62" r="16.2786" fill="#D9D9D9"/>
<line x1="642.728" y1="1100.04" x2="643.485" y2="1131.08" stroke="#ACACAC" stroke-width="5"/>
<rect x="671" y="1089.5" width="53" height="53" rx="7" fill="#118200"/>
<circle cx="697.122" cy="1115.62" r="16.2786" fill="#D9D9D9"/>
<line x1="697.728" y1="1100.04" x2="698.485" y2="1131.08" stroke="#ACACAC" stroke-width="5"/>
<rect x="671" y="1089.5" width="53" height="53" rx="7" fill="#118200"/>
<circle cx="697.122" cy="1115.62" r="16.2786" fill="#D9D9D9"/>
<line x1="697.728" y1="1100.04" x2="698.485" y2="1131.08" stroke="#ACACAC" stroke-width="5"/>
<rect x="726" y="1089.5" width="53" height="53" rx="7" fill="#118200"/>
<circle cx="752.122" cy="1115.62" r="16.2786" fill="#D9D9D9"/>
<line x1="752.728" y1="1100.04" x2="753.485" y2="1131.08" stroke="#ACACAC" stroke-width="5"/>
<rect x="726" y="1089.5" width="53" height="53" rx="7" fill="#118200"/>
<circle cx="752.122" cy="1115.62" r="16.2786" fill="#D9D9D9"/>
<line x1="752.728" y1="1100.04" x2="753.485" y2="1131.08" stroke="#ACACAC" stroke-width="5"/>
<rect x="781" y="1089.5" width="53" height="53" rx="7" fill="#118200"/>
<circle cx="807.122" cy="1115.62" r="16.2786" fill="#D9D9D9"/>
<line x1="807.728" y1="1100.04" x2="808.485" y2="1131.08" stroke="#ACACAC" stroke-width="5"/>
<rect x="781" y="1089.5" width="53" height="53" rx="7" fill="#118200"/>
<circle cx="807.122" cy="1115.62" r="16.2786" fill="#D9D9D9"/>
<line x1="807.728" y1="1100.04" x2="808.485" y2="1131.08" stroke="#ACACAC" stroke-width="5"/>
<rect x="836" y="1089.5" width="53" height="53" rx="7" fill="#118200"/>
<circle cx="862.122" cy="1115.62" r="16.2786" fill="#D9D9D9"/>
<line x1="862.728" y1="1100.04" x2="863.485" y2="1131.08" stroke="#ACACAC" stroke-width="5"/>
<rect x="836" y="1089.5" width="53" height="53" rx="7" fill="#118200"/>
<circle cx="862.122" cy="1115.62" r="16.2786" fill="#D9D9D9"/>
<line x1="862.728" y1="1100.04" x2="863.485" y2="1131.08" stroke="#ACACAC" stroke-width="5"/>
<rect x="891" y="1089.5" width="53" height="53" rx="7" fill="#118200"/>
<circle cx="917.122" cy="1115.62" r="16.2786" fill="#D9D9D9"/>
<line x1="917.728" y1="1100.04" x2="918.485" y2="1131.08" stroke="#ACACAC" stroke-width="5"/>
<rect x="891" y="1089.5" width="53" height="53" rx="7" fill="#118200"/>
<circle cx="917.122" cy="1115.62" r="16.2786" fill="#D9D9D9"/>
<line x1="917.728" y1="1100.04" x2="918.485" y2="1131.08" stroke="#ACACAC" stroke-width="5"/>
<rect x="946" y="1089.5" width="53" height="53" rx="7" fill="#118200"/>
<circle cx="972.122" cy="1115.62" r="16.2786" fill="#D9D9D9"/>
<line x1="972.728" y1="1100.04" x2="973.485" y2="1131.08" stroke="#ACACAC" stroke-width="5"/>
<rect x="946" y="1089.5" width="53" height="53" rx="7" fill="#118200"/>
<circle cx="972.122" cy="1115.62" r="16.2786" fill="#D9D9D9"/>
<line x1="972.728" y1="1100.04" x2="973.485" y2="1131.08" stroke="#ACACAC" stroke-width="5"/>
<rect x="1001" y="1089.5" width="53" height="53" rx="7" fill="#118200"/>
<circle cx="1027.12" cy="1115.62" r="16.2786" fill="#D9D9D9"/>
<line x1="1027.73" y1="1100.04" x2="1028.48" y2="1131.08" stroke="#ACACAC" stroke-width="5"/>
<rect x="1001" y="1089.5" width="53" height="53" rx="7" fill="#118200"/>
<circle cx="1027.12" cy="1115.62" r="16.2786" fill="#D9D9D9"/>
<line x1="1027.73" y1="1100.04" x2="1028.48" y2="1131.08" stroke="#ACACAC" stroke-width="5"/>
<rect x="1056" y="1089.5" width="53" height="53" rx="7" fill="#118200"/>
<circle cx="1082.12" cy="1115.62" r="16.2786" fill="#D9D9D9"/>
<line x1="1082.73" y1="1100.04" x2="1083.48" y2="1131.08" stroke="#ACACAC" stroke-width="5"/>
<rect x="1056" y="1089.5" width="53" height="53" rx="7" fill="#118200"/>
<circle cx="1082.12" cy="1115.62" r="16.2786" fill="#D9D9D9"/>
<line x1="1082.73" y1="1100.04" x2="1083.48" y2="1131.08" stroke="#ACACAC" stroke-width="5"/>
<rect x="1111" y="1089.5" width="53" height="53" rx="7" fill="#118200"/>
<circle cx="1137.12" cy="1115.62" r="16.2786" fill="#D9D9D9"/>
<line x1="1137.73" y1="1100.04" x2="1138.48" y2="1131.08" stroke="#ACACAC" stroke-width="5"/>
<rect x="1111" y="1089.5" width="53" height="53" rx="7" fill="#118200"/>
<circle cx="1137.12" cy="1115.62" r="16.2786" fill="#D9D9D9"/>
<line x1="1137.73" y1="1100.04" x2="1138.48" y2="1131.08" stroke="#ACACAC" stroke-width="5"/>
<rect x="1166" y="1089.5" width="53" height="53" rx="7" fill="#118200"/>
<circle cx="1192.12" cy="1115.62" r="16.2786" fill="#D9D9D9"/>
<line x1="1192.73" y1="1100.04" x2="1193.48" y2="1131.08" stroke="#ACACAC" stroke-width="5"/>
<rect x="1166" y="1089.5" width="53" height="53" rx="7" fill="#118200"/>
<circle cx="1192.12" cy="1115.62" r="16.2786" fill="#D9D9D9"/>
<line x1="1192.73" y1="1100.04" x2="1193.48" y2="1131.08" stroke="#ACACAC" stroke-width="5"/>
<rect x="1221" y="1089.5" width="53" height="53" rx="7" fill="#118200"/>
<circle cx="1247.12" cy="1115.62" r="16.2786" fill="#D9D9D9"/>
<line x1="1247.73" y1="1100.04" x2="1248.48" y2="1131.08" stroke="#ACACAC" stroke-width="5"/>
<rect x="1221" y="1089.5" width="53" height="53" rx="7" fill="#118200"/>
<circle cx="1247.12" cy="1115.62" r="16.2786" fill="#D9D9D9"/>
<line x1="1247.73" y1="1100.04" x2="1248.48" y2="1131.08" stroke="#ACACAC" stroke-width="5"/>
<rect x="1276" y="1089.5" width="53" height="53" rx="7" fill="#118200"/>
<circle cx="1302.12" cy="1115.62" r="16.2786" fill="#D9D9D9"/>
<line x1="1302.73" y1="1100.04" x2="1303.48" y2="1131.08" stroke="#ACACAC" stroke-width="5"/>
<rect x="1276" y="1089.5" width="53" height="53" rx="7" fill="#118200"/>
<circle cx="1302.12" cy="1115.62" r="16.2786" fill="#D9D9D9"/>
<line x1="1302.73" y1="1100.04" x2="1303.48" y2="1131.08" stroke="#ACACAC" stroke-width="5"/>
<rect x="1331" y="1089.5" width="53" height="53" rx="7" fill="#118200"/>
<circle cx="1357.12" cy="1115.62" r="16.2786" fill="#D9D9D9"/>
<line x1="1357.73" y1="1100.04" x2="1358.48" y2="1131.08" stroke="#ACACAC" stroke-width="5"/>
<rect x="1331" y="1089.5" width="53" height="53" rx="7" fill="#118200"/>
<circle cx="1357.12" cy="1115.62" r="16.2786" fill="#D9D9D9"/>
<line x1="1357.73" y1="1100.04" x2="1358.48" y2="1131.08" stroke="#ACACAC" stroke-width="5"/>
<rect x="1386" y="1089.5" width="53" height="53" rx="7" fill="#118200"/>
<circle cx="1412.12" cy="1115.62" r="16.2786" fill="#D9D9D9"/>
<line x1="1412.73" y1="1100.04" x2="1413.48" y2="1131.08" stroke="#ACACAC" stroke-width="5"/>
<rect x="1386" y="1089.5" width="53" height="53" rx="7" fill="#118200"/>
<circle cx="1412.12" cy="1115.62" r="16.2786" fill="#D9D9D9"/>
<line x1="1412.73" y1="1100.04" x2="1413.48" y2="1131.08" stroke="#ACACAC" stroke-width="5"/>
<rect x="1441" y="1089.5" width="53" height="53" rx="7" fill="#118200"/>
<circle cx="1467.12" cy="1115.62" r="16.2786" fill="#D9D9D9"/>
<line x1="1467.73" y1="1100.04" x2="1468.48" y2="1131.08" stroke="#ACACAC" stroke-width="5"/>
<rect x="1441" y="1089.5" width="53" height="53" rx="7" fill="#118200"/>
<circle cx="1467.12" cy="1115.62" r="16.2786" fill="#D9D9D9"/>
<line x1="1467.73" y1="1100.04" x2="1468.48" y2="1131.08" stroke="#ACACAC" stroke-width="5"/>
<rect x="1496" y="1089.5" width="53" height="53" rx="7" fill="#118200"/>
<circle cx="1522.12" cy="1115.62" r="16.2786" fill="#D9D9D9"/>
<line x1="1522.73" y1="1100.04" x2="1523.48" y2="1131.08" stroke="#ACACAC" stroke-width="5"/>
<rect x="1496" y="1089.5" width="53" height="53" rx="7" fill="#118200"/>
<circle cx="1522.12" cy="1115.62" r="16.2786" fill="#D9D9D9"/>
<line x1="1522.73" y1="1100.04" x2="1523.48" y2="1131.08" stroke="#ACACAC" stroke-width="5"/>
<rect x="1551" y="1089.5" width="53" height="53" rx="7" fill="#118200"/>
<circle cx="1577.12" cy="1115.62" r="16.2786" fill="#D9D9D9"/>
<line x1="1577.73" y1="1100.04" x2="1578.48" y2="1131.08" stroke="#ACACAC" stroke-width="5"/>
<rect x="1551" y="1089.5" width="53" height="53" rx="7" fill="#118200"/>
<circle cx="1577.12" cy="1115.62" r="16.2786" fill="#D9D9D9"/>
<line x1="1577.73" y1="1100.04" x2="1578.48" y2="1131.08" stroke="#ACACAC" stroke-width="5"/>
<rect x="1606" y="1089.5" width="53" height="53" rx="7" fill="#118200"/>
<circle cx="1632.12" cy="1115.62" r="16.2786" fill="#D9D9D9"/>
<line x1="1632.73" y1="1100.04" x2="1633.48" y2="1131.08" stroke="#ACACAC" stroke-width="5"/>
<rect x="1606" y="1089.5" width="53" height="53" rx="7" fill="#118200"/>
<circle cx="1632.12" cy="1115.62" r="16.2786" fill="#D9D9D9"/>
<line x1="1632.73" y1="1100.04" x2="1633.48" y2="1131.08" stroke="#ACACAC" stroke-width="5"/>
<rect x="1661" y="1089.5" width="53" height="53" rx="7" fill="#118200"/>
<circle cx="1687.12" cy="1115.62" r="16.2786" fill="#D9D9D9"/>
<line x1="1687.73" y1="1100.04" x2="1688.48" y2="1131.08" stroke="#ACACAC" stroke-width="5"/>
<rect x="1661" y="1089.5" width="53" height="53" rx="7" fill="#118200"/>
<circle cx="1687.12" cy="1115.62" r="16.2786" fill="#D9D9D9"/>
<line x1="1687.73" y1="1100.04" x2="1688.48" y2="1131.08" stroke="#ACACAC" stroke-width="5"/>
<rect x="1716" y="1089.5" width="53" height="53" rx="7" fill="#118200"/>
<circle cx="1742.12" cy="1115.62" r="16.2786" fill="#D9D9D9"/>
<line x1="1742.73" y1="1100.04" x2="1743.48" y2="1131.08" stroke="#ACACAC" stroke-width="5"/>
<rect x="1716" y="1089.5" width="53" height="53" rx="7" fill="#118200"/>
<circle cx="1742.12" cy="1115.62" r="16.2786" fill="#D9D9D9"/>
<line x1="1742.73" y1="1100.04" x2="1743.48" y2="1131.08" stroke="#ACACAC" stroke-width="5"/>
<rect x="1771" y="1089.5" width="53" height="53" rx="7" fill="#118200"/>
<circle cx="1797.12" cy="1115.62" r="16.2786" fill="#D9D9D9"/>
<line x1="1797.73" y1="1100.04" x2="1798.48" y2="1131.08" stroke="#ACACAC" stroke-width="5"/>
<rect x="1771" y="1089.5" width="53" height="53" rx="7" fill="#118200"/>
<circle cx="1797.12" cy="1115.62" r="16.2786" fill="#D9D9D9"/>
<line x1="1797.73" y1="1100.04" x2="1798.48" y2="1131.08" stroke="#ACACAC" stroke-width="5"/>
<rect x="1826" y="1089.5" width="53" height="53" rx="7" fill="#118200"/>
<circle cx="1852.12" cy="1115.62" r="16.2786" fill="#D9D9D9"/>
<line x1="1852.73" y1="1100.04" x2="1853.48" y2="1131.08" stroke="#ACACAC" stroke-width="5"/>
<rect x="1826" y="1089.5" width="53" height="53" rx="7" fill="#118200"/>
<circle cx="1852.12" cy="1115.62" r="16.2786" fill="#D9D9D9"/>
<line x1="1852.73" y1="1100.04" x2="1853.48" y2="1131.08" stroke="#ACACAC" stroke-width="5"/>
<rect x="1881" y="1089.5" width="53" height="53" rx="7" fill="#118200"/>
<circle cx="1907.12" cy="1115.62" r="16.2786" fill="#D9D9D9"/>
<line x1="1907.73" y1="1100.04" x2="1908.48" y2="1131.08" stroke="#ACACAC" stroke-width="5"/>
<rect x="1881" y="1089.5" width="53" height="53" rx="7" fill="#118200"/>
<circle cx="1907.12" cy="1115.62" r="16.2786" fill="#D9D9D9"/>
<line x1="1907.73" y1="1100.04" x2="1908.48" y2="1131.08" stroke="#ACACAC" stroke-width="5"/>
<rect x="1936" y="1089.5" width="53" height="53" rx="7" fill="#118200"/>
<circle cx="1962.12" cy="1115.62" r="16.2786" fill="#D9D9D9"/>
<line x1="1962.73" y1="1100.04" x2="1963.48" y2="1131.08" stroke="#ACACAC" stroke-width="5"/>
<rect x="1936" y="1089.5" width="53" height="53" rx="7" fill="#118200"/>
<circle cx="1962.12" cy="1115.62" r="16.2786" fill="#D9D9D9"/>
<line x1="1962.73" y1="1100.04" x2="1963.48" y2="1131.08" stroke="#ACACAC" stroke-width="5"/>
<rect x="1991" y="1089.5" width="53" height="53" rx="7" fill="#118200"/>
<circle cx="2017.12" cy="1115.62" r="16.2786" fill="#D9D9D9"/>
<line x1="2017.73" y1="1100.04" x2="2018.48" y2="1131.08" stroke="#ACACAC" stroke-width="5"/>
<rect x="1991" y="1089.5" width="53" height="53" rx="7" fill="#118200"/>
<circle cx="2017.12" cy="1115.62" r="16.2786" fill="#D9D9D9"/>
<line x1="2017.73" y1="1100.04" x2="2018.48" y2="1131.08" stroke="#ACACAC" stroke-width="5"/>
<mask id="path-200-inside-3_61_5" fill="white">
<path d="M2056 1071H2080V1156C2080 1158.76 2077.76 1161 2075 1161H2061C2058.24 1161 2056 1158.76 2056 1156V1071Z"/>
</mask>
<path d="M2056 1071H2080V1156C2080 1158.76 2077.76 1161 2075 1161H2061C2058.24 1161 2056 1158.76 2056 1156V1071Z" fill="white"/>
<path d="M2056 1071H2080H2056M2081 1156C2081 1159.31 2078.31 1162 2075 1162H2061C2057.69 1162 2055 1159.31 2055 1156H2057C2057 1158.21 2058.79 1160 2061 1160H2075C2077.21 1160 2079 1158.21 2079 1156H2081ZM2061 1162C2057.69 1162 2055 1159.31 2055 1156V1071H2057V1156C2057 1158.21 2058.79 1160 2061 1160V1162ZM2081 1071V1156C2081 1159.31 2078.31 1162 2075 1162V1160C2077.21 1160 2079 1158.21 2079 1156V1071H2081Z" fill="black" mask="url(#path-200-inside-3_61_5)"/>
<rect x="0.634658" y="536.635" width="338.907" height="516.612" rx="37.4448" fill="#D9D9D9" stroke="black" stroke-width="1.26932"/>
<rect x="32.3676" y="567.098" width="274.172" height="148.51" rx="31.0982" fill="#BDBDBD" stroke="black" stroke-width="1.26932"/>
<circle cx="275.442" cy="602.004" r="13.9625" fill="#DE737A"/>
<path d="M137.949 804.85V833.94H131.798V810.688H131.628L124.966 814.864V809.409L132.168 804.85H137.949ZM144.863 833.94V829.509L155.218 819.921C156.099 819.068 156.838 818.301 157.434 817.619C158.04 816.938 158.499 816.27 158.812 815.617C159.124 814.954 159.281 814.239 159.281 813.472C159.281 812.619 159.087 811.886 158.698 811.27C158.31 810.645 157.78 810.167 157.107 809.835C156.435 809.494 155.673 809.324 154.82 809.324C153.93 809.324 153.154 809.504 152.491 809.864C151.828 810.224 151.317 810.74 150.957 811.412C150.597 812.084 150.417 812.885 150.417 813.813H144.579C144.579 811.909 145.01 810.257 145.872 808.855C146.733 807.454 147.941 806.369 149.494 805.602C151.047 804.835 152.837 804.452 154.863 804.452C156.946 804.452 158.76 804.821 160.303 805.56C161.856 806.289 163.064 807.302 163.926 808.6C164.787 809.897 165.218 811.384 165.218 813.06C165.218 814.158 165 815.243 164.565 816.313C164.139 817.383 163.376 818.571 162.278 819.878C161.179 821.175 159.631 822.733 157.633 824.551L153.386 828.713V828.912H165.602V833.94H144.863ZM184.742 804.85L191.774 826.952H192.043L199.089 804.85H205.907L195.879 833.94H187.953L177.91 804.85H184.742ZM37.7679 881.94V852.85H49.2452C51.4516 852.85 53.3314 853.271 54.8844 854.114C56.4374 854.947 57.6211 856.107 58.4355 857.594C59.2594 859.071 59.6713 860.776 59.6713 862.707C59.6713 864.639 59.2547 866.344 58.4213 867.821C57.588 869.298 56.3806 870.449 54.7992 871.273C53.2272 872.097 51.3238 872.509 49.0889 872.509H41.7736V867.58H48.0946C49.2783 867.58 50.2537 867.376 51.0208 866.969C51.7973 866.552 52.3749 865.979 52.7537 865.25C53.142 864.511 53.3361 863.664 53.3361 862.707C53.3361 861.742 53.142 860.899 52.7537 860.179C52.3749 859.45 51.7973 858.886 51.0208 858.489C50.2442 858.082 49.2594 857.878 48.0662 857.878H43.9185V881.94H37.7679ZM73.0591 882.367C70.8527 882.367 68.9445 881.898 67.3347 880.96C65.7343 880.013 64.4985 878.697 63.6273 877.011C62.7561 875.316 62.3205 873.351 62.3205 871.117C62.3205 868.863 62.7561 866.893 63.6273 865.207C64.4985 863.512 65.7343 862.196 67.3347 861.259C68.9445 860.312 70.8527 859.838 73.0591 859.838C75.2655 859.838 77.169 860.312 78.7693 861.259C80.3792 862.196 81.6197 863.512 82.4909 865.207C83.3621 866.893 83.7977 868.863 83.7977 871.117C83.7977 873.351 83.3621 875.316 82.4909 877.011C81.6197 878.697 80.3792 880.013 78.7693 880.96C77.169 881.898 75.2655 882.367 73.0591 882.367ZM73.0875 877.679C74.0913 877.679 74.9294 877.395 75.6017 876.827C76.2741 876.249 76.7807 875.463 77.1216 874.469C77.472 873.475 77.6472 872.343 77.6472 871.074C77.6472 869.805 77.472 868.673 77.1216 867.679C76.7807 866.685 76.2741 865.899 75.6017 865.321C74.9294 864.743 74.0913 864.455 73.0875 864.455C72.0743 864.455 71.222 864.743 70.5307 865.321C69.8489 865.899 69.3328 866.685 68.9824 867.679C68.6415 868.673 68.471 869.805 68.471 871.074C68.471 872.343 68.6415 873.475 68.9824 874.469C69.3328 875.463 69.8489 876.249 70.5307 876.827C71.222 877.395 72.0743 877.679 73.0875 877.679ZM91.4895 881.94L85.552 860.122H91.6742L95.0548 874.781H95.2537L98.7764 860.122H104.785L108.365 874.696H108.549L111.873 860.122H117.981L112.058 881.94H105.651L101.901 868.219H101.632L97.8815 881.94H91.4895ZM130.605 882.367C128.361 882.367 126.429 881.912 124.81 881.003C123.2 880.084 121.959 878.787 121.088 877.111C120.217 875.425 119.781 873.432 119.781 871.131C119.781 868.886 120.217 866.917 121.088 865.222C121.959 863.527 123.186 862.206 124.767 861.259C126.358 860.312 128.224 859.838 130.364 859.838C131.803 859.838 133.143 860.07 134.384 860.534C135.634 860.989 136.723 861.675 137.651 862.594C138.588 863.512 139.317 864.668 139.838 866.06C140.359 867.442 140.619 869.062 140.619 870.918V872.58H122.196V868.83H134.923C134.923 867.958 134.734 867.187 134.355 866.514C133.976 865.842 133.451 865.316 132.779 864.938C132.116 864.549 131.344 864.355 130.463 864.355C129.545 864.355 128.73 864.568 128.02 864.994C127.319 865.411 126.77 865.975 126.372 866.685C125.975 867.386 125.771 868.167 125.762 869.028V872.594C125.762 873.673 125.96 874.606 126.358 875.392C126.765 876.178 127.338 876.784 128.077 877.21C128.815 877.636 129.691 877.85 130.705 877.85C131.377 877.85 131.993 877.755 132.551 877.565C133.11 877.376 133.588 877.092 133.986 876.713C134.384 876.334 134.687 875.87 134.895 875.321L140.492 875.69C140.208 877.035 139.625 878.209 138.744 879.213C137.873 880.207 136.746 880.984 135.364 881.543C133.991 882.092 132.405 882.367 130.605 882.367ZM144.568 881.94V860.122H150.435V863.929H150.662C151.06 862.575 151.727 861.552 152.665 860.861C153.602 860.16 154.682 859.81 155.904 859.81C156.207 859.81 156.533 859.829 156.884 859.867C157.234 859.904 157.542 859.957 157.807 860.023V865.392C157.523 865.307 157.13 865.231 156.628 865.165C156.126 865.099 155.667 865.065 155.25 865.065C154.36 865.065 153.565 865.26 152.864 865.648C152.173 866.027 151.623 866.557 151.216 867.239C150.818 867.921 150.619 868.707 150.619 869.597V881.94H144.568ZM186.088 861.216C185.975 860.07 185.487 859.18 184.625 858.546C183.763 857.911 182.594 857.594 181.117 857.594C180.113 857.594 179.265 857.736 178.574 858.02C177.883 858.295 177.352 858.678 176.983 859.171C176.623 859.663 176.443 860.222 176.443 860.847C176.424 861.368 176.533 861.822 176.77 862.21C177.016 862.599 177.352 862.935 177.779 863.219C178.205 863.493 178.697 863.735 179.256 863.943C179.815 864.142 180.411 864.313 181.046 864.455L183.659 865.08C184.928 865.364 186.093 865.743 187.154 866.216C188.214 866.689 189.133 867.272 189.909 867.963C190.686 868.654 191.287 869.469 191.713 870.406C192.149 871.344 192.371 872.419 192.381 873.631C192.371 875.411 191.917 876.955 191.017 878.261C190.127 879.559 188.839 880.567 187.154 881.287C185.477 881.997 183.456 882.352 181.088 882.352C178.74 882.352 176.694 881.993 174.952 881.273C173.219 880.553 171.865 879.488 170.889 878.077C169.923 876.656 169.417 874.9 169.369 872.807H175.321C175.387 873.782 175.667 874.597 176.159 875.25C176.661 875.894 177.329 876.382 178.162 876.713C179.005 877.035 179.957 877.196 181.017 877.196C182.059 877.196 182.963 877.045 183.73 876.742C184.507 876.439 185.108 876.017 185.534 875.477C185.96 874.938 186.173 874.317 186.173 873.617C186.173 872.963 185.979 872.414 185.591 871.969C185.212 871.524 184.654 871.145 183.915 870.832C183.186 870.52 182.291 870.236 181.23 869.98L178.063 869.185C175.61 868.588 173.673 867.655 172.253 866.386C170.833 865.118 170.127 863.408 170.137 861.259C170.127 859.497 170.596 857.958 171.543 856.642C172.499 855.326 173.811 854.298 175.477 853.56C177.144 852.821 179.038 852.452 181.159 852.452C183.318 852.452 185.203 852.821 186.813 853.56C188.432 854.298 189.691 855.326 190.591 856.642C191.491 857.958 191.955 859.483 191.983 861.216H186.088ZM210.396 872.651V860.122H216.447V881.94H210.637V877.977H210.41C209.918 879.256 209.098 880.283 207.953 881.06C206.816 881.836 205.429 882.225 203.791 882.225C202.332 882.225 201.049 881.893 199.941 881.23C198.833 880.567 197.967 879.625 197.342 878.403C196.726 877.182 196.414 875.719 196.404 874.014V860.122H202.455V872.935C202.465 874.223 202.811 875.241 203.492 875.989C204.174 876.737 205.088 877.111 206.234 877.111C206.963 877.111 207.645 876.945 208.279 876.614C208.914 876.273 209.425 875.771 209.813 875.108C210.211 874.445 210.405 873.626 210.396 872.651ZM221.287 890.122V860.122H227.253V863.787H227.523C227.788 863.2 228.172 862.603 228.673 861.997C229.185 861.382 229.848 860.87 230.662 860.463C231.486 860.046 232.509 859.838 233.73 859.838C235.321 859.838 236.789 860.255 238.134 861.088C239.478 861.912 240.553 863.157 241.358 864.824C242.163 866.481 242.565 868.56 242.565 871.06C242.565 873.493 242.173 875.548 241.387 877.225C240.61 878.891 239.549 880.155 238.205 881.017C236.869 881.869 235.373 882.296 233.716 882.296C232.542 882.296 231.543 882.101 230.719 881.713C229.905 881.325 229.237 880.837 228.716 880.25C228.195 879.653 227.798 879.052 227.523 878.446H227.338V890.122H221.287ZM227.21 871.031C227.21 872.329 227.39 873.46 227.75 874.426C228.11 875.392 228.631 876.145 229.313 876.685C229.994 877.215 230.823 877.48 231.798 877.48C232.783 877.48 233.617 877.21 234.298 876.671C234.98 876.121 235.496 875.364 235.847 874.398C236.207 873.422 236.387 872.3 236.387 871.031C236.387 869.772 236.211 868.664 235.861 867.707C235.511 866.751 234.994 866.003 234.313 865.463C233.631 864.923 232.793 864.653 231.798 864.653C230.814 864.653 229.98 864.914 229.298 865.435C228.626 865.956 228.11 866.694 227.75 867.651C227.39 868.607 227.21 869.734 227.21 871.031ZM246.6 890.122V860.122H252.565V863.787H252.835C253.101 863.2 253.484 862.603 253.986 861.997C254.497 861.382 255.16 860.87 255.975 860.463C256.798 860.046 257.821 859.838 259.043 859.838C260.634 859.838 262.101 860.255 263.446 861.088C264.791 861.912 265.866 863.157 266.671 864.824C267.476 866.481 267.878 868.56 267.878 871.06C267.878 873.493 267.485 875.548 266.699 877.225C265.923 878.891 264.862 880.155 263.517 881.017C262.182 881.869 260.686 882.296 259.029 882.296C257.854 882.296 256.855 882.101 256.031 881.713C255.217 881.325 254.549 880.837 254.029 880.25C253.508 879.653 253.11 879.052 252.835 878.446H252.651V890.122H246.6ZM252.523 871.031C252.523 872.329 252.703 873.46 253.063 874.426C253.423 875.392 253.943 876.145 254.625 876.685C255.307 877.215 256.136 877.48 257.111 877.48C258.096 877.48 258.929 877.21 259.611 876.671C260.293 876.121 260.809 875.364 261.159 874.398C261.519 873.422 261.699 872.3 261.699 871.031C261.699 869.772 261.524 868.664 261.173 867.707C260.823 866.751 260.307 866.003 259.625 865.463C258.943 864.923 258.105 864.653 257.111 864.653C256.126 864.653 255.293 864.914 254.611 865.435C253.939 865.956 253.423 866.694 253.063 867.651C252.703 868.607 252.523 869.734 252.523 871.031ZM277.963 852.85V881.94H271.912V852.85H277.963ZM286.546 890.122C285.779 890.122 285.06 890.061 284.387 889.938C283.724 889.824 283.175 889.677 282.74 889.497L284.103 884.98C284.813 885.198 285.453 885.316 286.021 885.335C286.598 885.354 287.096 885.222 287.512 884.938C287.938 884.653 288.284 884.171 288.549 883.489L288.904 882.565L281.078 860.122H287.441L291.958 876.145H292.186L296.745 860.122H303.151L294.671 884.298C294.264 885.473 293.71 886.495 293.009 887.367C292.318 888.247 291.442 888.924 290.382 889.398C289.321 889.881 288.043 890.122 286.546 890.122Z" fill="black"/>
<path d="M1504 1286.5C1521 1264 1524.9 1208.5 1522.5 1142.5" stroke="black" stroke-width="7"/>
<path d="M1502 1286.5C1550.5 1266 1579.08 1179.36 1577.5 1142.5" stroke="#ED313D" stroke-width="7"/>
<path d="M1505 1285C1187 1710.5 232 1530.5 164 1061.5" stroke="#6E6E6E" stroke-width="9"/>
<path d="M1648 1540.78C2315.31 1502.67 2336.88 1617 2492 1617" stroke="#E30016" stroke-width="9"/>
<path d="M1648 1683.98C2316.1 1713.47 2337.69 1625 2493 1625" stroke="#0000FE" stroke-width="9"/>
<path d="M1616 1608.77C2319.01 1597.41 2341.25 1624.97 2495 1620.51" stroke="#FF862C" stroke-width="9"/>
<path d="M2491 1621C2764.34 1588 2540.27 1385.78 2563.1 951" stroke="black" stroke-width="20"/>
<path d="M2136 1545C2055.6 1525.15 2013.19 1357.05 2018.24 1142.01" stroke="#E30016" stroke-width="9"/>
<path d="M2095.29 1607.58C1963.3 1585.81 1916.5 1397 1908 1142.5" stroke="#FF862C" stroke-width="9"/>
<path d="M2056 1687C1896.32 1666.29 1795.7 1396.96 1797.66 1142.49" stroke="#0000FE" stroke-width="9"/>
<path d="M1642.5 1734C2345.39 1783.91 2330.11 1625.5 2493.5 1625.5" stroke="black" stroke-width="9"/>
<path d="M1980 1742C1799.18 1719.39 1685.52 1423.06 1688.03 1142.96" stroke="black" stroke-width="9"/>
<path d="M2387.79 920H2381.2L2391.24 890.909H2399.17L2409.2 920H2402.61L2395.32 897.557H2395.09L2387.79 920ZM2387.38 908.565H2402.95V913.366H2387.38V908.565ZM2437 901.094H2430.78C2430.67 900.289 2430.43 899.574 2430.08 898.949C2429.73 898.314 2429.28 897.775 2428.73 897.33C2428.18 896.884 2427.55 896.544 2426.83 896.307C2426.12 896.07 2425.35 895.952 2424.51 895.952C2423.01 895.952 2421.7 896.326 2420.58 897.074C2419.46 897.812 2418.6 898.892 2417.98 900.312C2417.37 901.723 2417.06 903.437 2417.06 905.455C2417.06 907.528 2417.37 909.271 2417.98 910.682C2418.61 912.093 2419.48 913.158 2420.59 913.878C2421.71 914.598 2423 914.957 2424.47 914.957C2425.3 914.957 2426.06 914.848 2426.76 914.631C2427.47 914.413 2428.1 914.096 2428.65 913.679C2429.2 913.253 2429.65 912.737 2430.01 912.131C2430.38 911.525 2430.64 910.833 2430.78 910.057L2437 910.085C2436.84 911.42 2436.44 912.708 2435.79 913.949C2435.16 915.18 2434.3 916.283 2433.22 917.259C2432.15 918.224 2430.87 918.991 2429.39 919.56C2427.91 920.118 2426.24 920.398 2424.37 920.398C2421.78 920.398 2419.46 919.811 2417.41 918.636C2415.38 917.462 2413.77 915.762 2412.58 913.537C2411.41 911.312 2410.82 908.617 2410.82 905.455C2410.82 902.282 2411.42 899.583 2412.61 897.358C2413.8 895.133 2415.42 893.437 2417.47 892.273C2419.51 891.098 2421.82 890.511 2424.37 890.511C2426.06 890.511 2427.62 890.748 2429.06 891.222C2430.51 891.695 2431.79 892.386 2432.91 893.295C2434.03 894.195 2434.94 895.298 2435.64 896.605C2436.35 897.912 2436.8 899.408 2437 901.094ZM2450.56 928.182V898.182H2456.52V901.847H2456.79C2457.06 901.259 2457.44 900.663 2457.94 900.057C2458.45 899.441 2459.12 898.93 2459.93 898.523C2460.75 898.106 2461.78 897.898 2463 897.898C2464.59 897.898 2466.06 898.314 2467.4 899.148C2468.75 899.972 2469.82 901.217 2470.63 902.884C2471.43 904.541 2471.83 906.619 2471.83 909.119C2471.83 911.553 2471.44 913.608 2470.65 915.284C2469.88 916.951 2468.82 918.215 2467.47 919.077C2466.14 919.929 2464.64 920.355 2462.98 920.355C2461.81 920.355 2460.81 920.161 2459.99 919.773C2459.17 919.384 2458.51 918.897 2457.98 918.31C2457.46 917.713 2457.07 917.112 2456.79 916.506H2456.61V928.182H2450.56ZM2456.48 909.091C2456.48 910.388 2456.66 911.52 2457.02 912.486C2457.38 913.452 2457.9 914.205 2458.58 914.744C2459.26 915.275 2460.09 915.54 2461.07 915.54C2462.05 915.54 2462.88 915.27 2463.57 914.73C2464.25 914.181 2464.76 913.423 2465.12 912.457C2465.47 911.482 2465.65 910.36 2465.65 909.091C2465.65 907.831 2465.48 906.723 2465.13 905.767C2464.78 904.811 2464.26 904.062 2463.58 903.523C2462.9 902.983 2462.06 902.713 2461.07 902.713C2460.08 902.713 2459.25 902.973 2458.57 903.494C2457.89 904.015 2457.38 904.754 2457.02 905.71C2456.66 906.667 2456.48 907.794 2456.48 909.091ZM2485.73 920.426C2483.52 920.426 2481.61 919.957 2480 919.02C2478.4 918.073 2477.17 916.757 2476.29 915.071C2475.42 913.376 2474.99 911.411 2474.99 909.176C2474.99 906.922 2475.42 904.953 2476.29 903.267C2477.17 901.572 2478.4 900.256 2480 899.318C2481.61 898.371 2483.52 897.898 2485.73 897.898C2487.93 897.898 2489.84 898.371 2491.44 899.318C2493.05 900.256 2494.29 901.572 2495.16 903.267C2496.03 904.953 2496.46 906.922 2496.46 909.176C2496.46 911.411 2496.03 913.376 2495.16 915.071C2494.29 916.757 2493.05 918.073 2491.44 919.02C2489.84 919.957 2487.93 920.426 2485.73 920.426ZM2485.75 915.739C2486.76 915.739 2487.6 915.455 2488.27 914.886C2488.94 914.309 2489.45 913.523 2489.79 912.528C2490.14 911.534 2490.31 910.402 2490.31 909.134C2490.31 907.865 2490.14 906.733 2489.79 905.739C2489.45 904.744 2488.94 903.958 2488.27 903.381C2487.6 902.803 2486.76 902.514 2485.75 902.514C2484.74 902.514 2483.89 902.803 2483.2 903.381C2482.52 903.958 2482 904.744 2481.65 905.739C2481.31 906.733 2481.14 907.865 2481.14 909.134C2481.14 910.402 2481.31 911.534 2481.65 912.528C2482 913.523 2482.52 914.309 2483.2 914.886C2483.89 915.455 2484.74 915.739 2485.75 915.739ZM2504.16 920L2498.22 898.182H2504.34L2507.72 912.841H2507.92L2511.44 898.182H2517.45L2521.03 912.756H2521.22L2524.54 898.182H2530.65L2524.72 920H2518.32L2514.57 906.278H2514.3L2510.55 920H2504.16ZM2543.27 920.426C2541.03 920.426 2539.1 919.972 2537.48 919.062C2535.87 918.144 2534.63 916.847 2533.75 915.17C2532.88 913.485 2532.45 911.491 2532.45 909.19C2532.45 906.946 2532.88 904.976 2533.75 903.281C2534.63 901.586 2535.85 900.265 2537.43 899.318C2539.02 898.371 2540.89 897.898 2543.03 897.898C2544.47 897.898 2545.81 898.13 2547.05 898.594C2548.3 899.048 2549.39 899.735 2550.32 900.653C2551.25 901.572 2551.98 902.727 2552.5 904.119C2553.03 905.502 2553.29 907.121 2553.29 908.977V910.639H2534.86V906.889H2547.59C2547.59 906.018 2547.4 905.246 2547.02 904.574C2546.64 903.902 2546.12 903.376 2545.45 902.997C2544.78 902.609 2544.01 902.415 2543.13 902.415C2542.21 902.415 2541.4 902.628 2540.69 903.054C2539.99 903.471 2539.44 904.034 2539.04 904.744C2538.64 905.445 2538.44 906.226 2538.43 907.088V910.653C2538.43 911.733 2538.63 912.666 2539.02 913.452C2539.43 914.238 2540 914.844 2540.74 915.27C2541.48 915.696 2542.36 915.909 2543.37 915.909C2544.04 915.909 2544.66 915.814 2545.22 915.625C2545.78 915.436 2546.25 915.152 2546.65 914.773C2547.05 914.394 2547.35 913.93 2547.56 913.381L2553.16 913.75C2552.87 915.095 2552.29 916.269 2551.41 917.273C2550.54 918.267 2549.41 919.044 2548.03 919.602C2546.66 920.152 2545.07 920.426 2543.27 920.426ZM2557.24 920V898.182H2563.1V901.989H2563.33C2563.73 900.634 2564.39 899.612 2565.33 898.92C2566.27 898.22 2567.35 897.869 2568.57 897.869C2568.87 897.869 2569.2 897.888 2569.55 897.926C2569.9 897.964 2570.21 898.016 2570.47 898.082V903.452C2570.19 903.366 2569.8 903.291 2569.29 903.224C2568.79 903.158 2568.33 903.125 2567.92 903.125C2567.03 903.125 2566.23 903.319 2565.53 903.707C2564.84 904.086 2564.29 904.616 2563.88 905.298C2563.49 905.98 2563.29 906.766 2563.29 907.656V920H2557.24ZM2601.01 904.403L2595.47 904.744C2595.38 904.271 2595.18 903.845 2594.86 903.466C2594.55 903.078 2594.14 902.77 2593.63 902.543C2593.13 902.306 2592.52 902.188 2591.82 902.188C2590.89 902.188 2590.09 902.386 2589.45 902.784C2588.81 903.172 2588.49 903.693 2588.49 904.347C2588.49 904.867 2588.69 905.308 2589.11 905.668C2589.53 906.027 2590.24 906.316 2591.25 906.534L2595.2 907.33C2597.33 907.765 2598.91 908.466 2599.95 909.432C2600.99 910.398 2601.51 911.667 2601.51 913.239C2601.51 914.669 2601.09 915.923 2600.25 917.003C2599.41 918.082 2598.27 918.925 2596.81 919.531C2595.36 920.128 2593.69 920.426 2591.79 920.426C2588.91 920.426 2586.61 919.825 2584.89 918.622C2583.19 917.41 2582.19 915.762 2581.89 913.679L2587.85 913.366C2588.03 914.247 2588.46 914.92 2589.15 915.384C2589.84 915.838 2590.73 916.065 2591.81 916.065C2592.87 916.065 2593.72 915.862 2594.37 915.455C2595.02 915.038 2595.35 914.503 2595.36 913.849C2595.35 913.3 2595.12 912.85 2594.66 912.5C2594.21 912.14 2593.51 911.866 2592.56 911.676L2588.78 910.923C2586.65 910.497 2585.07 909.759 2584.02 908.707C2582.99 907.656 2582.48 906.316 2582.48 904.688C2582.48 903.286 2582.86 902.079 2583.61 901.065C2584.38 900.052 2585.45 899.271 2586.84 898.722C2588.23 898.172 2589.86 897.898 2591.72 897.898C2594.48 897.898 2596.65 898.48 2598.23 899.645C2599.82 900.81 2600.75 902.396 2601.01 904.403ZM2619.31 910.71V898.182H2625.36V920H2619.55V916.037H2619.33C2618.83 917.315 2618.02 918.343 2616.87 919.119C2615.73 919.896 2614.35 920.284 2612.71 920.284C2611.25 920.284 2609.97 919.953 2608.86 919.29C2607.75 918.627 2606.88 917.685 2606.26 916.463C2605.64 915.241 2605.33 913.778 2605.32 912.074V898.182H2611.37V910.994C2611.38 912.282 2611.73 913.3 2612.41 914.048C2613.09 914.796 2614 915.17 2615.15 915.17C2615.88 915.17 2616.56 915.005 2617.2 914.673C2617.83 914.332 2618.34 913.83 2618.73 913.168C2619.13 912.505 2619.32 911.686 2619.31 910.71ZM2630.2 928.182V898.182H2636.17V901.847H2636.44C2636.7 901.259 2637.09 900.663 2637.59 900.057C2638.1 899.441 2638.76 898.93 2639.58 898.523C2640.4 898.106 2641.43 897.898 2642.65 897.898C2644.24 897.898 2645.71 898.314 2647.05 899.148C2648.4 899.972 2649.47 901.217 2650.27 902.884C2651.08 904.541 2651.48 906.619 2651.48 909.119C2651.48 911.553 2651.09 913.608 2650.3 915.284C2649.53 916.951 2648.47 918.215 2647.12 919.077C2645.79 919.929 2644.29 920.355 2642.63 920.355C2641.46 920.355 2640.46 920.161 2639.64 919.773C2638.82 919.384 2638.15 918.897 2637.63 918.31C2637.11 917.713 2636.71 917.112 2636.44 916.506H2636.25V928.182H2630.2ZM2636.13 909.091C2636.13 910.388 2636.31 911.52 2636.67 912.486C2637.03 913.452 2637.55 914.205 2638.23 914.744C2638.91 915.275 2639.74 915.54 2640.72 915.54C2641.7 915.54 2642.53 915.27 2643.22 914.73C2643.9 914.181 2644.41 913.423 2644.76 912.457C2645.12 911.482 2645.3 910.36 2645.3 909.091C2645.3 907.831 2645.13 906.723 2644.78 905.767C2644.43 904.811 2643.91 904.062 2643.23 903.523C2642.55 902.983 2641.71 902.713 2640.72 902.713C2639.73 902.713 2638.9 902.973 2638.22 903.494C2637.54 904.015 2637.03 904.754 2636.67 905.71C2636.31 906.667 2636.13 907.794 2636.13 909.091ZM2655.52 928.182V898.182H2661.48V901.847H2661.75C2662.02 901.259 2662.4 900.663 2662.9 900.057C2663.41 899.441 2664.08 898.93 2664.89 898.523C2665.72 898.106 2666.74 897.898 2667.96 897.898C2669.55 897.898 2671.02 898.314 2672.36 899.148C2673.71 899.972 2674.78 901.217 2675.59 902.884C2676.39 904.541 2676.79 906.619 2676.79 909.119C2676.79 911.553 2676.4 913.608 2675.62 915.284C2674.84 916.951 2673.78 918.215 2672.43 919.077C2671.1 919.929 2669.6 920.355 2667.95 920.355C2666.77 920.355 2665.77 920.161 2664.95 919.773C2664.13 919.384 2663.47 918.897 2662.95 918.31C2662.42 917.713 2662.03 917.112 2661.75 916.506H2661.57V928.182H2655.52ZM2661.44 909.091C2661.44 910.388 2661.62 911.52 2661.98 912.486C2662.34 913.452 2662.86 914.205 2663.54 914.744C2664.22 915.275 2665.05 915.54 2666.03 915.54C2667.01 915.54 2667.85 915.27 2668.53 914.73C2669.21 914.181 2669.73 913.423 2670.08 912.457C2670.44 911.482 2670.62 910.36 2670.62 909.091C2670.62 907.831 2670.44 906.723 2670.09 905.767C2669.74 904.811 2669.22 904.062 2668.54 903.523C2667.86 902.983 2667.02 902.713 2666.03 902.713C2665.04 902.713 2664.21 902.973 2663.53 903.494C2662.86 904.015 2662.34 904.754 2661.98 905.71C2661.62 906.667 2661.44 907.794 2661.44 909.091ZM2686.88 890.909V920H2680.83V890.909H2686.88ZM2695.46 928.182C2694.7 928.182 2693.98 928.12 2693.3 927.997C2692.64 927.884 2692.09 927.737 2691.66 927.557L2693.02 923.04C2693.73 923.258 2694.37 923.376 2694.94 923.395C2695.52 923.414 2696.01 923.281 2696.43 922.997C2696.86 922.713 2697.2 922.23 2697.47 921.548L2697.82 920.625L2689.99 898.182H2696.36L2700.88 914.205H2701.1L2705.66 898.182H2712.07L2703.59 922.358C2703.18 923.532 2702.63 924.555 2701.93 925.426C2701.23 926.307 2700.36 926.984 2699.3 927.457C2698.24 927.94 2696.96 928.182 2695.46 928.182Z" fill="black"/>
<defs>
<filter id="filter0_d_61_5" x="474" y="0" width="1658" height="1187" filterUnits="userSpaceOnUse" color-interpolation-filters="sRGB">
<feFlood flood-opacity="0" result="BackgroundImageFix"/>
<feColorMatrix in="SourceAlpha" type="matrix" values="0 0 0 0 0 0 0 0 0 0 0 0 0 0 0 0 0 0 127 0" result="hardAlpha"/>
<feOffset dy="4"/>
<feGaussianBlur stdDeviation="2"/>
<feComposite in2="hardAlpha" operator="out"/>
<feColorMatrix type="matrix" values="0 0 0 0 0 0 0 0 0 0 0 0 0 0 0 0 0 0 0.25 0"/>
<feBlend mode="normal" in2="BackgroundImageFix" result="effect1_dropShadow_61_5"/>
<feBlend mode="normal" in="SourceGraphic" in2="effect1_dropShadow_61_5" result="shape"/>
</filter>
<filter id="filter1_d_61_5" x="472" y="0" width="1660" height="1080" filterUnits="userSpaceOnUse" color-interpolation-filters="sRGB">
<feFlood flood-opacity="0" result="BackgroundImageFix"/>
<feColorMatrix in="SourceAlpha" type="matrix" values="0 0 0 0 0 0 0 0 0 0 0 0 0 0 0 0 0 0 127 0" result="hardAlpha"/>
<feOffset dy="4"/>
<feGaussianBlur stdDeviation="2"/>
<feComposite in2="hardAlpha" operator="out"/>
<feColorMatrix type="matrix" values="0 0 0 0 0 0 0 0 0 0 0 0 0 0 0 0 0 0 0.25 0"/>
<feBlend mode="normal" in2="BackgroundImageFix" result="effect1_dropShadow_61_5"/>
<feBlend mode="normal" in="SourceGraphic" in2="effect1_dropShadow_61_5" result="shape"/>
</filter>
<linearGradient id="paint0_linear_61_5" x1="1302" y1="719" x2="1302" y2="929" gradientUnits="userSpaceOnUse">
<stop stop-color="#F3F3F3"/>
<stop offset="0.9999" stop-color="#E4E4E4"/>
</linearGradient>
</defs>
</svg>
